<svg width="21" height="22" viewBox="0 0 21 22" fill="none" xmlns="http://www.w3.org/2000/svg">
<path d="M10.5 0.84375C8.49129 0.84375 6.52768 1.4394 4.85749 2.55539C3.18731 3.67137 1.88556 5.25756 1.11685 7.11337C0.348151 8.96918 0.147023 11.0113 0.538904 12.9814C0.930785 14.9515 1.89807 16.7612 3.31845 18.1816C4.73883 19.6019 6.5485 20.5692 8.51862 20.9611C10.4887 21.353 12.5308 21.1519 14.3866 20.3832C16.2424 19.6145 17.8286 18.3127 18.9446 16.6425C20.0606 14.9723 20.6563 13.0087 20.6563 11C20.6534 8.30727 19.5825 5.72564 17.6784 3.82159C15.7744 1.91754 13.1927 0.846594 10.5 0.84375ZM14.959 9.20899L9.49024 14.6777C9.41768 14.7504 9.33152 14.808 9.23668 14.8473C9.14184 14.8866 9.04017 14.9069 8.9375 14.9069C8.83484 14.9069 8.73318 14.8866 8.63833 14.8473C8.54349 14.808 8.45733 14.7504 8.38477 14.6777L6.04102 12.334C5.89443 12.1874 5.81207 11.9886 5.81207 11.7813C5.81207 11.5739 5.89443 11.3751 6.04102 11.2285C6.18761 11.0819 6.38644 10.9996 6.59375 10.9996C6.80107 10.9996 6.9999 11.0819 7.14649 11.2285L8.9375 13.0205L13.8535 8.10352C13.9261 8.03093 14.0123 7.97335 14.1071 7.93407C14.202 7.89478 14.3036 7.87457 14.4063 7.87457C14.5089 7.87457 14.6106 7.89478 14.7054 7.93407C14.8002 7.97335 14.8864 8.03093 14.959 8.10352C15.0316 8.1761 15.0892 8.26227 15.1284 8.35711C15.1677 8.45195 15.1879 8.5536 15.1879 8.65625C15.1879 8.7589 15.1677 8.86055 15.1284 8.95539C15.0892 9.05023 15.0316 9.1364 14.959 9.20899Z" fill="#10B981"/>
</svg>
