<svg width="1024" height="1024" viewBox="0 0 1024 1024" fill="none" xmlns="http://www.w3.org/2000/svg">
<g clip-path="url(#clip0_89_154)">
<rect width="1024" height="1024" rx="228" fill="white"/>
<rect width="1024" height="1024" fill="url(#paint0_linear_89_154)"/>
<rect x="202" y="227" width="620" height="120" rx="20" fill="white"/>
<rect x="252" y="269.5" width="135" height="35" rx="12" fill="black"/>
<rect x="417" y="269.5" width="35" height="35" rx="12" fill="black"/>
<rect x="482" y="269.5" width="135" height="35" rx="12" fill="black"/>
<rect x="647" y="269.5" width="35" height="35" rx="12" fill="black"/>
<rect x="202" y="377" width="620" height="100" rx="20" fill="white"/>
<rect x="252" y="410" width="35" height="35" rx="12" fill="black"/>
<rect x="317" y="410" width="135" height="35" rx="12" fill="black"/>
<rect x="482" y="410" width="35" height="35" rx="12" fill="black"/>
<rect x="547" y="410" width="35" height="35" rx="12" fill="black"/>
<rect x="202" y="507" width="620" height="140" rx="20" fill="white"/>
<rect x="252" y="560" width="35" height="35" rx="12" fill="black"/>
<rect x="317" y="560" width="35" height="35" rx="12" fill="black"/>
<rect x="202" y="677" width="620" height="120" rx="20" fill="white"/>
<rect x="252" y="720" width="35" height="35" rx="12" fill="black"/>
<rect x="317" y="720" width="135" height="35" rx="12" fill="black"/>
<rect x="482" y="720" width="135" height="35" rx="12" fill="black"/>
<rect x="647" y="720" width="35" height="35" rx="12" fill="black"/>
</g>
<defs>
<linearGradient id="paint0_linear_89_154" x1="194" y1="198" x2="801.5" y2="830" gradientUnits="userSpaceOnUse">
<stop stop-color="#057A5A" stop-opacity="0.95"/>
<stop offset="0.484217" stop-color="#027151"/>
<stop offset="1" stop-color="#006A20" stop-opacity="0.95"/>
</linearGradient>
<clipPath id="clip0_89_154">
<rect width="1024" height="1024" rx="228" fill="white"/>
</clipPath>
</defs>
</svg>
