<svg width="400" height="500" viewBox="0 0 400 500" fill="none" xmlns="http://www.w3.org/2000/svg">
<g clip-path="url(#clip0_3515_11313)">
<circle cx="200" cy="56" r="14" fill="url(#paint0_linear_3515_11313)"/>
<path d="M206.987 50.2088C207.111 49.4033 206.345 48.7676 205.629 49.082L191.365 55.3448C190.851 55.5703 190.889 56.3483 191.421 56.5179L194.363 57.4547C194.925 57.6335 195.533 57.541 196.023 57.2023L202.655 52.6203C202.855 52.4821 203.073 52.7665 202.902 52.9426L198.128 57.8646C197.665 58.3421 197.757 59.1512 198.314 59.5005L203.659 62.8523C204.258 63.2282 205.03 62.8506 205.142 62.1261L206.987 50.2088Z" fill="white"/>
<path d="M157.952 91.396H169.868V92.656H157.952V91.396ZM163.118 84.916H164.54V98.506C164.54 99.568 164.756 99.766 165.818 99.766C166.358 99.766 169.004 99.766 169.652 99.766C170.642 99.766 170.822 99.172 170.966 96.85C171.308 97.102 171.884 97.336 172.316 97.444C172.082 100.18 171.632 101.134 169.724 101.134C169.238 101.134 166.196 101.134 165.728 101.134C163.712 101.134 163.118 100.594 163.118 98.488V84.916ZM158.06 87.508H170.552V96.58H158.06V95.266H169.184V88.822H158.06V87.508ZM157.25 87.508H158.654V97.678H157.25V87.508ZM181.55 91.666H188.678V92.908H181.55V91.666ZM183.566 92.332C184.772 95.788 187.22 98.92 190.334 100.252C190.01 100.522 189.596 101.044 189.38 101.404C186.176 99.82 183.728 96.508 182.396 92.656L183.566 92.332ZM188.318 91.666H188.57L188.822 91.612L189.686 91.9C188.822 96.004 186.536 99.586 182.972 101.476C182.756 101.17 182.36 100.756 182.054 100.486C185.42 98.794 187.598 95.446 188.318 91.954V91.666ZM187.76 85.492H189.128C189.128 85.492 189.11 85.87 189.092 86.068C189.002 88.606 188.84 89.65 188.444 90.046C188.12 90.388 187.706 90.478 187.112 90.532C186.554 90.55 185.402 90.55 184.196 90.478C184.178 90.136 184.034 89.668 183.836 89.344C185.006 89.452 186.194 89.452 186.554 89.452C186.932 89.452 187.13 89.434 187.292 89.308C187.544 89.056 187.652 88.102 187.76 85.69V85.492ZM173.576 94.42C175.16 94.024 177.518 93.358 179.786 92.71L179.93 94.006C177.86 94.654 175.628 95.32 173.936 95.788L173.576 94.42ZM173.828 88.516H179.804V89.848H173.828V88.516ZM176.402 84.898H177.77V99.766C177.77 100.612 177.554 100.99 177.032 101.188C176.492 101.422 175.646 101.44 174.224 101.44C174.17 101.098 173.972 100.522 173.774 100.162C174.782 100.198 175.718 100.18 175.988 100.162C176.294 100.162 176.402 100.072 176.402 99.766V84.898ZM180.614 85.492H188.174V86.77H181.946V101.404H180.614V85.492ZM202.592 92.206L204.032 92.602C202.052 97.624 198.092 100.126 192.566 101.512C192.422 101.17 191.99 100.558 191.702 100.234C197.156 99.1 200.936 96.76 202.592 92.206ZM196.724 89.11L198.092 89.632C196.814 91.36 194.798 93.052 193.052 94.15C192.818 93.862 192.296 93.322 191.954 93.07C193.718 92.134 195.626 90.64 196.724 89.11ZM197.444 92.296C199.118 96.562 202.772 99.244 208.352 100.162C208.046 100.468 207.65 101.08 207.452 101.458C201.71 100.36 198.092 97.48 196.166 92.692L197.444 92.296ZM192.098 87.238H207.902V88.552H192.098V87.238ZM199.262 84.862H200.648V88.084H199.262V84.862ZM202.106 89.866L203.222 89.038C204.914 90.172 207.038 91.846 208.064 93.034L206.894 93.97C205.922 92.782 203.834 91.036 202.106 89.866ZM214.652 87.238H226.118V88.462H214.652V87.238ZM219.44 84.898H220.808V87.832H219.44V84.898ZM219.44 93.52H220.646V100.666H219.44V93.52ZM216.272 93.412H217.514V95.302C217.514 97.318 217.226 99.658 214.796 101.422C214.598 101.152 214.148 100.738 213.842 100.522C216.038 98.992 216.272 96.958 216.272 95.266V93.412ZM218.63 87.904L220.034 88.336C219.35 89.632 218.504 91.162 217.82 92.134L216.74 91.738C217.406 90.712 218.198 89.056 218.63 87.904ZM221.78 89.668L222.824 89.074C224.12 90.172 225.56 91.738 226.208 92.836L225.092 93.502C224.48 92.422 223.058 90.784 221.78 89.668ZM214.886 91.414C217.226 91.36 220.934 91.216 224.462 91.09L224.426 92.224C221.042 92.422 217.496 92.602 215.03 92.71L214.886 91.414ZM210.62 86.014L211.376 85.042C212.51 85.528 213.932 86.338 214.616 86.968L213.842 88.066C213.158 87.418 211.772 86.554 210.62 86.014ZM209.666 90.91L210.404 89.902C211.556 90.334 213.014 91.108 213.734 91.702L212.96 92.818C212.258 92.206 210.836 91.396 209.666 90.91ZM210.206 100.324C211.124 98.938 212.438 96.544 213.41 94.492L214.436 95.32C213.554 97.228 212.366 99.514 211.376 101.188L210.206 100.324ZM222.626 93.412H223.886V99.37C223.886 99.73 223.904 99.91 223.994 100C224.048 100.054 224.174 100.072 224.282 100.072C224.408 100.072 224.642 100.072 224.804 100.072C224.948 100.072 225.11 100.054 225.182 99.982C225.272 99.928 225.326 99.802 225.362 99.514C225.398 99.208 225.416 98.56 225.434 97.696C225.668 97.894 226.064 98.092 226.388 98.2C226.37 98.992 226.316 99.946 226.208 100.27C226.118 100.612 225.974 100.828 225.722 100.972C225.524 101.098 225.164 101.17 224.876 101.17C224.642 101.17 224.174 101.17 223.976 101.17C223.634 101.17 223.238 101.08 222.986 100.864C222.716 100.612 222.626 100.324 222.626 99.226V93.412ZM236.54 88.39H243.938V89.632H236.54V88.39ZM236.792 92.08H243.632V93.34H236.792V92.08ZM236.126 95.95H244.352V97.228H236.126V95.95ZM236.774 85.384L237.836 85.024C238.448 85.924 238.988 87.13 239.168 87.94L237.998 88.39C237.836 87.562 237.332 86.32 236.774 85.384ZM242.3 84.862L243.614 85.186C243.11 86.266 242.57 87.508 242.102 88.318L240.986 88.012C241.436 87.166 242.03 85.816 242.3 84.862ZM239.51 88.984H240.824V101.458H239.51V88.984ZM227.774 88.768H236.342V89.938H227.774V88.768ZM228.71 85.798H235.28V92.89H228.602V91.72H234.02V86.968H228.71V85.798ZM229.664 94.762H230.906V101.458H229.664V94.762ZM230.168 94.762H235.532V100.486H230.168V99.28H234.2V95.95H230.168V94.762ZM230.942 86.212L232.238 86.284C231.86 91.558 230.978 95.608 228.404 98.236C228.242 97.966 227.774 97.426 227.486 97.174C229.898 94.906 230.636 91.018 230.942 86.212Z" fill="#007DBB"/>
<path d="M147.362 115.912V114.818H154.998V115.912H151.796V125H150.563V115.912H147.362ZM158.836 125.159C158.1 125.159 157.466 124.997 156.932 124.672C156.402 124.344 155.992 123.886 155.704 123.3C155.419 122.71 155.276 122.024 155.276 121.241C155.276 120.459 155.419 119.77 155.704 119.173C155.992 118.573 156.393 118.106 156.907 117.771C157.424 117.433 158.027 117.264 158.717 117.264C159.115 117.264 159.507 117.33 159.895 117.463C160.283 117.596 160.636 117.811 160.954 118.109C161.272 118.404 161.526 118.795 161.715 119.283C161.904 119.77 161.998 120.37 161.998 121.082V121.58H156.112V120.565H160.805C160.805 120.134 160.719 119.75 160.546 119.412C160.377 119.074 160.135 118.807 159.82 118.612C159.509 118.416 159.141 118.318 158.717 118.318C158.249 118.318 157.845 118.434 157.504 118.666C157.166 118.895 156.905 119.193 156.723 119.561C156.541 119.929 156.45 120.323 156.45 120.744V121.42C156.45 121.997 156.549 122.486 156.748 122.887C156.95 123.285 157.23 123.588 157.588 123.797C157.946 124.002 158.362 124.105 158.836 124.105C159.144 124.105 159.423 124.062 159.671 123.976C159.923 123.886 160.14 123.754 160.323 123.578C160.505 123.399 160.646 123.177 160.745 122.912L161.879 123.23C161.759 123.615 161.559 123.953 161.277 124.244C160.995 124.533 160.647 124.758 160.233 124.92C159.819 125.08 159.353 125.159 158.836 125.159ZM164.956 114.818V125H163.783V114.818H164.956ZM170.307 125.159C169.571 125.159 168.936 124.997 168.403 124.672C167.872 124.344 167.463 123.886 167.175 123.3C166.89 122.71 166.747 122.024 166.747 121.241C166.747 120.459 166.89 119.77 167.175 119.173C167.463 118.573 167.864 118.106 168.378 117.771C168.895 117.433 169.498 117.264 170.188 117.264C170.585 117.264 170.978 117.33 171.366 117.463C171.754 117.596 172.107 117.811 172.425 118.109C172.743 118.404 172.996 118.795 173.185 119.283C173.374 119.77 173.469 120.37 173.469 121.082V121.58H167.582V120.565H172.276C172.276 120.134 172.189 119.75 172.017 119.412C171.848 119.074 171.606 118.807 171.291 118.612C170.98 118.416 170.612 118.318 170.188 118.318C169.72 118.318 169.316 118.434 168.974 118.666C168.636 118.895 168.376 119.193 168.194 119.561C168.012 119.929 167.92 120.323 167.92 120.744V121.42C167.92 121.997 168.02 122.486 168.219 122.887C168.421 123.285 168.701 123.588 169.059 123.797C169.417 124.002 169.833 124.105 170.307 124.105C170.615 124.105 170.893 124.062 171.142 123.976C171.394 123.886 171.611 123.754 171.793 123.578C171.976 123.399 172.116 123.177 172.216 122.912L173.349 123.23C173.23 123.615 173.03 123.953 172.748 124.244C172.466 124.533 172.118 124.758 171.704 124.92C171.29 125.08 170.824 125.159 170.307 125.159ZM178.336 128.023C177.769 128.023 177.282 127.95 176.874 127.804C176.467 127.661 176.127 127.473 175.855 127.237C175.587 127.005 175.373 126.757 175.214 126.491L176.148 125.835C176.254 125.974 176.389 126.134 176.551 126.312C176.714 126.495 176.936 126.652 177.217 126.785C177.502 126.921 177.875 126.989 178.336 126.989C178.952 126.989 179.461 126.839 179.862 126.541C180.263 126.243 180.464 125.776 180.464 125.139V123.588H180.364C180.278 123.727 180.156 123.9 179.996 124.105C179.841 124.307 179.615 124.488 179.32 124.647C179.029 124.803 178.634 124.881 178.137 124.881C177.521 124.881 176.967 124.735 176.477 124.443C175.989 124.152 175.603 123.727 175.318 123.17C175.036 122.614 174.896 121.937 174.896 121.142C174.896 120.36 175.033 119.679 175.308 119.099C175.583 118.515 175.966 118.065 176.457 117.746C176.947 117.425 177.514 117.264 178.157 117.264C178.654 117.264 179.049 117.347 179.34 117.513C179.635 117.675 179.861 117.861 180.016 118.07C180.175 118.275 180.298 118.444 180.384 118.577H180.504V117.364H181.637V125.219C181.637 125.875 181.488 126.409 181.19 126.82C180.895 127.234 180.497 127.537 179.996 127.729C179.499 127.925 178.946 128.023 178.336 128.023ZM178.296 123.827C178.767 123.827 179.165 123.719 179.489 123.504C179.814 123.288 180.061 122.978 180.23 122.574C180.399 122.17 180.484 121.686 180.484 121.122C180.484 120.572 180.401 120.086 180.235 119.665C180.069 119.245 179.824 118.915 179.499 118.676C179.174 118.437 178.773 118.318 178.296 118.318C177.799 118.318 177.385 118.444 177.053 118.696C176.725 118.948 176.478 119.286 176.312 119.71C176.15 120.134 176.069 120.605 176.069 121.122C176.069 121.652 176.152 122.121 176.317 122.529C176.487 122.933 176.735 123.252 177.063 123.484C177.395 123.712 177.806 123.827 178.296 123.827ZM183.785 125V117.364H184.918V118.517H184.998C185.137 118.139 185.389 117.833 185.754 117.597C186.118 117.362 186.529 117.244 186.987 117.244C187.073 117.244 187.18 117.246 187.31 117.249C187.439 117.253 187.537 117.258 187.603 117.264V118.457C187.563 118.447 187.472 118.433 187.33 118.413C187.19 118.389 187.043 118.378 186.887 118.378C186.516 118.378 186.184 118.456 185.893 118.612C185.604 118.764 185.376 118.976 185.207 119.248C185.041 119.516 184.958 119.823 184.958 120.168V125H183.785ZM191.241 125.179C190.757 125.179 190.318 125.088 189.923 124.906C189.529 124.72 189.216 124.453 188.984 124.105C188.752 123.754 188.636 123.33 188.636 122.832C188.636 122.395 188.722 122.04 188.894 121.768C189.067 121.493 189.297 121.278 189.585 121.122C189.874 120.966 190.192 120.85 190.54 120.774C190.891 120.695 191.244 120.632 191.599 120.585C192.063 120.526 192.439 120.481 192.727 120.451C193.019 120.418 193.231 120.363 193.364 120.287C193.5 120.211 193.568 120.078 193.568 119.889V119.849C193.568 119.359 193.433 118.978 193.165 118.706C192.9 118.434 192.497 118.298 191.957 118.298C191.397 118.298 190.958 118.421 190.639 118.666C190.321 118.911 190.097 119.173 189.968 119.452L188.855 119.054C189.053 118.59 189.319 118.229 189.65 117.97C189.985 117.708 190.349 117.526 190.744 117.423C191.142 117.317 191.533 117.264 191.917 117.264C192.162 117.264 192.444 117.294 192.762 117.354C193.084 117.41 193.394 117.528 193.692 117.707C193.994 117.886 194.244 118.156 194.443 118.517C194.642 118.878 194.741 119.362 194.741 119.969V125H193.568V123.966H193.508C193.428 124.132 193.296 124.309 193.11 124.498C192.925 124.687 192.678 124.848 192.369 124.98C192.061 125.113 191.685 125.179 191.241 125.179ZM191.42 124.125C191.884 124.125 192.275 124.034 192.593 123.852C192.915 123.669 193.157 123.434 193.319 123.146C193.485 122.857 193.568 122.554 193.568 122.236V121.162C193.518 121.222 193.409 121.276 193.24 121.326C193.074 121.372 192.882 121.414 192.663 121.45C192.447 121.483 192.237 121.513 192.031 121.54C191.829 121.563 191.665 121.583 191.539 121.599C191.234 121.639 190.949 121.704 190.684 121.793C190.422 121.879 190.21 122.01 190.048 122.186C189.889 122.358 189.809 122.594 189.809 122.892C189.809 123.3 189.96 123.608 190.262 123.817C190.566 124.022 190.953 124.125 191.42 124.125ZM196.882 125V117.364H198.016V118.557H198.115C198.275 118.149 198.531 117.833 198.886 117.607C199.241 117.379 199.667 117.264 200.164 117.264C200.667 117.264 201.087 117.379 201.422 117.607C201.76 117.833 202.023 118.149 202.212 118.557H202.292C202.487 118.162 202.78 117.849 203.172 117.617C203.563 117.382 204.032 117.264 204.578 117.264C205.261 117.264 205.82 117.478 206.254 117.906C206.688 118.33 206.905 118.991 206.905 119.889V125H205.732V119.889C205.732 119.326 205.578 118.923 205.27 118.681C204.961 118.439 204.598 118.318 204.181 118.318C203.644 118.318 203.228 118.481 202.933 118.805C202.638 119.127 202.49 119.535 202.49 120.028V125H201.297V119.77C201.297 119.336 201.156 118.986 200.875 118.721C200.593 118.452 200.23 118.318 199.786 118.318C199.481 118.318 199.196 118.399 198.931 118.562C198.669 118.724 198.457 118.95 198.294 119.238C198.135 119.523 198.056 119.853 198.056 120.227V125H196.882ZM220.107 118C219.998 117.665 219.854 117.365 219.675 117.1C219.499 116.832 219.289 116.603 219.043 116.414C218.801 116.225 218.526 116.081 218.218 115.982C217.91 115.882 217.572 115.832 217.204 115.832C216.601 115.832 216.052 115.988 215.558 116.3C215.064 116.611 214.672 117.07 214.38 117.677C214.088 118.283 213.942 119.027 213.942 119.909C213.942 120.791 214.09 121.535 214.385 122.141C214.68 122.748 215.079 123.207 215.583 123.518C216.087 123.83 216.654 123.986 217.283 123.986C217.867 123.986 218.38 123.862 218.825 123.613C219.272 123.361 219.62 123.006 219.869 122.549C220.121 122.088 220.246 121.546 220.246 120.923L220.624 121.003H217.562V119.909H221.44V121.003C221.44 121.841 221.261 122.571 220.903 123.19C220.548 123.81 220.058 124.291 219.431 124.632C218.808 124.97 218.092 125.139 217.283 125.139C216.382 125.139 215.59 124.927 214.907 124.503C214.228 124.079 213.697 123.475 213.316 122.693C212.938 121.911 212.749 120.983 212.749 119.909C212.749 119.104 212.857 118.379 213.072 117.737C213.291 117.09 213.599 116.54 213.997 116.086C214.395 115.632 214.866 115.284 215.409 115.042C215.953 114.8 216.551 114.679 217.204 114.679C217.741 114.679 218.241 114.76 218.705 114.923C219.173 115.082 219.589 115.309 219.953 115.604C220.321 115.895 220.628 116.245 220.873 116.653C221.118 117.057 221.287 117.506 221.38 118H220.107ZM223.392 125V117.364H224.526V118.517H224.605C224.744 118.139 224.996 117.833 225.361 117.597C225.726 117.362 226.137 117.244 226.594 117.244C226.68 117.244 226.788 117.246 226.917 117.249C227.046 117.253 227.144 117.258 227.21 117.264V118.457C227.171 118.447 227.079 118.433 226.937 118.413C226.798 118.389 226.65 118.378 226.494 118.378C226.123 118.378 225.792 118.456 225.5 118.612C225.212 118.764 224.983 118.976 224.814 119.248C224.648 119.516 224.566 119.823 224.566 120.168V125H223.392ZM231.471 125.159C230.782 125.159 230.177 124.995 229.656 124.667C229.139 124.339 228.735 123.88 228.443 123.29C228.155 122.7 228.011 122.01 228.011 121.222C228.011 120.426 228.155 119.732 228.443 119.138C228.735 118.545 229.139 118.085 229.656 117.756C230.177 117.428 230.782 117.264 231.471 117.264C232.16 117.264 232.764 117.428 233.281 117.756C233.801 118.085 234.205 118.545 234.494 119.138C234.785 119.732 234.931 120.426 234.931 121.222C234.931 122.01 234.785 122.7 234.494 123.29C234.205 123.88 233.801 124.339 233.281 124.667C232.764 124.995 232.16 125.159 231.471 125.159ZM231.471 124.105C231.995 124.105 232.426 123.971 232.764 123.702C233.102 123.434 233.352 123.081 233.514 122.643C233.677 122.206 233.758 121.732 233.758 121.222C233.758 120.711 233.677 120.236 233.514 119.795C233.352 119.354 233.102 118.998 232.764 118.726C232.426 118.454 231.995 118.318 231.471 118.318C230.947 118.318 230.517 118.454 230.178 118.726C229.84 118.998 229.59 119.354 229.428 119.795C229.265 120.236 229.184 120.711 229.184 121.222C229.184 121.732 229.265 122.206 229.428 122.643C229.59 123.081 229.84 123.434 230.178 123.702C230.517 123.971 230.947 124.105 231.471 124.105ZM241.535 121.878V117.364H242.708V125H241.535V123.707H241.455C241.276 124.095 240.998 124.425 240.62 124.697C240.242 124.965 239.765 125.099 239.188 125.099C238.711 125.099 238.287 124.995 237.915 124.786C237.544 124.574 237.253 124.256 237.04 123.832C236.828 123.404 236.722 122.866 236.722 122.216V117.364H237.896V122.136C237.896 122.693 238.051 123.137 238.363 123.469C238.678 123.8 239.079 123.966 239.566 123.966C239.858 123.966 240.154 123.891 240.456 123.742C240.761 123.593 241.016 123.364 241.222 123.056C241.43 122.748 241.535 122.355 241.535 121.878ZM244.857 127.864V117.364H245.991V118.577H246.13C246.216 118.444 246.335 118.275 246.488 118.07C246.644 117.861 246.866 117.675 247.154 117.513C247.446 117.347 247.84 117.264 248.337 117.264C248.98 117.264 249.547 117.425 250.037 117.746C250.528 118.068 250.911 118.524 251.186 119.114C251.461 119.704 251.599 120.4 251.599 121.202C251.599 122.01 251.461 122.711 251.186 123.305C250.911 123.895 250.53 124.352 250.042 124.677C249.555 124.998 248.993 125.159 248.357 125.159C247.867 125.159 247.474 125.078 247.179 124.915C246.884 124.75 246.657 124.562 246.498 124.354C246.339 124.142 246.216 123.966 246.13 123.827H246.03V127.864H244.857ZM246.01 121.182C246.01 121.759 246.095 122.267 246.264 122.708C246.433 123.146 246.68 123.489 247.005 123.737C247.33 123.982 247.727 124.105 248.198 124.105C248.689 124.105 249.098 123.976 249.426 123.717C249.757 123.455 250.006 123.104 250.172 122.663C250.341 122.219 250.425 121.725 250.425 121.182C250.425 120.645 250.342 120.161 250.177 119.73C250.014 119.296 249.767 118.953 249.436 118.701C249.108 118.446 248.695 118.318 248.198 118.318C247.721 118.318 247.32 118.439 246.995 118.681C246.67 118.92 246.425 119.254 246.259 119.685C246.093 120.113 246.01 120.612 246.01 121.182Z" fill="#666666"/>
<rect width="256" height="256" transform="translate(72 150)" fill="white"/>
<path d="M328 150H72V406H328V150Z" stroke="#007DBB" stroke-width="2" stroke-dasharray="5 5"/>
<g clip-path="url(#clip1_3515_11313)">
<path d="M95.7241 166H88V173.724H95.7241V166Z" fill="black"/>
<path d="M103.448 166H95.7241V173.724H103.448V166Z" fill="black"/>
<path d="M111.172 166H103.448V173.724H111.172V166Z" fill="black"/>
<path d="M118.897 166H111.172V173.724H118.897V166Z" fill="black"/>
<path d="M126.621 166H118.897V173.724H126.621V166Z" fill="black"/>
<path d="M134.345 166H126.621V173.724H134.345V166Z" fill="black"/>
<path d="M142.069 166H134.345V173.724H142.069V166Z" fill="black"/>
<path d="M157.517 166H149.793V173.724H157.517V166Z" fill="black"/>
<path d="M172.966 166H165.241V173.724H172.966V166Z" fill="black"/>
<path d="M180.69 166H172.966V173.724H180.69V166Z" fill="black"/>
<path d="M188.414 166H180.69V173.724H188.414V166Z" fill="black"/>
<path d="M203.862 166H196.138V173.724H203.862V166Z" fill="black"/>
<path d="M234.759 166H227.034V173.724H234.759V166Z" fill="black"/>
<path d="M250.207 166H242.483V173.724H250.207V166Z" fill="black"/>
<path d="M265.655 166H257.931V173.724H265.655V166Z" fill="black"/>
<path d="M273.379 166H265.655V173.724H273.379V166Z" fill="black"/>
<path d="M281.103 166H273.379V173.724H281.103V166Z" fill="black"/>
<path d="M288.828 166H281.103V173.724H288.828V166Z" fill="black"/>
<path d="M296.552 166H288.828V173.724H296.552V166Z" fill="black"/>
<path d="M304.276 166H296.552V173.724H304.276V166Z" fill="black"/>
<path d="M312 166H304.276V173.724H312V166Z" fill="black"/>
<path d="M95.7241 173.724H88V181.448H95.7241V173.724Z" fill="black"/>
<path d="M142.069 173.724H134.345V181.448H142.069V173.724Z" fill="black"/>
<path d="M172.966 173.724H165.241V181.448H172.966V173.724Z" fill="black"/>
<path d="M203.862 173.724H196.138V181.448H203.862V173.724Z" fill="black"/>
<path d="M219.31 173.724H211.586V181.448H219.31V173.724Z" fill="black"/>
<path d="M265.655 173.724H257.931V181.448H265.655V173.724Z" fill="black"/>
<path d="M312 173.724H304.276V181.448H312V173.724Z" fill="black"/>
<path d="M95.7241 181.448H88V189.172H95.7241V181.448Z" fill="black"/>
<path d="M111.172 181.448H103.448V189.172H111.172V181.448Z" fill="black"/>
<path d="M118.897 181.448H111.172V189.172H118.897V181.448Z" fill="black"/>
<path d="M126.621 181.448H118.897V189.172H126.621V181.448Z" fill="black"/>
<path d="M142.069 181.448H134.345V189.172H142.069V181.448Z" fill="black"/>
<path d="M165.241 181.448H157.517V189.172H165.241V181.448Z" fill="black"/>
<path d="M172.966 181.448H165.241V189.172H172.966V181.448Z" fill="black"/>
<path d="M180.69 181.448H172.966V189.172H180.69V181.448Z" fill="black"/>
<path d="M203.862 181.448H196.138V189.172H203.862V181.448Z" fill="black"/>
<path d="M211.586 181.448H203.862V189.172H211.586V181.448Z" fill="black"/>
<path d="M227.034 181.448H219.31V189.172H227.034V181.448Z" fill="black"/>
<path d="M234.759 181.448H227.034V189.172H234.759V181.448Z" fill="black"/>
<path d="M242.483 181.448H234.759V189.172H242.483V181.448Z" fill="black"/>
<path d="M265.655 181.448H257.931V189.172H265.655V181.448Z" fill="black"/>
<path d="M281.103 181.448H273.379V189.172H281.103V181.448Z" fill="black"/>
<path d="M288.828 181.448H281.103V189.172H288.828V181.448Z" fill="black"/>
<path d="M296.552 181.448H288.828V189.172H296.552V181.448Z" fill="black"/>
<path d="M312 181.448H304.276V189.172H312V181.448Z" fill="black"/>
<path d="M95.7241 189.172H88V196.897H95.7241V189.172Z" fill="black"/>
<path d="M111.172 189.172H103.448V196.897H111.172V189.172Z" fill="black"/>
<path d="M118.897 189.172H111.172V196.897H118.897V189.172Z" fill="black"/>
<path d="M126.621 189.172H118.897V196.897H126.621V189.172Z" fill="black"/>
<path d="M142.069 189.172H134.345V196.897H142.069V189.172Z" fill="black"/>
<path d="M157.517 189.172H149.793V196.897H157.517V189.172Z" fill="black"/>
<path d="M165.241 189.172H157.517V196.897H165.241V189.172Z" fill="black"/>
<path d="M172.966 189.172H165.241V196.897H172.966V189.172Z" fill="black"/>
<path d="M180.69 189.172H172.966V196.897H180.69V189.172Z" fill="black"/>
<path d="M188.414 189.172H180.69V196.897H188.414V189.172Z" fill="black"/>
<path d="M196.138 189.172H188.414V196.897H196.138V189.172Z" fill="black"/>
<path d="M203.862 189.172H196.138V196.897H203.862V189.172Z" fill="black"/>
<path d="M219.31 189.172H211.586V196.897H219.31V189.172Z" fill="black"/>
<path d="M227.034 189.172H219.31V196.897H227.034V189.172Z" fill="black"/>
<path d="M265.655 189.172H257.931V196.897H265.655V189.172Z" fill="black"/>
<path d="M281.103 189.172H273.379V196.897H281.103V189.172Z" fill="black"/>
<path d="M288.828 189.172H281.103V196.897H288.828V189.172Z" fill="black"/>
<path d="M296.552 189.172H288.828V196.897H296.552V189.172Z" fill="black"/>
<path d="M312 189.172H304.276V196.897H312V189.172Z" fill="black"/>
<path d="M95.7241 196.897H88V204.621H95.7241V196.897Z" fill="black"/>
<path d="M111.172 196.897H103.448V204.621H111.172V196.897Z" fill="black"/>
<path d="M118.897 196.897H111.172V204.621H118.897V196.897Z" fill="black"/>
<path d="M126.621 196.897H118.897V204.621H126.621V196.897Z" fill="black"/>
<path d="M142.069 196.897H134.345V204.621H142.069V196.897Z" fill="black"/>
<path d="M165.241 196.897H157.517V204.621H165.241V196.897Z" fill="black"/>
<path d="M172.966 196.897H165.241V204.621H172.966V196.897Z" fill="black"/>
<path d="M180.69 196.897H172.966V204.621H180.69V196.897Z" fill="black"/>
<path d="M188.414 196.897H180.69V204.621H188.414V196.897Z" fill="black"/>
<path d="M203.862 196.897H196.138V204.621H203.862V196.897Z" fill="black"/>
<path d="M211.586 196.897H203.862V204.621H211.586V196.897Z" fill="black"/>
<path d="M219.31 196.897H211.586V204.621H219.31V196.897Z" fill="black"/>
<path d="M242.483 196.897H234.759V204.621H242.483V196.897Z" fill="black"/>
<path d="M250.207 196.897H242.483V204.621H250.207V196.897Z" fill="black"/>
<path d="M265.655 196.897H257.931V204.621H265.655V196.897Z" fill="black"/>
<path d="M281.103 196.897H273.379V204.621H281.103V196.897Z" fill="black"/>
<path d="M288.828 196.897H281.103V204.621H288.828V196.897Z" fill="black"/>
<path d="M296.552 196.897H288.828V204.621H296.552V196.897Z" fill="black"/>
<path d="M312 196.897H304.276V204.621H312V196.897Z" fill="black"/>
<path d="M95.7241 204.621H88V212.345H95.7241V204.621Z" fill="black"/>
<path d="M142.069 204.621H134.345V212.345H142.069V204.621Z" fill="black"/>
<path d="M157.517 204.621H149.793V212.345H157.517V204.621Z" fill="black"/>
<path d="M165.241 204.621H157.517V212.345H165.241V204.621Z" fill="black"/>
<path d="M172.966 204.621H165.241V212.345H172.966V204.621Z" fill="black"/>
<path d="M203.862 204.621H196.138V212.345H203.862V204.621Z" fill="black"/>
<path d="M219.31 204.621H211.586V212.345H219.31V204.621Z" fill="black"/>
<path d="M227.034 204.621H219.31V212.345H227.034V204.621Z" fill="black"/>
<path d="M234.759 204.621H227.034V212.345H234.759V204.621Z" fill="black"/>
<path d="M242.483 204.621H234.759V212.345H242.483V204.621Z" fill="black"/>
<path d="M250.207 204.621H242.483V212.345H250.207V204.621Z" fill="black"/>
<path d="M265.655 204.621H257.931V212.345H265.655V204.621Z" fill="black"/>
<path d="M312 204.621H304.276V212.345H312V204.621Z" fill="black"/>
<path d="M95.7241 212.345H88V220.069H95.7241V212.345Z" fill="black"/>
<path d="M103.448 212.345H95.7241V220.069H103.448V212.345Z" fill="black"/>
<path d="M111.172 212.345H103.448V220.069H111.172V212.345Z" fill="black"/>
<path d="M118.897 212.345H111.172V220.069H118.897V212.345Z" fill="black"/>
<path d="M126.621 212.345H118.897V220.069H126.621V212.345Z" fill="black"/>
<path d="M134.345 212.345H126.621V220.069H134.345V212.345Z" fill="black"/>
<path d="M142.069 212.345H134.345V220.069H142.069V212.345Z" fill="black"/>
<path d="M157.517 212.345H149.793V220.069H157.517V212.345Z" fill="black"/>
<path d="M172.966 212.345H165.241V220.069H172.966V212.345Z" fill="black"/>
<path d="M188.414 212.345H180.69V220.069H188.414V212.345Z" fill="black"/>
<path d="M203.862 212.345H196.138V220.069H203.862V212.345Z" fill="black"/>
<path d="M219.31 212.345H211.586V220.069H219.31V212.345Z" fill="black"/>
<path d="M234.759 212.345H227.034V220.069H234.759V212.345Z" fill="black"/>
<path d="M250.207 212.345H242.483V220.069H250.207V212.345Z" fill="black"/>
<path d="M265.655 212.345H257.931V220.069H265.655V212.345Z" fill="black"/>
<path d="M273.379 212.345H265.655V220.069H273.379V212.345Z" fill="black"/>
<path d="M281.103 212.345H273.379V220.069H281.103V212.345Z" fill="black"/>
<path d="M288.828 212.345H281.103V220.069H288.828V212.345Z" fill="black"/>
<path d="M296.552 212.345H288.828V220.069H296.552V212.345Z" fill="black"/>
<path d="M304.276 212.345H296.552V220.069H304.276V212.345Z" fill="black"/>
<path d="M312 212.345H304.276V220.069H312V212.345Z" fill="black"/>
<path d="M180.69 220.069H172.966V227.793H180.69V220.069Z" fill="black"/>
<path d="M188.414 220.069H180.69V227.793H188.414V220.069Z" fill="black"/>
<path d="M196.138 220.069H188.414V227.793H196.138V220.069Z" fill="black"/>
<path d="M227.034 220.069H219.31V227.793H227.034V220.069Z" fill="black"/>
<path d="M242.483 220.069H234.759V227.793H242.483V220.069Z" fill="black"/>
<path d="M250.207 220.069H242.483V227.793H250.207V220.069Z" fill="black"/>
<path d="M134.345 227.793H126.621V235.517H134.345V227.793Z" fill="black"/>
<path d="M142.069 227.793H134.345V235.517H142.069V227.793Z" fill="black"/>
<path d="M157.517 227.793H149.793V235.517H157.517V227.793Z" fill="black"/>
<path d="M165.241 227.793H157.517V235.517H165.241V227.793Z" fill="black"/>
<path d="M180.69 227.793H172.966V235.517H180.69V227.793Z" fill="black"/>
<path d="M188.414 227.793H180.69V235.517H188.414V227.793Z" fill="black"/>
<path d="M196.138 227.793H188.414V235.517H196.138V227.793Z" fill="black"/>
<path d="M219.31 227.793H211.586V235.517H219.31V227.793Z" fill="black"/>
<path d="M227.034 227.793H219.31V235.517H227.034V227.793Z" fill="black"/>
<path d="M234.759 227.793H227.034V235.517H234.759V227.793Z" fill="black"/>
<path d="M250.207 227.793H242.483V235.517H250.207V227.793Z" fill="black"/>
<path d="M257.931 227.793H250.207V235.517H257.931V227.793Z" fill="black"/>
<path d="M273.379 227.793H265.655V235.517H273.379V227.793Z" fill="black"/>
<path d="M288.828 227.793H281.103V235.517H288.828V227.793Z" fill="black"/>
<path d="M312 227.793H304.276V235.517H312V227.793Z" fill="black"/>
<path d="M95.7241 235.517H88V243.241H95.7241V235.517Z" fill="black"/>
<path d="M118.897 235.517H111.172V243.241H118.897V235.517Z" fill="black"/>
<path d="M134.345 235.517H126.621V243.241H134.345V235.517Z" fill="black"/>
<path d="M149.793 235.517H142.069V243.241H149.793V235.517Z" fill="black"/>
<path d="M157.517 235.517H149.793V243.241H157.517V235.517Z" fill="black"/>
<path d="M172.966 235.517H165.241V243.241H172.966V235.517Z" fill="black"/>
<path d="M188.414 235.517H180.69V243.241H188.414V235.517Z" fill="black"/>
<path d="M203.862 235.517H196.138V243.241H203.862V235.517Z" fill="black"/>
<path d="M211.586 235.517H203.862V243.241H211.586V235.517Z" fill="black"/>
<path d="M242.483 235.517H234.759V243.241H242.483V235.517Z" fill="black"/>
<path d="M250.207 235.517H242.483V243.241H250.207V235.517Z" fill="black"/>
<path d="M296.552 235.517H288.828V243.241H296.552V235.517Z" fill="black"/>
<path d="M304.276 235.517H296.552V243.241H304.276V235.517Z" fill="black"/>
<path d="M103.448 243.241H95.7241V250.966H103.448V243.241Z" fill="black"/>
<path d="M118.897 243.241H111.172V250.966H118.897V243.241Z" fill="black"/>
<path d="M126.621 243.241H118.897V250.966H126.621V243.241Z" fill="black"/>
<path d="M134.345 243.241H126.621V250.966H134.345V243.241Z" fill="black"/>
<path d="M142.069 243.241H134.345V250.966H142.069V243.241Z" fill="black"/>
<path d="M157.517 243.241H149.793V250.966H157.517V243.241Z" fill="black"/>
<path d="M165.241 243.241H157.517V250.966H165.241V243.241Z" fill="black"/>
<path d="M180.69 243.241H172.966V250.966H180.69V243.241Z" fill="black"/>
<path d="M234.759 243.241H227.034V250.966H234.759V243.241Z" fill="black"/>
<path d="M242.483 243.241H234.759V250.966H242.483V243.241Z" fill="black"/>
<path d="M250.207 243.241H242.483V250.966H250.207V243.241Z" fill="black"/>
<path d="M257.931 243.241H250.207V250.966H257.931V243.241Z" fill="black"/>
<path d="M281.103 243.241H273.379V250.966H281.103V243.241Z" fill="black"/>
<path d="M296.552 243.241H288.828V250.966H296.552V243.241Z" fill="black"/>
<path d="M312 243.241H304.276V250.966H312V243.241Z" fill="black"/>
<path d="M95.7241 250.966H88V258.69H95.7241V250.966Z" fill="black"/>
<path d="M111.172 250.966H103.448V258.69H111.172V250.966Z" fill="black"/>
<path d="M126.621 250.966H118.897V258.69H126.621V250.966Z" fill="black"/>
<path d="M134.345 250.966H126.621V258.69H134.345V250.966Z" fill="black"/>
<path d="M165.241 250.966H157.517V258.69H165.241V250.966Z" fill="black"/>
<path d="M172.966 250.966H165.241V258.69H172.966V250.966Z" fill="black"/>
<path d="M180.69 250.966H172.966V258.69H180.69V250.966Z" fill="black"/>
<path d="M188.414 250.966H180.69V258.69H188.414V250.966Z" fill="black"/>
<path d="M219.31 250.966H211.586V258.69H219.31V250.966Z" fill="black"/>
<path d="M234.759 250.966H227.034V258.69H234.759V250.966Z" fill="black"/>
<path d="M250.207 250.966H242.483V258.69H250.207V250.966Z" fill="black"/>
<path d="M257.931 250.966H250.207V258.69H257.931V250.966Z" fill="black"/>
<path d="M296.552 250.966H288.828V258.69H296.552V250.966Z" fill="black"/>
<path d="M312 250.966H304.276V258.69H312V250.966Z" fill="black"/>
<path d="M103.448 258.69H95.7241V266.414H103.448V258.69Z" fill="black"/>
<path d="M111.172 258.69H103.448V266.414H111.172V258.69Z" fill="black"/>
<path d="M142.069 258.69H134.345V266.414H142.069V258.69Z" fill="black"/>
<path d="M188.414 258.69H180.69V266.414H188.414V258.69Z" fill="black"/>
<path d="M265.655 258.69H257.931V266.414H265.655V258.69Z" fill="black"/>
<path d="M273.379 258.69H265.655V266.414H273.379V258.69Z" fill="black"/>
<path d="M288.828 258.69H281.103V266.414H288.828V258.69Z" fill="black"/>
<path d="M296.552 258.69H288.828V266.414H296.552V258.69Z" fill="black"/>
<path d="M304.276 258.69H296.552V266.414H304.276V258.69Z" fill="black"/>
<path d="M312 258.69H304.276V266.414H312V258.69Z" fill="black"/>
<path d="M95.7241 266.414H88V274.138H95.7241V266.414Z" fill="black"/>
<path d="M103.448 266.414H95.7241V274.138H103.448V266.414Z" fill="black"/>
<path d="M111.172 266.414H103.448V274.138H111.172V266.414Z" fill="black"/>
<path d="M118.897 266.414H111.172V274.138H118.897V266.414Z" fill="black"/>
<path d="M126.621 266.414H118.897V274.138H126.621V266.414Z" fill="black"/>
<path d="M134.345 266.414H126.621V274.138H134.345V266.414Z" fill="black"/>
<path d="M211.586 266.414H203.862V274.138H211.586V266.414Z" fill="black"/>
<path d="M219.31 266.414H211.586V274.138H219.31V266.414Z" fill="black"/>
<path d="M234.759 266.414H227.034V274.138H234.759V266.414Z" fill="black"/>
<path d="M242.483 266.414H234.759V274.138H242.483V266.414Z" fill="black"/>
<path d="M257.931 266.414H250.207V274.138H257.931V266.414Z" fill="black"/>
<path d="M265.655 266.414H257.931V274.138H265.655V266.414Z" fill="black"/>
<path d="M273.379 266.414H265.655V274.138H273.379V266.414Z" fill="black"/>
<path d="M304.276 266.414H296.552V274.138H304.276V266.414Z" fill="black"/>
<path d="M103.448 274.138H95.7241V281.862H103.448V274.138Z" fill="black"/>
<path d="M118.897 274.138H111.172V281.862H118.897V274.138Z" fill="black"/>
<path d="M126.621 274.138H118.897V281.862H126.621V274.138Z" fill="black"/>
<path d="M134.345 274.138H126.621V281.862H134.345V274.138Z" fill="black"/>
<path d="M142.069 274.138H134.345V281.862H142.069V274.138Z" fill="black"/>
<path d="M149.793 274.138H142.069V281.862H149.793V274.138Z" fill="black"/>
<path d="M165.241 274.138H157.517V281.862H165.241V274.138Z" fill="black"/>
<path d="M180.69 274.138H172.966V281.862H180.69V274.138Z" fill="black"/>
<path d="M211.586 274.138H203.862V281.862H211.586V274.138Z" fill="black"/>
<path d="M219.31 274.138H211.586V281.862H219.31V274.138Z" fill="black"/>
<path d="M250.207 274.138H242.483V281.862H250.207V274.138Z" fill="black"/>
<path d="M265.655 274.138H257.931V281.862H265.655V274.138Z" fill="black"/>
<path d="M281.103 274.138H273.379V281.862H281.103V274.138Z" fill="black"/>
<path d="M288.828 274.138H281.103V281.862H288.828V274.138Z" fill="black"/>
<path d="M304.276 274.138H296.552V281.862H304.276V274.138Z" fill="black"/>
<path d="M103.448 281.862H95.7241V289.586H103.448V281.862Z" fill="black"/>
<path d="M118.897 281.862H111.172V289.586H118.897V281.862Z" fill="black"/>
<path d="M157.517 281.862H149.793V289.586H157.517V281.862Z" fill="black"/>
<path d="M165.241 281.862H157.517V289.586H165.241V281.862Z" fill="black"/>
<path d="M180.69 281.862H172.966V289.586H180.69V281.862Z" fill="black"/>
<path d="M196.138 281.862H188.414V289.586H196.138V281.862Z" fill="black"/>
<path d="M203.862 281.862H196.138V289.586H203.862V281.862Z" fill="black"/>
<path d="M219.31 281.862H211.586V289.586H219.31V281.862Z" fill="black"/>
<path d="M227.034 281.862H219.31V289.586H227.034V281.862Z" fill="black"/>
<path d="M242.483 281.862H234.759V289.586H242.483V281.862Z" fill="black"/>
<path d="M257.931 281.862H250.207V289.586H257.931V281.862Z" fill="black"/>
<path d="M265.655 281.862H257.931V289.586H265.655V281.862Z" fill="black"/>
<path d="M281.103 281.862H273.379V289.586H281.103V281.862Z" fill="black"/>
<path d="M288.828 281.862H281.103V289.586H288.828V281.862Z" fill="black"/>
<path d="M304.276 281.862H296.552V289.586H304.276V281.862Z" fill="black"/>
<path d="M312 281.862H304.276V289.586H312V281.862Z" fill="black"/>
<path d="M95.7241 289.586H88V297.31H95.7241V289.586Z" fill="black"/>
<path d="M111.172 289.586H103.448V297.31H111.172V289.586Z" fill="black"/>
<path d="M126.621 289.586H118.897V297.31H126.621V289.586Z" fill="black"/>
<path d="M142.069 289.586H134.345V297.31H142.069V289.586Z" fill="black"/>
<path d="M172.966 289.586H165.241V297.31H172.966V289.586Z" fill="black"/>
<path d="M188.414 289.586H180.69V297.31H188.414V289.586Z" fill="black"/>
<path d="M203.862 289.586H196.138V297.31H203.862V289.586Z" fill="black"/>
<path d="M211.586 289.586H203.862V297.31H211.586V289.586Z" fill="black"/>
<path d="M219.31 289.586H211.586V297.31H219.31V289.586Z" fill="black"/>
<path d="M242.483 289.586H234.759V297.31H242.483V289.586Z" fill="black"/>
<path d="M250.207 289.586H242.483V297.31H250.207V289.586Z" fill="black"/>
<path d="M257.931 289.586H250.207V297.31H257.931V289.586Z" fill="black"/>
<path d="M273.379 289.586H265.655V297.31H273.379V289.586Z" fill="black"/>
<path d="M281.103 289.586H273.379V297.31H281.103V289.586Z" fill="black"/>
<path d="M288.828 289.586H281.103V297.31H288.828V289.586Z" fill="black"/>
<path d="M296.552 289.586H288.828V297.31H296.552V289.586Z" fill="black"/>
<path d="M304.276 289.586H296.552V297.31H304.276V289.586Z" fill="black"/>
<path d="M95.7241 297.31H88V305.034H95.7241V297.31Z" fill="black"/>
<path d="M111.172 297.31H103.448V305.034H111.172V297.31Z" fill="black"/>
<path d="M118.897 297.31H111.172V305.034H118.897V297.31Z" fill="black"/>
<path d="M149.793 297.31H142.069V305.034H149.793V297.31Z" fill="black"/>
<path d="M165.241 297.31H157.517V305.034H165.241V297.31Z" fill="black"/>
<path d="M172.966 297.31H165.241V305.034H172.966V297.31Z" fill="black"/>
<path d="M188.414 297.31H180.69V305.034H188.414V297.31Z" fill="black"/>
<path d="M196.138 297.31H188.414V305.034H196.138V297.31Z" fill="black"/>
<path d="M203.862 297.31H196.138V305.034H203.862V297.31Z" fill="black"/>
<path d="M211.586 297.31H203.862V305.034H211.586V297.31Z" fill="black"/>
<path d="M227.034 297.31H219.31V305.034H227.034V297.31Z" fill="black"/>
<path d="M242.483 297.31H234.759V305.034H242.483V297.31Z" fill="black"/>
<path d="M304.276 297.31H296.552V305.034H304.276V297.31Z" fill="black"/>
<path d="M312 297.31H304.276V305.034H312V297.31Z" fill="black"/>
<path d="M95.7241 305.034H88V312.759H95.7241V305.034Z" fill="black"/>
<path d="M111.172 305.034H103.448V312.759H111.172V305.034Z" fill="black"/>
<path d="M118.897 305.034H111.172V312.759H118.897V305.034Z" fill="black"/>
<path d="M134.345 305.034H126.621V312.759H134.345V305.034Z" fill="black"/>
<path d="M142.069 305.034H134.345V312.759H142.069V305.034Z" fill="black"/>
<path d="M172.966 305.034H165.241V312.759H172.966V305.034Z" fill="black"/>
<path d="M180.69 305.034H172.966V312.759H180.69V305.034Z" fill="black"/>
<path d="M188.414 305.034H180.69V312.759H188.414V305.034Z" fill="black"/>
<path d="M196.138 305.034H188.414V312.759H196.138V305.034Z" fill="black"/>
<path d="M203.862 305.034H196.138V312.759H203.862V305.034Z" fill="black"/>
<path d="M211.586 305.034H203.862V312.759H211.586V305.034Z" fill="black"/>
<path d="M227.034 305.034H219.31V312.759H227.034V305.034Z" fill="black"/>
<path d="M234.759 305.034H227.034V312.759H234.759V305.034Z" fill="black"/>
<path d="M242.483 305.034H234.759V312.759H242.483V305.034Z" fill="black"/>
<path d="M273.379 305.034H265.655V312.759H273.379V305.034Z" fill="black"/>
<path d="M134.345 312.759H126.621V320.483H134.345V312.759Z" fill="black"/>
<path d="M149.793 312.759H142.069V320.483H149.793V312.759Z" fill="black"/>
<path d="M165.241 312.759H157.517V320.483H165.241V312.759Z" fill="black"/>
<path d="M172.966 312.759H165.241V320.483H172.966V312.759Z" fill="black"/>
<path d="M188.414 312.759H180.69V320.483H188.414V312.759Z" fill="black"/>
<path d="M211.586 312.759H203.862V320.483H211.586V312.759Z" fill="black"/>
<path d="M242.483 312.759H234.759V320.483H242.483V312.759Z" fill="black"/>
<path d="M273.379 312.759H265.655V320.483H273.379V312.759Z" fill="black"/>
<path d="M296.552 312.759H288.828V320.483H296.552V312.759Z" fill="black"/>
<path d="M103.448 320.483H95.7241V328.207H103.448V320.483Z" fill="black"/>
<path d="M118.897 320.483H111.172V328.207H118.897V320.483Z" fill="black"/>
<path d="M126.621 320.483H118.897V328.207H126.621V320.483Z" fill="black"/>
<path d="M134.345 320.483H126.621V328.207H134.345V320.483Z" fill="black"/>
<path d="M142.069 320.483H134.345V328.207H142.069V320.483Z" fill="black"/>
<path d="M157.517 320.483H149.793V328.207H157.517V320.483Z" fill="black"/>
<path d="M165.241 320.483H157.517V328.207H165.241V320.483Z" fill="black"/>
<path d="M172.966 320.483H165.241V328.207H172.966V320.483Z" fill="black"/>
<path d="M180.69 320.483H172.966V328.207H180.69V320.483Z" fill="black"/>
<path d="M196.138 320.483H188.414V328.207H196.138V320.483Z" fill="black"/>
<path d="M242.483 320.483H234.759V328.207H242.483V320.483Z" fill="black"/>
<path d="M250.207 320.483H242.483V328.207H250.207V320.483Z" fill="black"/>
<path d="M257.931 320.483H250.207V328.207H257.931V320.483Z" fill="black"/>
<path d="M265.655 320.483H257.931V328.207H265.655V320.483Z" fill="black"/>
<path d="M273.379 320.483H265.655V328.207H273.379V320.483Z" fill="black"/>
<path d="M281.103 320.483H273.379V328.207H281.103V320.483Z" fill="black"/>
<path d="M312 320.483H304.276V328.207H312V320.483Z" fill="black"/>
<path d="M157.517 328.207H149.793V335.931H157.517V328.207Z" fill="black"/>
<path d="M165.241 328.207H157.517V335.931H165.241V328.207Z" fill="black"/>
<path d="M172.966 328.207H165.241V335.931H172.966V328.207Z" fill="black"/>
<path d="M196.138 328.207H188.414V335.931H196.138V328.207Z" fill="black"/>
<path d="M219.31 328.207H211.586V335.931H219.31V328.207Z" fill="black"/>
<path d="M227.034 328.207H219.31V335.931H227.034V328.207Z" fill="black"/>
<path d="M242.483 328.207H234.759V335.931H242.483V328.207Z" fill="black"/>
<path d="M250.207 328.207H242.483V335.931H250.207V328.207Z" fill="black"/>
<path d="M281.103 328.207H273.379V335.931H281.103V328.207Z" fill="black"/>
<path d="M288.828 328.207H281.103V335.931H288.828V328.207Z" fill="black"/>
<path d="M296.552 328.207H288.828V335.931H296.552V328.207Z" fill="black"/>
<path d="M304.276 328.207H296.552V335.931H304.276V328.207Z" fill="black"/>
<path d="M312 328.207H304.276V335.931H312V328.207Z" fill="black"/>
<path d="M95.7241 335.931H88V343.655H95.7241V335.931Z" fill="black"/>
<path d="M103.448 335.931H95.7241V343.655H103.448V335.931Z" fill="black"/>
<path d="M111.172 335.931H103.448V343.655H111.172V335.931Z" fill="black"/>
<path d="M118.897 335.931H111.172V343.655H118.897V335.931Z" fill="black"/>
<path d="M126.621 335.931H118.897V343.655H126.621V335.931Z" fill="black"/>
<path d="M134.345 335.931H126.621V343.655H134.345V335.931Z" fill="black"/>
<path d="M142.069 335.931H134.345V343.655H142.069V335.931Z" fill="black"/>
<path d="M165.241 335.931H157.517V343.655H165.241V335.931Z" fill="black"/>
<path d="M172.966 335.931H165.241V343.655H172.966V335.931Z" fill="black"/>
<path d="M180.69 335.931H172.966V343.655H180.69V335.931Z" fill="black"/>
<path d="M188.414 335.931H180.69V343.655H188.414V335.931Z" fill="black"/>
<path d="M211.586 335.931H203.862V343.655H211.586V335.931Z" fill="black"/>
<path d="M227.034 335.931H219.31V343.655H227.034V335.931Z" fill="black"/>
<path d="M250.207 335.931H242.483V343.655H250.207V335.931Z" fill="black"/>
<path d="M265.655 335.931H257.931V343.655H265.655V335.931Z" fill="black"/>
<path d="M281.103 335.931H273.379V343.655H281.103V335.931Z" fill="black"/>
<path d="M288.828 335.931H281.103V343.655H288.828V335.931Z" fill="black"/>
<path d="M95.7241 343.655H88V351.379H95.7241V343.655Z" fill="black"/>
<path d="M142.069 343.655H134.345V351.379H142.069V343.655Z" fill="black"/>
<path d="M157.517 343.655H149.793V351.379H157.517V343.655Z" fill="black"/>
<path d="M165.241 343.655H157.517V351.379H165.241V343.655Z" fill="black"/>
<path d="M172.966 343.655H165.241V351.379H172.966V343.655Z" fill="black"/>
<path d="M180.69 343.655H172.966V351.379H180.69V343.655Z" fill="black"/>
<path d="M227.034 343.655H219.31V351.379H227.034V343.655Z" fill="black"/>
<path d="M250.207 343.655H242.483V351.379H250.207V343.655Z" fill="black"/>
<path d="M281.103 343.655H273.379V351.379H281.103V343.655Z" fill="black"/>
<path d="M288.828 343.655H281.103V351.379H288.828V343.655Z" fill="black"/>
<path d="M296.552 343.655H288.828V351.379H296.552V343.655Z" fill="black"/>
<path d="M304.276 343.655H296.552V351.379H304.276V343.655Z" fill="black"/>
<path d="M312 343.655H304.276V351.379H312V343.655Z" fill="black"/>
<path d="M95.7241 351.379H88V359.103H95.7241V351.379Z" fill="black"/>
<path d="M111.172 351.379H103.448V359.103H111.172V351.379Z" fill="black"/>
<path d="M118.897 351.379H111.172V359.103H118.897V351.379Z" fill="black"/>
<path d="M126.621 351.379H118.897V359.103H126.621V351.379Z" fill="black"/>
<path d="M142.069 351.379H134.345V359.103H142.069V351.379Z" fill="black"/>
<path d="M172.966 351.379H165.241V359.103H172.966V351.379Z" fill="black"/>
<path d="M203.862 351.379H196.138V359.103H203.862V351.379Z" fill="black"/>
<path d="M211.586 351.379H203.862V359.103H211.586V351.379Z" fill="black"/>
<path d="M242.483 351.379H234.759V359.103H242.483V351.379Z" fill="black"/>
<path d="M250.207 351.379H242.483V359.103H250.207V351.379Z" fill="black"/>
<path d="M257.931 351.379H250.207V359.103H257.931V351.379Z" fill="black"/>
<path d="M265.655 351.379H257.931V359.103H265.655V351.379Z" fill="black"/>
<path d="M273.379 351.379H265.655V359.103H273.379V351.379Z" fill="black"/>
<path d="M281.103 351.379H273.379V359.103H281.103V351.379Z" fill="black"/>
<path d="M288.828 351.379H281.103V359.103H288.828V351.379Z" fill="black"/>
<path d="M296.552 351.379H288.828V359.103H296.552V351.379Z" fill="black"/>
<path d="M312 351.379H304.276V359.103H312V351.379Z" fill="black"/>
<path d="M95.7241 359.103H88V366.828H95.7241V359.103Z" fill="black"/>
<path d="M111.172 359.103H103.448V366.828H111.172V359.103Z" fill="black"/>
<path d="M118.897 359.103H111.172V366.828H118.897V359.103Z" fill="black"/>
<path d="M126.621 359.103H118.897V366.828H126.621V359.103Z" fill="black"/>
<path d="M142.069 359.103H134.345V366.828H142.069V359.103Z" fill="black"/>
<path d="M165.241 359.103H157.517V366.828H165.241V359.103Z" fill="black"/>
<path d="M172.966 359.103H165.241V366.828H172.966V359.103Z" fill="black"/>
<path d="M188.414 359.103H180.69V366.828H188.414V359.103Z" fill="black"/>
<path d="M203.862 359.103H196.138V366.828H203.862V359.103Z" fill="black"/>
<path d="M211.586 359.103H203.862V366.828H211.586V359.103Z" fill="black"/>
<path d="M227.034 359.103H219.31V366.828H227.034V359.103Z" fill="black"/>
<path d="M273.379 359.103H265.655V366.828H273.379V359.103Z" fill="black"/>
<path d="M288.828 359.103H281.103V366.828H288.828V359.103Z" fill="black"/>
<path d="M296.552 359.103H288.828V366.828H296.552V359.103Z" fill="black"/>
<path d="M95.7241 366.828H88V374.552H95.7241V366.828Z" fill="black"/>
<path d="M111.172 366.828H103.448V374.552H111.172V366.828Z" fill="black"/>
<path d="M118.897 366.828H111.172V374.552H118.897V366.828Z" fill="black"/>
<path d="M126.621 366.828H118.897V374.552H126.621V366.828Z" fill="black"/>
<path d="M142.069 366.828H134.345V374.552H142.069V366.828Z" fill="black"/>
<path d="M172.966 366.828H165.241V374.552H172.966V366.828Z" fill="black"/>
<path d="M180.69 366.828H172.966V374.552H180.69V366.828Z" fill="black"/>
<path d="M203.862 366.828H196.138V374.552H203.862V366.828Z" fill="black"/>
<path d="M250.207 366.828H242.483V374.552H250.207V366.828Z" fill="black"/>
<path d="M257.931 366.828H250.207V374.552H257.931V366.828Z" fill="black"/>
<path d="M273.379 366.828H265.655V374.552H273.379V366.828Z" fill="black"/>
<path d="M288.828 366.828H281.103V374.552H288.828V366.828Z" fill="black"/>
<path d="M296.552 366.828H288.828V374.552H296.552V366.828Z" fill="black"/>
<path d="M95.7241 374.552H88V382.276H95.7241V374.552Z" fill="black"/>
<path d="M142.069 374.552H134.345V382.276H142.069V374.552Z" fill="black"/>
<path d="M172.966 374.552H165.241V382.276H172.966V374.552Z" fill="black"/>
<path d="M180.69 374.552H172.966V382.276H180.69V374.552Z" fill="black"/>
<path d="M188.414 374.552H180.69V382.276H188.414V374.552Z" fill="black"/>
<path d="M203.862 374.552H196.138V382.276H203.862V374.552Z" fill="black"/>
<path d="M211.586 374.552H203.862V382.276H211.586V374.552Z" fill="black"/>
<path d="M219.31 374.552H211.586V382.276H219.31V374.552Z" fill="black"/>
<path d="M234.759 374.552H227.034V382.276H234.759V374.552Z" fill="black"/>
<path d="M242.483 374.552H234.759V382.276H242.483V374.552Z" fill="black"/>
<path d="M257.931 374.552H250.207V382.276H257.931V374.552Z" fill="black"/>
<path d="M265.655 374.552H257.931V382.276H265.655V374.552Z" fill="black"/>
<path d="M273.379 374.552H265.655V382.276H273.379V374.552Z" fill="black"/>
<path d="M281.103 374.552H273.379V382.276H281.103V374.552Z" fill="black"/>
<path d="M304.276 374.552H296.552V382.276H304.276V374.552Z" fill="black"/>
<path d="M312 374.552H304.276V382.276H312V374.552Z" fill="black"/>
<path d="M95.7241 382.276H88V390H95.7241V382.276Z" fill="black"/>
<path d="M103.448 382.276H95.7241V390H103.448V382.276Z" fill="black"/>
<path d="M111.172 382.276H103.448V390H111.172V382.276Z" fill="black"/>
<path d="M118.897 382.276H111.172V390H118.897V382.276Z" fill="black"/>
<path d="M126.621 382.276H118.897V390H126.621V382.276Z" fill="black"/>
<path d="M134.345 382.276H126.621V390H134.345V382.276Z" fill="black"/>
<path d="M142.069 382.276H134.345V390H142.069V382.276Z" fill="black"/>
<path d="M165.241 382.276H157.517V390H165.241V382.276Z" fill="black"/>
<path d="M188.414 382.276H180.69V390H188.414V382.276Z" fill="black"/>
<path d="M203.862 382.276H196.138V390H203.862V382.276Z" fill="black"/>
<path d="M227.034 382.276H219.31V390H227.034V382.276Z" fill="black"/>
<path d="M234.759 382.276H227.034V390H234.759V382.276Z" fill="black"/>
<path d="M242.483 382.276H234.759V390H242.483V382.276Z" fill="black"/>
<path d="M257.931 382.276H250.207V390H257.931V382.276Z" fill="black"/>
<path d="M273.379 382.276H265.655V390H273.379V382.276Z" fill="black"/>
<path d="M288.828 382.276H281.103V390H288.828V382.276Z" fill="black"/>
<path d="M296.552 382.276H288.828V390H296.552V382.276Z" fill="black"/>
</g>
<path d="M151.532 445.59C152.834 445.324 154.78 444.848 156.614 444.372L156.74 445.338C155.032 445.8 153.212 446.276 151.826 446.626L151.532 445.59ZM151.7 440.998H156.628V441.978H151.7V440.998ZM153.772 438.282H154.794V449.832C154.794 450.42 154.654 450.714 154.29 450.868C153.912 451.036 153.338 451.064 152.372 451.064C152.33 450.784 152.176 450.364 152.05 450.084C152.708 450.112 153.31 450.098 153.492 450.098C153.688 450.098 153.772 450.028 153.772 449.832V438.282ZM156.782 449.076H163.124V450.056H156.782V449.076ZM157.216 444.022H163.166V445.058H157.216V444.022ZM156.88 439.57H163.642V451.078H162.634V440.536H156.88V439.57ZM177.138 444.386H178.146C178.146 444.386 178.132 444.708 178.118 444.862C177.796 448.642 177.488 450.098 176.984 450.616C176.718 450.91 176.438 451.022 176.018 451.036C175.668 451.064 175.024 451.064 174.338 451.036C174.324 450.742 174.212 450.336 174.058 450.056C174.73 450.14 175.346 450.14 175.612 450.14C175.85 450.14 176.004 450.112 176.13 449.972C176.536 449.594 176.858 448.166 177.138 444.568V444.386ZM171.202 439.066H176.396V440.032H171.202V439.066ZM171.874 440.914L172.854 440.97C172.742 442.37 172.546 444.204 172.392 445.296H171.398C171.58 444.162 171.776 442.286 171.874 440.914ZM171.692 444.386H177.446V445.296H171.692V444.386ZM170.726 447.144H176.088V448.082H170.726V447.144ZM175.962 439.066H176.074L176.242 439.024L176.97 439.108C176.844 440.76 176.578 443.224 176.326 445.058L175.332 444.988C175.584 443.154 175.864 440.508 175.962 439.192V439.066ZM165.7 438.996H170.516V439.962H165.7V438.996ZM167.072 443.308H170.11V449.356H167.072V448.418H169.186V444.246H167.072V443.308ZM167.506 439.458L168.486 439.668C167.982 442.314 167.17 444.862 165.882 446.542C165.812 446.29 165.574 445.688 165.392 445.408C166.47 443.98 167.128 441.796 167.506 439.458ZM166.61 443.308H167.534V450.49H166.61V443.308ZM187.47 448.866H191.278V449.888H187.47V448.866ZM179.742 440.9H185.118V441.922H179.742V440.9ZM186.994 439.99H191.782V450.812H190.718V440.998H188.016V450.91H186.994V439.99ZM184.838 440.9H185.86C185.86 440.9 185.86 441.292 185.86 441.432C185.748 447.662 185.65 449.706 185.202 450.322C184.95 450.686 184.698 450.812 184.278 450.854C183.886 450.91 183.242 450.91 182.612 450.868C182.598 450.56 182.486 450.098 182.304 449.804C182.962 449.86 183.564 449.86 183.83 449.86C184.04 449.874 184.166 449.832 184.292 449.65C184.614 449.216 184.74 447.144 184.838 441.152V440.9ZM181.73 438.436H182.752C182.738 443.602 182.668 448.46 180.204 451.134C180.022 450.896 179.658 450.574 179.392 450.42C181.73 447.956 181.716 443.336 181.73 438.436ZM196.178 439.094H200.14V440.158H196.178V439.094ZM199.608 439.094H200.686C200.686 441.6 200.994 446.92 206.524 450.196C206.286 450.378 205.866 450.826 205.67 451.078C200.07 447.69 199.608 441.726 199.608 439.094ZM199.216 441.838L200.406 442.062C199.398 446.332 197.55 449.286 194.456 451.106C194.26 450.882 193.784 450.448 193.504 450.252C196.612 448.628 198.362 445.8 199.216 441.838ZM209.296 443.308H218.564V444.288H209.296V443.308ZM213.314 438.268H214.42V448.838C214.42 449.664 214.588 449.818 215.414 449.818C215.834 449.818 217.892 449.818 218.396 449.818C219.166 449.818 219.306 449.356 219.418 447.55C219.684 447.746 220.132 447.928 220.468 448.012C220.286 450.14 219.936 450.882 218.452 450.882C218.074 450.882 215.708 450.882 215.344 450.882C213.776 450.882 213.314 450.462 213.314 448.824V438.268ZM209.38 440.284H219.096V447.34H209.38V446.318H218.032V441.306H209.38V440.284ZM208.75 440.284H209.842V448.194H208.75V440.284ZM227.65 443.518H233.194V444.484H227.65V443.518ZM229.218 444.036C230.156 446.724 232.06 449.16 234.482 450.196C234.23 450.406 233.908 450.812 233.74 451.092C231.248 449.86 229.344 447.284 228.308 444.288L229.218 444.036ZM232.914 443.518H233.11L233.306 443.476L233.978 443.7C233.306 446.892 231.528 449.678 228.756 451.148C228.588 450.91 228.28 450.588 228.042 450.378C230.66 449.062 232.354 446.458 232.914 443.742V443.518ZM232.48 438.716H233.544C233.544 438.716 233.53 439.01 233.516 439.164C233.446 441.138 233.32 441.95 233.012 442.258C232.76 442.524 232.438 442.594 231.976 442.636C231.542 442.65 230.646 442.65 229.708 442.594C229.694 442.328 229.582 441.964 229.428 441.712C230.338 441.796 231.262 441.796 231.542 441.796C231.836 441.796 231.99 441.782 232.116 441.684C232.312 441.488 232.396 440.746 232.48 438.87V438.716ZM221.448 445.66C222.68 445.352 224.514 444.834 226.278 444.33L226.39 445.338C224.78 445.842 223.044 446.36 221.728 446.724L221.448 445.66ZM221.644 441.068H226.292V442.104H221.644V441.068ZM223.646 438.254H224.71V449.818C224.71 450.476 224.542 450.77 224.136 450.924C223.716 451.106 223.058 451.12 221.952 451.12C221.91 450.854 221.756 450.406 221.602 450.126C222.386 450.154 223.114 450.14 223.324 450.126C223.562 450.126 223.646 450.056 223.646 449.818V438.254ZM226.922 438.716H232.802V439.71H227.958V451.092H226.922V438.716ZM242.42 440.97H248.174V441.936H242.42V440.97ZM242.616 443.84H247.936V444.82H242.616V443.84ZM242.098 446.85H248.496V447.844H242.098V446.85ZM242.602 438.632L243.428 438.352C243.904 439.052 244.324 439.99 244.464 440.62L243.554 440.97C243.428 440.326 243.036 439.36 242.602 438.632ZM246.9 438.226L247.922 438.478C247.53 439.318 247.11 440.284 246.746 440.914L245.878 440.676C246.228 440.018 246.69 438.968 246.9 438.226ZM244.73 441.432H245.752V451.134H244.73V441.432ZM235.602 441.264H242.266V442.174H235.602V441.264ZM236.33 438.954H241.44V444.47H236.246V443.56H240.46V439.864H236.33V438.954ZM237.072 445.926H238.038V451.134H237.072V445.926ZM237.464 445.926H241.636V450.378H237.464V449.44H240.6V446.85H237.464V445.926ZM238.066 439.276L239.074 439.332C238.78 443.434 238.094 446.584 236.092 448.628C235.966 448.418 235.602 447.998 235.378 447.802C237.254 446.038 237.828 443.014 238.066 439.276Z" fill="#666666"/>
<path d="M100.636 463.455C100.585 463.023 100.378 462.688 100.014 462.449C99.6504 462.21 99.2044 462.091 98.676 462.091C98.2896 462.091 97.9515 462.153 97.6618 462.278C97.3748 462.403 97.1504 462.575 96.9885 462.794C96.8294 463.013 96.7498 463.261 96.7498 463.54C96.7498 463.773 96.8052 463.973 96.916 464.141C97.0297 464.305 97.1745 464.443 97.3507 464.554C97.5268 464.662 97.7115 464.751 97.9047 464.822C98.0978 464.891 98.2754 464.946 98.4373 464.989L99.3237 465.227C99.551 465.287 99.8038 465.369 100.082 465.474C100.363 465.58 100.632 465.723 100.888 465.905C101.146 466.084 101.359 466.314 101.527 466.595C101.694 466.876 101.778 467.222 101.778 467.631C101.778 468.102 101.655 468.528 101.407 468.909C101.163 469.29 100.805 469.592 100.334 469.817C99.8649 470.041 99.2953 470.153 98.6248 470.153C97.9998 470.153 97.4586 470.053 97.0012 469.851C96.5467 469.649 96.1887 469.368 95.9274 469.007C95.6689 468.646 95.5225 468.227 95.4885 467.75H96.5794C96.6078 468.08 96.7186 468.352 96.9118 468.568C97.1078 468.781 97.3549 468.94 97.6532 469.045C97.9544 469.148 98.2782 469.199 98.6248 469.199C99.0282 469.199 99.3904 469.134 99.7115 469.003C100.032 468.869 100.287 468.685 100.474 468.449C100.662 468.21 100.756 467.932 100.756 467.614C100.756 467.324 100.675 467.088 100.513 466.906C100.351 466.724 100.138 466.577 99.8734 466.463C99.6092 466.349 99.3237 466.25 99.0169 466.165L97.943 465.858C97.2612 465.662 96.7214 465.382 96.3237 465.018C95.926 464.655 95.7271 464.179 95.7271 463.591C95.7271 463.102 95.8592 462.676 96.1234 462.312C96.3904 461.946 96.7484 461.662 97.1973 461.46C97.649 461.256 98.1532 461.153 98.71 461.153C99.2725 461.153 99.7725 461.254 100.21 461.456C100.648 461.655 100.994 461.928 101.25 462.274C101.508 462.621 101.645 463.014 101.659 463.455H100.636ZM106.039 470.136C105.425 470.136 104.896 469.991 104.453 469.702C104.01 469.412 103.669 469.013 103.431 468.504C103.192 467.996 103.073 467.415 103.073 466.761C103.073 466.097 103.195 465.51 103.439 465.001C103.686 464.49 104.03 464.091 104.47 463.804C104.914 463.514 105.431 463.369 106.021 463.369C106.482 463.369 106.896 463.455 107.266 463.625C107.635 463.795 107.938 464.034 108.173 464.341C108.409 464.648 108.556 465.006 108.612 465.415H107.607C107.53 465.116 107.36 464.852 107.095 464.622C106.834 464.389 106.482 464.273 106.039 464.273C105.646 464.273 105.303 464.375 105.007 464.58C104.715 464.781 104.486 465.067 104.321 465.436C104.159 465.803 104.078 466.233 104.078 466.727C104.078 467.233 104.158 467.673 104.317 468.048C104.479 468.423 104.706 468.714 104.999 468.922C105.294 469.129 105.641 469.233 106.039 469.233C106.3 469.233 106.537 469.188 106.75 469.097C106.963 469.006 107.144 468.875 107.291 468.705C107.439 468.534 107.544 468.33 107.607 468.091H108.612C108.556 468.477 108.415 468.825 108.191 469.135C107.969 469.442 107.675 469.686 107.308 469.868C106.945 470.047 106.521 470.136 106.039 470.136ZM112.009 470.153C111.594 470.153 111.218 470.075 110.879 469.919C110.541 469.76 110.273 469.531 110.074 469.233C109.875 468.932 109.776 468.568 109.776 468.142C109.776 467.767 109.85 467.463 109.997 467.23C110.145 466.994 110.343 466.81 110.59 466.676C110.837 466.543 111.11 466.443 111.408 466.378C111.709 466.31 112.012 466.256 112.316 466.216C112.713 466.165 113.036 466.126 113.283 466.101C113.533 466.072 113.715 466.026 113.828 465.96C113.945 465.895 114.003 465.781 114.003 465.619V465.585C114.003 465.165 113.888 464.838 113.658 464.605C113.431 464.372 113.085 464.256 112.622 464.256C112.142 464.256 111.766 464.361 111.493 464.571C111.22 464.781 111.029 465.006 110.918 465.244L109.963 464.903C110.134 464.506 110.361 464.196 110.645 463.974C110.932 463.75 111.244 463.594 111.583 463.506C111.923 463.415 112.259 463.369 112.588 463.369C112.798 463.369 113.04 463.395 113.313 463.446C113.588 463.494 113.854 463.595 114.11 463.749C114.368 463.902 114.583 464.134 114.753 464.443C114.923 464.753 115.009 465.168 115.009 465.688V470H114.003V469.114H113.952C113.884 469.256 113.77 469.408 113.611 469.57C113.452 469.732 113.24 469.869 112.976 469.983C112.712 470.097 112.389 470.153 112.009 470.153ZM112.162 469.25C112.56 469.25 112.895 469.172 113.168 469.016C113.443 468.859 113.651 468.658 113.79 468.411C113.932 468.163 114.003 467.903 114.003 467.631V466.71C113.96 466.761 113.867 466.808 113.722 466.851C113.58 466.891 113.415 466.926 113.227 466.957C113.043 466.986 112.862 467.011 112.686 467.034C112.513 467.054 112.372 467.071 112.264 467.085C112.003 467.119 111.759 467.175 111.531 467.251C111.307 467.325 111.125 467.437 110.986 467.588C110.85 467.736 110.781 467.937 110.781 468.193C110.781 468.543 110.911 468.807 111.169 468.986C111.431 469.162 111.762 469.25 112.162 469.25ZM117.85 466.062V470H116.844V463.455H117.816V464.477H117.901C118.055 464.145 118.287 463.878 118.6 463.676C118.912 463.472 119.316 463.369 119.81 463.369C120.253 463.369 120.641 463.46 120.974 463.642C121.306 463.821 121.564 464.094 121.749 464.46C121.934 464.824 122.026 465.284 122.026 465.841V470H121.02V465.909C121.02 465.395 120.887 464.994 120.62 464.707C120.353 464.418 119.986 464.273 119.52 464.273C119.199 464.273 118.912 464.342 118.66 464.482C118.41 464.621 118.212 464.824 118.067 465.091C117.922 465.358 117.85 465.682 117.85 466.062ZM130.546 467.273H131.705L132.676 468.551L132.932 468.892L134.381 470.818H133.222L132.267 469.54L132.029 469.216L130.546 467.273ZM134.739 465.636C134.739 466.557 134.573 467.352 134.24 468.023C133.908 468.693 133.452 469.21 132.872 469.574C132.293 469.938 131.631 470.119 130.887 470.119C130.142 470.119 129.48 469.938 128.901 469.574C128.321 469.21 127.865 468.693 127.533 468.023C127.2 467.352 127.034 466.557 127.034 465.636C127.034 464.716 127.2 463.92 127.533 463.25C127.865 462.58 128.321 462.062 128.901 461.699C129.48 461.335 130.142 461.153 130.887 461.153C131.631 461.153 132.293 461.335 132.872 461.699C133.452 462.062 133.908 462.58 134.24 463.25C134.573 463.92 134.739 464.716 134.739 465.636ZM133.716 465.636C133.716 464.881 133.59 464.243 133.337 463.723C133.087 463.203 132.747 462.81 132.318 462.543C131.892 462.276 131.415 462.142 130.887 462.142C130.358 462.142 129.879 462.276 129.45 462.543C129.024 462.81 128.685 463.203 128.432 463.723C128.182 464.243 128.057 464.881 128.057 465.636C128.057 466.392 128.182 467.03 128.432 467.55C128.685 468.07 129.024 468.463 129.45 468.73C129.879 468.997 130.358 469.131 130.887 469.131C131.415 469.131 131.892 468.997 132.318 468.73C132.747 468.463 133.087 468.07 133.337 467.55C133.59 467.03 133.716 466.392 133.716 465.636ZM136.516 470V461.273H139.465C140.146 461.273 140.706 461.389 141.144 461.622C141.581 461.852 141.905 462.169 142.115 462.572C142.325 462.976 142.431 463.435 142.431 463.949C142.431 464.463 142.325 464.919 142.115 465.317C141.905 465.714 141.583 466.027 141.148 466.254C140.713 466.479 140.158 466.591 139.482 466.591H137.095V465.636H139.448C139.914 465.636 140.289 465.568 140.573 465.432C140.86 465.295 141.067 465.102 141.195 464.852C141.325 464.599 141.391 464.298 141.391 463.949C141.391 463.599 141.325 463.294 141.195 463.033C141.064 462.771 140.855 462.57 140.568 462.428C140.281 462.283 139.902 462.21 139.431 462.21H137.573V470H136.516ZM140.624 466.08L142.771 470H141.544L139.431 466.08H140.624ZM150.089 470.136C149.476 470.136 148.947 469.991 148.504 469.702C148.061 469.412 147.72 469.013 147.481 468.504C147.243 467.996 147.123 467.415 147.123 466.761C147.123 466.097 147.246 465.51 147.49 465.001C147.737 464.49 148.081 464.091 148.521 463.804C148.964 463.514 149.481 463.369 150.072 463.369C150.532 463.369 150.947 463.455 151.317 463.625C151.686 463.795 151.988 464.034 152.224 464.341C152.46 464.648 152.606 465.006 152.663 465.415H151.657C151.581 465.116 151.41 464.852 151.146 464.622C150.885 464.389 150.532 464.273 150.089 464.273C149.697 464.273 149.354 464.375 149.058 464.58C148.765 464.781 148.537 465.067 148.372 465.436C148.21 465.803 148.129 466.233 148.129 466.727C148.129 467.233 148.209 467.673 148.368 468.048C148.53 468.423 148.757 468.714 149.05 468.922C149.345 469.129 149.692 469.233 150.089 469.233C150.351 469.233 150.588 469.188 150.801 469.097C151.014 469.006 151.194 468.875 151.342 468.705C151.49 468.534 151.595 468.33 151.657 468.091H152.663C152.606 468.477 152.466 468.825 152.241 469.135C152.02 469.442 151.726 469.686 151.359 469.868C150.996 470.047 150.572 470.136 150.089 470.136ZM156.792 470.136C156.202 470.136 155.683 469.996 155.237 469.714C154.794 469.433 154.447 469.04 154.197 468.534C153.95 468.028 153.827 467.437 153.827 466.761C153.827 466.08 153.95 465.484 154.197 464.976C154.447 464.467 154.794 464.072 155.237 463.791C155.683 463.51 156.202 463.369 156.792 463.369C157.383 463.369 157.9 463.51 158.344 463.791C158.79 464.072 159.136 464.467 159.383 464.976C159.633 465.484 159.758 466.08 159.758 466.761C159.758 467.437 159.633 468.028 159.383 468.534C159.136 469.04 158.79 469.433 158.344 469.714C157.9 469.996 157.383 470.136 156.792 470.136ZM156.792 469.233C157.241 469.233 157.611 469.118 157.9 468.888C158.19 468.658 158.405 468.355 158.544 467.98C158.683 467.605 158.753 467.199 158.753 466.761C158.753 466.324 158.683 465.916 158.544 465.538C158.405 465.161 158.19 464.855 157.9 464.622C157.611 464.389 157.241 464.273 156.792 464.273C156.344 464.273 155.974 464.389 155.684 464.622C155.395 464.855 155.18 465.161 155.041 465.538C154.902 465.916 154.832 466.324 154.832 466.761C154.832 467.199 154.902 467.605 155.041 467.98C155.18 468.355 155.395 468.658 155.684 468.888C155.974 469.118 156.344 469.233 156.792 469.233ZM163.765 470.136C163.22 470.136 162.738 469.999 162.32 469.723C161.903 469.445 161.576 469.053 161.34 468.547C161.105 468.038 160.987 467.438 160.987 466.744C160.987 466.057 161.105 465.46 161.34 464.955C161.576 464.449 161.904 464.058 162.325 463.783C162.745 463.507 163.231 463.369 163.782 463.369C164.208 463.369 164.545 463.44 164.792 463.582C165.042 463.722 165.232 463.881 165.363 464.06C165.497 464.236 165.6 464.381 165.674 464.494H165.759V461.273H166.765V470H165.794V468.994H165.674C165.6 469.114 165.495 469.264 165.359 469.446C165.222 469.625 165.028 469.786 164.775 469.928C164.522 470.067 164.186 470.136 163.765 470.136ZM163.901 469.233C164.305 469.233 164.646 469.128 164.924 468.918C165.203 468.705 165.414 468.411 165.559 468.036C165.704 467.658 165.776 467.222 165.776 466.727C165.776 466.239 165.705 465.811 165.563 465.445C165.421 465.075 165.211 464.788 164.933 464.584C164.654 464.376 164.311 464.273 163.901 464.273C163.475 464.273 163.12 464.382 162.836 464.601C162.555 464.817 162.343 465.111 162.201 465.483C162.062 465.852 161.992 466.267 161.992 466.727C161.992 467.193 162.063 467.616 162.205 467.997C162.35 468.375 162.563 468.676 162.845 468.901C163.129 469.122 163.481 469.233 163.901 469.233ZM171.491 470.136C170.86 470.136 170.316 469.997 169.859 469.719C169.404 469.438 169.053 469.045 168.806 468.543C168.562 468.037 168.44 467.449 168.44 466.778C168.44 466.108 168.562 465.517 168.806 465.006C169.053 464.491 169.397 464.091 169.838 463.804C170.281 463.514 170.798 463.369 171.389 463.369C171.73 463.369 172.066 463.426 172.399 463.54C172.731 463.653 173.034 463.838 173.306 464.094C173.579 464.347 173.796 464.682 173.958 465.099C174.12 465.517 174.201 466.031 174.201 466.642V467.068H169.156V466.199H173.178C173.178 465.83 173.105 465.5 172.957 465.21C172.812 464.92 172.605 464.692 172.335 464.524C172.068 464.357 171.752 464.273 171.389 464.273C170.988 464.273 170.642 464.372 170.349 464.571C170.059 464.767 169.836 465.023 169.68 465.338C169.524 465.653 169.445 465.991 169.445 466.352V466.932C169.445 467.426 169.531 467.845 169.701 468.189C169.874 468.53 170.115 468.79 170.421 468.969C170.728 469.145 171.085 469.233 171.491 469.233C171.755 469.233 171.994 469.196 172.207 469.122C172.423 469.045 172.609 468.932 172.765 468.781C172.921 468.628 173.042 468.437 173.127 468.21L174.099 468.483C173.997 468.812 173.825 469.102 173.583 469.352C173.342 469.599 173.044 469.793 172.688 469.932C172.333 470.068 171.934 470.136 171.491 470.136ZM181.953 463.455V464.307H178.561V463.455H181.953ZM179.549 461.886H180.555V468.125C180.555 468.409 180.596 468.622 180.678 468.764C180.764 468.903 180.872 468.997 181.002 469.045C181.136 469.091 181.276 469.114 181.424 469.114C181.535 469.114 181.626 469.108 181.697 469.097C181.768 469.082 181.825 469.071 181.867 469.062L182.072 469.966C182.004 469.991 181.909 470.017 181.786 470.043C181.664 470.071 181.509 470.085 181.322 470.085C181.038 470.085 180.759 470.024 180.487 469.902C180.217 469.78 179.992 469.594 179.813 469.344C179.637 469.094 179.549 468.778 179.549 468.398V461.886ZM186.054 470.136C185.463 470.136 184.945 469.996 184.499 469.714C184.056 469.433 183.709 469.04 183.459 468.534C183.212 468.028 183.088 467.437 183.088 466.761C183.088 466.08 183.212 465.484 183.459 464.976C183.709 464.467 184.056 464.072 184.499 463.791C184.945 463.51 185.463 463.369 186.054 463.369C186.645 463.369 187.162 463.51 187.605 463.791C188.051 464.072 188.398 464.467 188.645 464.976C188.895 465.484 189.02 466.08 189.02 466.761C189.02 467.437 188.895 468.028 188.645 468.534C188.398 469.04 188.051 469.433 187.605 469.714C187.162 469.996 186.645 470.136 186.054 470.136ZM186.054 469.233C186.503 469.233 186.872 469.118 187.162 468.888C187.452 468.658 187.666 468.355 187.806 467.98C187.945 467.605 188.014 467.199 188.014 466.761C188.014 466.324 187.945 465.916 187.806 465.538C187.666 465.161 187.452 464.855 187.162 464.622C186.872 464.389 186.503 464.273 186.054 464.273C185.605 464.273 185.236 464.389 184.946 464.622C184.656 464.855 184.442 465.161 184.303 465.538C184.164 465.916 184.094 466.324 184.094 466.761C184.094 467.199 184.164 467.605 184.303 467.98C184.442 468.355 184.656 468.658 184.946 468.888C185.236 469.118 185.605 469.233 186.054 469.233ZM193.93 463.455H194.936V470.477C194.936 470.881 194.866 471.23 194.727 471.526C194.591 471.821 194.383 472.05 194.105 472.212C193.829 472.374 193.481 472.455 193.061 472.455C193.027 472.455 192.993 472.455 192.959 472.455C192.925 472.455 192.89 472.455 192.856 472.455V471.517C192.89 471.517 192.922 471.517 192.95 471.517C192.979 471.517 193.01 471.517 193.044 471.517C193.351 471.517 193.575 471.426 193.717 471.244C193.859 471.065 193.93 470.81 193.93 470.477V463.455ZM194.425 462.364C194.229 462.364 194.059 462.297 193.917 462.163C193.778 462.03 193.709 461.869 193.709 461.682C193.709 461.494 193.778 461.334 193.917 461.2C194.059 461.067 194.229 461 194.425 461C194.621 461 194.788 461.067 194.927 461.2C195.069 461.334 195.14 461.494 195.14 461.682C195.14 461.869 195.069 462.03 194.927 462.163C194.788 462.297 194.621 462.364 194.425 462.364ZM199.437 470.136C198.846 470.136 198.328 469.996 197.882 469.714C197.438 469.433 197.092 469.04 196.842 468.534C196.595 468.028 196.471 467.437 196.471 466.761C196.471 466.08 196.595 465.484 196.842 464.976C197.092 464.467 197.438 464.072 197.882 463.791C198.328 463.51 198.846 463.369 199.437 463.369C200.028 463.369 200.545 463.51 200.988 463.791C201.434 464.072 201.781 464.467 202.028 464.976C202.278 465.484 202.403 466.08 202.403 466.761C202.403 467.437 202.278 468.028 202.028 468.534C201.781 469.04 201.434 469.433 200.988 469.714C200.545 469.996 200.028 470.136 199.437 470.136ZM199.437 469.233C199.886 469.233 200.255 469.118 200.545 468.888C200.835 468.658 201.049 468.355 201.188 467.98C201.328 467.605 201.397 467.199 201.397 466.761C201.397 466.324 201.328 465.916 201.188 465.538C201.049 465.161 200.835 464.855 200.545 464.622C200.255 464.389 199.886 464.273 199.437 464.273C198.988 464.273 198.619 464.389 198.329 464.622C198.039 464.855 197.825 465.161 197.686 465.538C197.546 465.916 197.477 466.324 197.477 466.761C197.477 467.199 197.546 467.605 197.686 467.98C197.825 468.355 198.039 468.658 198.329 468.888C198.619 469.118 198.988 469.233 199.437 469.233ZM203.938 470V463.455H204.944V470H203.938ZM204.449 462.364C204.253 462.364 204.084 462.297 203.942 462.163C203.803 462.03 203.733 461.869 203.733 461.682C203.733 461.494 203.803 461.334 203.942 461.2C204.084 461.067 204.253 461 204.449 461C204.645 461 204.813 461.067 204.952 461.2C205.094 461.334 205.165 461.494 205.165 461.682C205.165 461.869 205.094 462.03 204.952 462.163C204.813 462.297 204.645 462.364 204.449 462.364ZM207.791 466.062V470H206.786V463.455H207.757V464.477H207.843C207.996 464.145 208.229 463.878 208.541 463.676C208.854 463.472 209.257 463.369 209.752 463.369C210.195 463.369 210.583 463.46 210.915 463.642C211.247 463.821 211.506 464.094 211.691 464.46C211.875 464.824 211.968 465.284 211.968 465.841V470H210.962V465.909C210.962 465.395 210.828 464.994 210.561 464.707C210.294 464.418 209.928 464.273 209.462 464.273C209.141 464.273 208.854 464.342 208.601 464.482C208.351 464.621 208.154 464.824 208.009 465.091C207.864 465.358 207.791 465.682 207.791 466.062ZM216.839 462.21V461.273H223.385V462.21H220.64V470H219.584V462.21H216.839ZM226.675 470.136C226.044 470.136 225.5 469.997 225.042 469.719C224.588 469.438 224.237 469.045 223.99 468.543C223.746 468.037 223.623 467.449 223.623 466.778C223.623 466.108 223.746 465.517 223.99 465.006C224.237 464.491 224.581 464.091 225.021 463.804C225.464 463.514 225.981 463.369 226.572 463.369C226.913 463.369 227.25 463.426 227.582 463.54C227.915 463.653 228.217 463.838 228.49 464.094C228.763 464.347 228.98 464.682 229.142 465.099C229.304 465.517 229.385 466.031 229.385 466.642V467.068H224.339V466.199H228.362C228.362 465.83 228.288 465.5 228.14 465.21C227.996 464.92 227.788 464.692 227.518 464.524C227.251 464.357 226.936 464.273 226.572 464.273C226.172 464.273 225.825 464.372 225.532 464.571C225.243 464.767 225.02 465.023 224.863 465.338C224.707 465.653 224.629 465.991 224.629 466.352V466.932C224.629 467.426 224.714 467.845 224.885 468.189C225.058 468.53 225.298 468.79 225.605 468.969C225.912 469.145 226.268 469.233 226.675 469.233C226.939 469.233 227.177 469.196 227.39 469.122C227.606 469.045 227.792 468.932 227.949 468.781C228.105 468.628 228.226 468.437 228.311 468.21L229.282 468.483C229.18 468.812 229.008 469.102 228.767 469.352C228.525 469.599 228.227 469.793 227.872 469.932C227.517 470.068 227.118 470.136 226.675 470.136ZM231.92 461.273V470H230.915V461.273H231.92ZM236.507 470.136C235.876 470.136 235.332 469.997 234.874 469.719C234.42 469.438 234.069 469.045 233.822 468.543C233.578 468.037 233.455 467.449 233.455 466.778C233.455 466.108 233.578 465.517 233.822 465.006C234.069 464.491 234.413 464.091 234.853 463.804C235.296 463.514 235.813 463.369 236.404 463.369C236.745 463.369 237.082 463.426 237.414 463.54C237.747 463.653 238.049 463.838 238.322 464.094C238.595 464.347 238.812 464.682 238.974 465.099C239.136 465.517 239.217 466.031 239.217 466.642V467.068H234.171V466.199H238.194C238.194 465.83 238.12 465.5 237.972 465.21C237.828 464.92 237.62 464.692 237.35 464.524C237.083 464.357 236.768 464.273 236.404 464.273C236.004 464.273 235.657 464.372 235.365 464.571C235.075 464.767 234.852 465.023 234.695 465.338C234.539 465.653 234.461 465.991 234.461 466.352V466.932C234.461 467.426 234.546 467.845 234.717 468.189C234.89 468.53 235.13 468.79 235.437 468.969C235.744 469.145 236.1 469.233 236.507 469.233C236.771 469.233 237.009 469.196 237.222 469.122C237.438 469.045 237.624 468.932 237.781 468.781C237.937 468.628 238.058 468.437 238.143 468.21L239.115 468.483C239.012 468.812 238.84 469.102 238.599 469.352C238.357 469.599 238.059 469.793 237.704 469.932C237.349 470.068 236.95 470.136 236.507 470.136ZM243.389 472.591C242.903 472.591 242.485 472.528 242.136 472.403C241.786 472.281 241.495 472.119 241.262 471.918C241.032 471.719 240.849 471.506 240.713 471.278L241.514 470.716C241.605 470.835 241.72 470.972 241.859 471.125C241.998 471.281 242.188 471.416 242.43 471.53C242.674 471.646 242.994 471.705 243.389 471.705C243.917 471.705 244.353 471.577 244.697 471.321C245.041 471.065 245.213 470.665 245.213 470.119V468.79H245.127C245.053 468.909 244.948 469.057 244.812 469.233C244.678 469.406 244.485 469.561 244.232 469.697C243.982 469.831 243.644 469.898 243.218 469.898C242.69 469.898 242.215 469.773 241.795 469.523C241.377 469.273 241.046 468.909 240.802 468.432C240.561 467.955 240.44 467.375 240.44 466.693C240.44 466.023 240.558 465.439 240.794 464.942C241.029 464.442 241.357 464.055 241.778 463.783C242.198 463.507 242.684 463.369 243.235 463.369C243.661 463.369 243.999 463.44 244.249 463.582C244.502 463.722 244.695 463.881 244.829 464.06C244.965 464.236 245.07 464.381 245.144 464.494H245.247V463.455H246.218V470.188C246.218 470.75 246.09 471.207 245.835 471.56C245.582 471.915 245.241 472.175 244.812 472.339C244.386 472.507 243.911 472.591 243.389 472.591ZM243.355 468.994C243.758 468.994 244.099 468.902 244.377 468.717C244.656 468.533 244.867 468.267 245.012 467.92C245.157 467.574 245.23 467.159 245.23 466.676C245.23 466.205 245.159 465.788 245.017 465.428C244.874 465.067 244.664 464.784 244.386 464.58C244.107 464.375 243.764 464.273 243.355 464.273C242.928 464.273 242.573 464.381 242.289 464.597C242.008 464.812 241.796 465.102 241.654 465.466C241.515 465.83 241.445 466.233 241.445 466.676C241.445 467.131 241.517 467.533 241.659 467.882C241.803 468.229 242.017 468.501 242.298 468.7C242.582 468.896 242.934 468.994 243.355 468.994ZM248.059 470V463.455H249.031V464.443H249.099C249.218 464.119 249.434 463.857 249.747 463.655C250.059 463.453 250.411 463.352 250.803 463.352C250.877 463.352 250.97 463.354 251.08 463.357C251.191 463.359 251.275 463.364 251.332 463.369V464.392C251.298 464.384 251.22 464.371 251.097 464.354C250.978 464.334 250.852 464.324 250.718 464.324C250.4 464.324 250.116 464.391 249.866 464.524C249.619 464.655 249.423 464.837 249.278 465.07C249.136 465.3 249.065 465.562 249.065 465.858V470H248.059ZM254.45 470.153C254.035 470.153 253.659 470.075 253.321 469.919C252.983 469.76 252.714 469.531 252.515 469.233C252.317 468.932 252.217 468.568 252.217 468.142C252.217 467.767 252.291 467.463 252.439 467.23C252.586 466.994 252.784 466.81 253.031 466.676C253.278 466.543 253.551 466.443 253.849 466.378C254.15 466.31 254.453 466.256 254.757 466.216C255.155 466.165 255.477 466.126 255.724 466.101C255.974 466.072 256.156 466.026 256.27 465.96C256.386 465.895 256.444 465.781 256.444 465.619V465.585C256.444 465.165 256.329 464.838 256.099 464.605C255.872 464.372 255.527 464.256 255.064 464.256C254.584 464.256 254.207 464.361 253.934 464.571C253.662 464.781 253.47 465.006 253.359 465.244L252.405 464.903C252.575 464.506 252.802 464.196 253.086 463.974C253.373 463.75 253.686 463.594 254.024 463.506C254.365 463.415 254.7 463.369 255.03 463.369C255.24 463.369 255.481 463.395 255.754 463.446C256.03 463.494 256.295 463.595 256.551 463.749C256.809 463.902 257.024 464.134 257.194 464.443C257.365 464.753 257.45 465.168 257.45 465.688V470H256.444V469.114H256.393C256.325 469.256 256.211 469.408 256.052 469.57C255.893 469.732 255.682 469.869 255.417 469.983C255.153 470.097 254.831 470.153 254.45 470.153ZM254.604 469.25C255.001 469.25 255.336 469.172 255.609 469.016C255.885 468.859 256.092 468.658 256.231 468.411C256.373 468.163 256.444 467.903 256.444 467.631V466.71C256.402 466.761 256.308 466.808 256.163 466.851C256.021 466.891 255.856 466.926 255.669 466.957C255.484 466.986 255.304 467.011 255.128 467.034C254.954 467.054 254.814 467.071 254.706 467.085C254.444 467.119 254.2 467.175 253.973 467.251C253.748 467.325 253.567 467.437 253.427 467.588C253.291 467.736 253.223 467.937 253.223 468.193C253.223 468.543 253.352 468.807 253.611 468.986C253.872 469.162 254.203 469.25 254.604 469.25ZM259.286 470V463.455H260.257V464.477H260.343C260.479 464.128 260.699 463.857 261.003 463.663C261.307 463.467 261.672 463.369 262.098 463.369C262.53 463.369 262.889 463.467 263.176 463.663C263.466 463.857 263.692 464.128 263.854 464.477H263.922C264.09 464.139 264.341 463.871 264.676 463.672C265.012 463.47 265.414 463.369 265.882 463.369C266.468 463.369 266.946 463.553 267.318 463.919C267.691 464.283 267.877 464.849 267.877 465.619V470H266.871V465.619C266.871 465.136 266.739 464.791 266.475 464.584C266.21 464.376 265.899 464.273 265.541 464.273C265.081 464.273 264.725 464.412 264.472 464.69C264.219 464.966 264.093 465.315 264.093 465.739V470H263.07V465.517C263.07 465.145 262.949 464.845 262.708 464.618C262.466 464.388 262.155 464.273 261.774 464.273C261.513 464.273 261.269 464.342 261.041 464.482C260.817 464.621 260.635 464.814 260.496 465.061C260.36 465.305 260.291 465.588 260.291 465.909V470H259.286ZM275.732 472.591C275.247 472.591 274.829 472.528 274.48 472.403C274.13 472.281 273.839 472.119 273.606 471.918C273.376 471.719 273.193 471.506 273.056 471.278L273.857 470.716C273.948 470.835 274.063 470.972 274.203 471.125C274.342 471.281 274.532 471.416 274.774 471.53C275.018 471.646 275.338 471.705 275.732 471.705C276.261 471.705 276.697 471.577 277.041 471.321C277.384 471.065 277.556 470.665 277.556 470.119V468.79H277.471C277.397 468.909 277.292 469.057 277.156 469.233C277.022 469.406 276.829 469.561 276.576 469.697C276.326 469.831 275.988 469.898 275.562 469.898C275.034 469.898 274.559 469.773 274.139 469.523C273.721 469.273 273.39 468.909 273.146 468.432C272.904 467.955 272.784 467.375 272.784 466.693C272.784 466.023 272.901 465.439 273.137 464.942C273.373 464.442 273.701 464.055 274.122 463.783C274.542 463.507 275.028 463.369 275.579 463.369C276.005 463.369 276.343 463.44 276.593 463.582C276.846 463.722 277.039 463.881 277.173 464.06C277.309 464.236 277.414 464.381 277.488 464.494H277.59V463.455H278.562V470.188C278.562 470.75 278.434 471.207 278.178 471.56C277.926 471.915 277.585 472.175 277.156 472.339C276.73 472.507 276.255 472.591 275.732 472.591ZM275.698 468.994C276.102 468.994 276.443 468.902 276.721 468.717C276.999 468.533 277.211 468.267 277.356 467.92C277.501 467.574 277.573 467.159 277.573 466.676C277.573 466.205 277.502 465.788 277.36 465.428C277.218 465.067 277.008 464.784 276.73 464.58C276.451 464.375 276.107 464.273 275.698 464.273C275.272 464.273 274.917 464.381 274.633 464.597C274.352 464.812 274.14 465.102 273.998 465.466C273.859 465.83 273.789 466.233 273.789 466.676C273.789 467.131 273.86 467.533 274.002 467.882C274.147 468.229 274.36 468.501 274.642 468.7C274.926 468.896 275.278 468.994 275.698 468.994ZM280.403 470V463.455H281.374V464.443H281.443C281.562 464.119 281.778 463.857 282.09 463.655C282.403 463.453 282.755 463.352 283.147 463.352C283.221 463.352 283.313 463.354 283.424 463.357C283.535 463.359 283.619 463.364 283.676 463.369V464.392C283.642 464.384 283.563 464.371 283.441 464.354C283.322 464.334 283.195 464.324 283.062 464.324C282.744 464.324 282.46 464.391 282.21 464.524C281.963 464.655 281.767 464.837 281.622 465.07C281.48 465.3 281.409 465.562 281.409 465.858V470H280.403ZM287.328 470.136C286.737 470.136 286.218 469.996 285.772 469.714C285.329 469.433 284.982 469.04 284.732 468.534C284.485 468.028 284.362 467.437 284.362 466.761C284.362 466.08 284.485 465.484 284.732 464.976C284.982 464.467 285.329 464.072 285.772 463.791C286.218 463.51 286.737 463.369 287.328 463.369C287.919 463.369 288.436 463.51 288.879 463.791C289.325 464.072 289.671 464.467 289.919 464.976C290.169 465.484 290.294 466.08 290.294 466.761C290.294 467.437 290.169 468.028 289.919 468.534C289.671 469.04 289.325 469.433 288.879 469.714C288.436 469.996 287.919 470.136 287.328 470.136ZM287.328 469.233C287.776 469.233 288.146 469.118 288.436 468.888C288.725 468.658 288.94 468.355 289.079 467.98C289.218 467.605 289.288 467.199 289.288 466.761C289.288 466.324 289.218 465.916 289.079 465.538C288.94 465.161 288.725 464.855 288.436 464.622C288.146 464.389 287.776 464.273 287.328 464.273C286.879 464.273 286.509 464.389 286.22 464.622C285.93 464.855 285.715 465.161 285.576 465.538C285.437 465.916 285.367 466.324 285.367 466.761C285.367 467.199 285.437 467.605 285.576 467.98C285.715 468.355 285.93 468.658 286.22 468.888C286.509 469.118 286.879 469.233 287.328 469.233ZM295.954 467.324V463.455H296.959V470H295.954V468.892H295.885C295.732 469.224 295.493 469.507 295.17 469.74C294.846 469.97 294.437 470.085 293.942 470.085C293.533 470.085 293.17 469.996 292.851 469.817C292.533 469.635 292.283 469.362 292.101 468.999C291.92 468.632 291.829 468.17 291.829 467.614V463.455H292.834V467.545C292.834 468.023 292.968 468.403 293.235 468.688C293.505 468.972 293.849 469.114 294.266 469.114C294.516 469.114 294.77 469.05 295.029 468.922C295.29 468.794 295.509 468.598 295.685 468.334C295.864 468.07 295.954 467.733 295.954 467.324ZM298.801 472.455V463.455H299.773V464.494H299.892C299.966 464.381 300.068 464.236 300.199 464.06C300.333 463.881 300.523 463.722 300.77 463.582C301.02 463.44 301.358 463.369 301.784 463.369C302.335 463.369 302.821 463.507 303.242 463.783C303.662 464.058 303.99 464.449 304.226 464.955C304.462 465.46 304.58 466.057 304.58 466.744C304.58 467.438 304.462 468.038 304.226 468.547C303.99 469.053 303.664 469.445 303.246 469.723C302.828 469.999 302.347 470.136 301.801 470.136C301.381 470.136 301.044 470.067 300.791 469.928C300.539 469.786 300.344 469.625 300.208 469.446C300.071 469.264 299.966 469.114 299.892 468.994H299.807V472.455H298.801ZM299.79 466.727C299.79 467.222 299.862 467.658 300.007 468.036C300.152 468.411 300.364 468.705 300.642 468.918C300.921 469.128 301.262 469.233 301.665 469.233C302.085 469.233 302.436 469.122 302.718 468.901C303.002 468.676 303.215 468.375 303.357 467.997C303.502 467.616 303.574 467.193 303.574 466.727C303.574 466.267 303.503 465.852 303.361 465.483C303.222 465.111 303.01 464.817 302.726 464.601C302.445 464.382 302.091 464.273 301.665 464.273C301.256 464.273 300.912 464.376 300.634 464.584C300.355 464.788 300.145 465.075 300.003 465.445C299.861 465.811 299.79 466.239 299.79 466.727Z" fill="#999999"/>
</g>
<defs>
<linearGradient id="paint0_linear_3515_11313" x1="200" y1="42" x2="200" y2="70" gradientUnits="userSpaceOnUse">
<stop stop-color="#37BBFE"/>
<stop offset="1" stop-color="#007DBB"/>
</linearGradient>
<clipPath id="clip0_3515_11313">
<rect width="400" height="500" fill="white"/>
</clipPath>
<clipPath id="clip1_3515_11313">
<rect width="256" height="256" fill="white" transform="translate(72 150)"/>
</clipPath>
</defs>
</svg>
