<svg width="400" height="500" viewBox="0 0 400 500" fill="none" xmlns="http://www.w3.org/2000/svg">
<g clip-path="url(#clip0_3515_11293)">
<path fill-rule="evenodd" clip-rule="evenodd" d="M196.008 45.0012C190.542 44.9209 186 48.8397 186 53.4615C186 56.1293 187.286 58.4438 189.776 60.143C189.776 60.143 188.863 63.0808 188.876 63.1397C188.889 63.1987 189.088 63.3144 189.157 63.2766C189.226 63.2388 192.455 61.3599 192.455 61.3599C194.769 62.135 196.181 61.9443 196.422 61.9117C196.439 61.9095 196.45 61.908 196.455 61.9076C196.208 61.2021 196.046 60.1035 196.231 59.068C197.195 53.6488 202.882 51.9631 205.999 52.251C205.138 48.3374 201.4 45.0804 196.008 45.0012ZM192.209 49.4492C191.492 49.4492 190.91 50.0164 190.91 50.7161C190.91 51.4158 191.492 51.983 192.209 51.983C192.926 51.983 193.507 51.4158 193.507 50.7161C193.507 50.0164 192.926 49.4492 192.209 49.4492ZM200.068 49.4492C199.351 49.4492 198.77 50.0164 198.77 50.7161C198.77 51.4158 199.351 51.983 200.068 51.983C200.785 51.983 201.367 51.4158 201.367 50.7161C201.367 50.0164 200.785 49.4492 200.068 49.4492Z" fill="#31CE6F"/>
<path fill-rule="evenodd" clip-rule="evenodd" d="M214 59.8925C214 55.9331 210.075 52.9003 205.522 52.9003C200.702 52.9003 196.857 56.0016 196.857 59.9608C196.857 63.9273 200.514 67.2109 205.528 67.2378C206.537 67.2433 208.04 66.9902 209.054 66.5771C209.054 66.5771 211.477 68.0105 211.613 67.9999C211.748 67.9893 211.818 67.8845 211.823 67.7946C211.829 67.7047 211.051 65.4673 211.051 65.4673C213.132 63.8776 214 62.1259 214 59.8925ZM202.349 56.1855C201.715 56.1855 201.201 56.6881 201.201 57.3083C201.201 57.9282 201.715 58.431 202.349 58.431C202.984 58.431 203.498 57.9284 203.498 57.3083C203.498 56.6881 202.984 56.1855 202.349 56.1855ZM208.491 56.1855C207.857 56.1855 207.343 56.6881 207.343 57.3083C207.343 57.9282 207.857 58.431 208.491 58.431C209.126 58.431 209.64 57.9284 209.64 57.3083C209.64 56.6881 209.126 56.1855 208.491 56.1855Z" fill="#31CE6F"/>
<path d="M167.636 88.39H172.28V89.56H167.168L167.636 88.39ZM167.744 84.88L169.004 85.078C168.518 88.246 167.654 91.252 166.286 93.232C166.106 92.962 165.656 92.44 165.386 92.206C166.646 90.46 167.348 87.742 167.744 84.88ZM162.542 84.88H163.586V90.55H162.542V84.88ZM160.256 86.446H161.21V89.92H164.99V86.446H165.98V91.054H160.256V86.446ZM159.914 92.89H166.196V94.042H159.914V92.89ZM163.172 98.272C164.108 98.02 165.404 97.57 166.754 97.12L166.934 98.128C165.746 98.578 164.576 99.046 163.55 99.442L163.172 98.272ZM163.874 93.412H165.008V98.272L163.874 98.614V93.412ZM167.888 89.434C168.482 94.276 169.778 98.686 172.622 100.378C172.334 100.63 171.938 101.098 171.74 101.44C168.806 99.442 167.546 94.852 166.934 89.578L167.888 89.434ZM170.336 89.02L171.524 89.128C170.948 94.996 169.634 98.956 166.07 101.44C165.944 101.206 165.548 100.684 165.314 100.432C168.698 98.254 169.868 94.438 170.336 89.02ZM161.174 93.574H162.29V94.996C162.29 96.67 162.092 99.1 160.22 100.954C160.04 100.666 159.68 100.252 159.41 100.054C161.048 98.416 161.174 96.454 161.174 94.96V93.574ZM158.564 84.88L159.788 85.348C158.906 86.788 157.502 88.408 156.224 89.488C156.062 89.218 155.702 88.714 155.486 88.48C156.638 87.544 157.916 86.068 158.564 84.88ZM158.942 88.498L160.13 88.912C159.104 91.036 157.538 93.304 156.08 94.78C155.936 94.51 155.522 93.88 155.288 93.61C156.638 92.314 158.042 90.388 158.942 88.498ZM157.646 91.774L158.87 90.532V90.568V101.422H157.646V91.774ZM180.272 85.744H188.606V86.842H180.272V85.744ZM180.056 90.73H188.93V91.846H180.056V90.73ZM180.056 93.232H188.894V94.348H180.056V93.232ZM180.578 99.478H188.39V100.594H180.578V99.478ZM178.58 88.228H190.298V89.362H178.58V88.228ZM179.876 95.734H189.092V101.386H187.742V96.832H181.172V101.44H179.876V95.734ZM177.968 84.934L179.246 85.33C178.022 88.372 176.096 91.396 174.098 93.394C173.972 93.088 173.594 92.386 173.342 92.062C175.16 90.352 176.924 87.67 177.968 84.934ZM176.096 89.578L177.374 88.3L177.392 88.318V101.404H176.096V89.578ZM202.592 92.206L204.032 92.602C202.052 97.624 198.092 100.126 192.566 101.512C192.422 101.17 191.99 100.558 191.702 100.234C197.156 99.1 200.936 96.76 202.592 92.206ZM196.724 89.11L198.092 89.632C196.814 91.36 194.798 93.052 193.052 94.15C192.818 93.862 192.296 93.322 191.954 93.07C193.718 92.134 195.626 90.64 196.724 89.11ZM197.444 92.296C199.118 96.562 202.772 99.244 208.352 100.162C208.046 100.468 207.65 101.08 207.452 101.458C201.71 100.36 198.092 97.48 196.166 92.692L197.444 92.296ZM192.098 87.238H207.902V88.552H192.098V87.238ZM199.262 84.862H200.648V88.084H199.262V84.862ZM202.106 89.866L203.222 89.038C204.914 90.172 207.038 91.846 208.064 93.034L206.894 93.97C205.922 92.782 203.834 91.036 202.106 89.866ZM214.652 87.238H226.118V88.462H214.652V87.238ZM219.44 84.898H220.808V87.832H219.44V84.898ZM219.44 93.52H220.646V100.666H219.44V93.52ZM216.272 93.412H217.514V95.302C217.514 97.318 217.226 99.658 214.796 101.422C214.598 101.152 214.148 100.738 213.842 100.522C216.038 98.992 216.272 96.958 216.272 95.266V93.412ZM218.63 87.904L220.034 88.336C219.35 89.632 218.504 91.162 217.82 92.134L216.74 91.738C217.406 90.712 218.198 89.056 218.63 87.904ZM221.78 89.668L222.824 89.074C224.12 90.172 225.56 91.738 226.208 92.836L225.092 93.502C224.48 92.422 223.058 90.784 221.78 89.668ZM214.886 91.414C217.226 91.36 220.934 91.216 224.462 91.09L224.426 92.224C221.042 92.422 217.496 92.602 215.03 92.71L214.886 91.414ZM210.62 86.014L211.376 85.042C212.51 85.528 213.932 86.338 214.616 86.968L213.842 88.066C213.158 87.418 211.772 86.554 210.62 86.014ZM209.666 90.91L210.404 89.902C211.556 90.334 213.014 91.108 213.734 91.702L212.96 92.818C212.258 92.206 210.836 91.396 209.666 90.91ZM210.206 100.324C211.124 98.938 212.438 96.544 213.41 94.492L214.436 95.32C213.554 97.228 212.366 99.514 211.376 101.188L210.206 100.324ZM222.626 93.412H223.886V99.37C223.886 99.73 223.904 99.91 223.994 100C224.048 100.054 224.174 100.072 224.282 100.072C224.408 100.072 224.642 100.072 224.804 100.072C224.948 100.072 225.11 100.054 225.182 99.982C225.272 99.928 225.326 99.802 225.362 99.514C225.398 99.208 225.416 98.56 225.434 97.696C225.668 97.894 226.064 98.092 226.388 98.2C226.37 98.992 226.316 99.946 226.208 100.27C226.118 100.612 225.974 100.828 225.722 100.972C225.524 101.098 225.164 101.17 224.876 101.17C224.642 101.17 224.174 101.17 223.976 101.17C223.634 101.17 223.238 101.08 222.986 100.864C222.716 100.612 222.626 100.324 222.626 99.226V93.412ZM236.54 88.39H243.938V89.632H236.54V88.39ZM236.792 92.08H243.632V93.34H236.792V92.08ZM236.126 95.95H244.352V97.228H236.126V95.95ZM236.774 85.384L237.836 85.024C238.448 85.924 238.988 87.13 239.168 87.94L237.998 88.39C237.836 87.562 237.332 86.32 236.774 85.384ZM242.3 84.862L243.614 85.186C243.11 86.266 242.57 87.508 242.102 88.318L240.986 88.012C241.436 87.166 242.03 85.816 242.3 84.862ZM239.51 88.984H240.824V101.458H239.51V88.984ZM227.774 88.768H236.342V89.938H227.774V88.768ZM228.71 85.798H235.28V92.89H228.602V91.72H234.02V86.968H228.71V85.798ZM229.664 94.762H230.906V101.458H229.664V94.762ZM230.168 94.762H235.532V100.486H230.168V99.28H234.2V95.95H230.168V94.762ZM230.942 86.212L232.238 86.284C231.86 91.558 230.978 95.608 228.404 98.236C228.242 97.966 227.774 97.426 227.486 97.174C229.898 94.906 230.636 91.018 230.942 86.212Z" fill="#07C160"/>
<path d="M154.834 125L152.05 114.818H153.303L155.431 123.111H155.53L157.698 114.818H159.09L161.258 123.111H161.357L163.485 114.818H164.738L161.954 125H160.681L158.434 116.886H158.354L156.107 125H154.834ZM168.606 125.159C167.87 125.159 167.235 124.997 166.702 124.672C166.171 124.344 165.762 123.886 165.474 123.3C165.189 122.71 165.046 122.024 165.046 121.241C165.046 120.459 165.189 119.77 165.474 119.173C165.762 118.573 166.163 118.106 166.677 117.771C167.194 117.433 167.797 117.264 168.486 117.264C168.884 117.264 169.277 117.33 169.665 117.463C170.052 117.596 170.405 117.811 170.724 118.109C171.042 118.404 171.295 118.795 171.484 119.283C171.673 119.77 171.768 120.37 171.768 121.082V121.58H165.881V120.565H170.574C170.574 120.134 170.488 119.75 170.316 119.412C170.147 119.074 169.905 118.807 169.59 118.612C169.278 118.416 168.911 118.318 168.486 118.318C168.019 118.318 167.615 118.434 167.273 118.666C166.935 118.895 166.675 119.193 166.493 119.561C166.31 119.929 166.219 120.323 166.219 120.744V121.42C166.219 121.997 166.319 122.486 166.518 122.887C166.72 123.285 167 123.588 167.358 123.797C167.716 124.002 168.132 124.105 168.606 124.105C168.914 124.105 169.192 124.062 169.441 123.976C169.693 123.886 169.91 123.754 170.092 123.578C170.274 123.399 170.415 123.177 170.515 122.912L171.648 123.23C171.529 123.615 171.328 123.953 171.047 124.244C170.765 124.533 170.417 124.758 170.003 124.92C169.588 125.08 169.123 125.159 168.606 125.159ZM181.905 118H180.672C180.599 117.645 180.471 117.334 180.289 117.065C180.11 116.797 179.891 116.571 179.633 116.389C179.377 116.204 179.094 116.064 178.782 115.972C178.471 115.879 178.146 115.832 177.808 115.832C177.192 115.832 176.633 115.988 176.133 116.3C175.635 116.611 175.239 117.07 174.944 117.677C174.653 118.283 174.507 119.027 174.507 119.909C174.507 120.791 174.653 121.535 174.944 122.141C175.239 122.748 175.635 123.207 176.133 123.518C176.633 123.83 177.192 123.986 177.808 123.986C178.146 123.986 178.471 123.939 178.782 123.847C179.094 123.754 179.377 123.616 179.633 123.434C179.891 123.248 180.11 123.021 180.289 122.753C180.471 122.481 180.599 122.17 180.672 121.818H181.905C181.812 122.339 181.643 122.804 181.398 123.215C181.152 123.626 180.847 123.976 180.483 124.264C180.118 124.549 179.709 124.766 179.255 124.915C178.804 125.065 178.322 125.139 177.808 125.139C176.94 125.139 176.167 124.927 175.491 124.503C174.815 124.079 174.283 123.475 173.895 122.693C173.508 121.911 173.314 120.983 173.314 119.909C173.314 118.835 173.508 117.907 173.895 117.125C174.283 116.343 174.815 115.74 175.491 115.315C176.167 114.891 176.94 114.679 177.808 114.679C178.322 114.679 178.804 114.754 179.255 114.903C179.709 115.052 180.118 115.271 180.483 115.559C180.847 115.844 181.152 116.192 181.398 116.603C181.643 117.011 181.812 117.476 181.905 118ZM184.911 120.406V125H183.738V114.818H184.911V118.557H185.011C185.19 118.162 185.458 117.849 185.816 117.617C186.177 117.382 186.658 117.264 187.258 117.264C187.778 117.264 188.234 117.369 188.625 117.577C189.016 117.783 189.319 118.099 189.535 118.527C189.754 118.951 189.863 119.491 189.863 120.148V125H188.69V120.227C188.69 119.621 188.532 119.152 188.217 118.82C187.906 118.486 187.473 118.318 186.92 118.318C186.535 118.318 186.191 118.399 185.886 118.562C185.584 118.724 185.345 118.961 185.17 119.273C184.997 119.584 184.911 119.962 184.911 120.406ZM194.257 125.179C193.773 125.179 193.334 125.088 192.939 124.906C192.545 124.72 192.231 124.453 191.999 124.105C191.767 123.754 191.651 123.33 191.651 122.832C191.651 122.395 191.738 122.04 191.91 121.768C192.082 121.493 192.313 121.278 192.601 121.122C192.889 120.966 193.208 120.85 193.556 120.774C193.907 120.695 194.26 120.632 194.615 120.585C195.079 120.526 195.455 120.481 195.743 120.451C196.035 120.418 196.247 120.363 196.379 120.287C196.515 120.211 196.583 120.078 196.583 119.889V119.849C196.583 119.359 196.449 118.978 196.181 118.706C195.915 118.434 195.513 118.298 194.972 118.298C194.412 118.298 193.973 118.421 193.655 118.666C193.337 118.911 193.113 119.173 192.984 119.452L191.87 119.054C192.069 118.59 192.334 118.229 192.666 117.97C193 117.708 193.365 117.526 193.759 117.423C194.157 117.317 194.548 117.264 194.933 117.264C195.178 117.264 195.46 117.294 195.778 117.354C196.099 117.41 196.409 117.528 196.708 117.707C197.009 117.886 197.259 118.156 197.458 118.517C197.657 118.878 197.757 119.362 197.757 119.969V125H196.583V123.966H196.524C196.444 124.132 196.311 124.309 196.126 124.498C195.94 124.687 195.693 124.848 195.385 124.98C195.077 125.113 194.701 125.179 194.257 125.179ZM194.436 124.125C194.9 124.125 195.291 124.034 195.609 123.852C195.93 123.669 196.172 123.434 196.335 123.146C196.5 122.857 196.583 122.554 196.583 122.236V121.162C196.534 121.222 196.424 121.276 196.255 121.326C196.089 121.372 195.897 121.414 195.678 121.45C195.463 121.483 195.253 121.513 195.047 121.54C194.845 121.563 194.681 121.583 194.555 121.599C194.25 121.639 193.965 121.704 193.7 121.793C193.438 121.879 193.226 122.01 193.063 122.186C192.904 122.358 192.825 122.594 192.825 122.892C192.825 123.3 192.976 123.608 193.277 123.817C193.582 124.022 193.968 124.125 194.436 124.125ZM203.219 117.364V118.358H199.262V117.364H203.219ZM200.415 115.534H201.588V122.812C201.588 123.144 201.636 123.393 201.733 123.558C201.832 123.721 201.958 123.83 202.11 123.886C202.266 123.939 202.43 123.966 202.603 123.966C202.732 123.966 202.838 123.959 202.921 123.946C203.004 123.929 203.07 123.916 203.12 123.906L203.358 124.96C203.279 124.99 203.168 125.02 203.025 125.05C202.883 125.083 202.702 125.099 202.483 125.099C202.152 125.099 201.827 125.028 201.509 124.886C201.194 124.743 200.932 124.526 200.723 124.234C200.518 123.943 200.415 123.575 200.415 123.131V115.534ZM216.041 118C215.931 117.665 215.787 117.365 215.608 117.1C215.433 116.832 215.222 116.603 214.977 116.414C214.735 116.225 214.46 116.081 214.152 115.982C213.843 115.882 213.505 115.832 213.137 115.832C212.534 115.832 211.986 115.988 211.492 116.3C210.998 116.611 210.605 117.07 210.314 117.677C210.022 118.283 209.876 119.027 209.876 119.909C209.876 120.791 210.024 121.535 210.319 122.141C210.614 122.748 211.013 123.207 211.517 123.518C212.02 123.83 212.587 123.986 213.217 123.986C213.8 123.986 214.314 123.862 214.758 123.613C215.206 123.361 215.554 123.006 215.802 122.549C216.054 122.088 216.18 121.546 216.18 120.923L216.558 121.003H213.495V119.909H217.373V121.003C217.373 121.841 217.194 122.571 216.836 123.19C216.482 123.81 215.991 124.291 215.365 124.632C214.742 124.97 214.026 125.139 213.217 125.139C212.315 125.139 211.523 124.927 210.841 124.503C210.161 124.079 209.631 123.475 209.25 122.693C208.872 121.911 208.683 120.983 208.683 119.909C208.683 119.104 208.791 118.379 209.006 117.737C209.225 117.09 209.533 116.54 209.931 116.086C210.328 115.632 210.799 115.284 211.343 115.042C211.886 114.8 212.484 114.679 213.137 114.679C213.674 114.679 214.175 114.76 214.639 114.923C215.106 115.082 215.522 115.309 215.887 115.604C216.255 115.895 216.561 116.245 216.806 116.653C217.052 117.057 217.221 117.506 217.314 118H216.041ZM219.326 125V117.364H220.459V118.517H220.539C220.678 118.139 220.93 117.833 221.295 117.597C221.659 117.362 222.07 117.244 222.528 117.244C222.614 117.244 222.721 117.246 222.851 117.249C222.98 117.253 223.078 117.258 223.144 117.264V118.457C223.104 118.447 223.013 118.433 222.871 118.413C222.731 118.389 222.584 118.378 222.428 118.378C222.057 118.378 221.725 118.456 221.434 118.612C221.145 118.764 220.917 118.976 220.748 119.248C220.582 119.516 220.499 119.823 220.499 120.168V125H219.326ZM227.405 125.159C226.715 125.159 226.11 124.995 225.59 124.667C225.073 124.339 224.669 123.88 224.377 123.29C224.089 122.7 223.944 122.01 223.944 121.222C223.944 120.426 224.089 119.732 224.377 119.138C224.669 118.545 225.073 118.085 225.59 117.756C226.11 117.428 226.715 117.264 227.405 117.264C228.094 117.264 228.697 117.428 229.214 117.756C229.735 118.085 230.139 118.545 230.427 119.138C230.719 119.732 230.865 120.426 230.865 121.222C230.865 122.01 230.719 122.7 230.427 123.29C230.139 123.88 229.735 124.339 229.214 124.667C228.697 124.995 228.094 125.159 227.405 125.159ZM227.405 124.105C227.928 124.105 228.359 123.971 228.697 123.702C229.035 123.434 229.286 123.081 229.448 122.643C229.61 122.206 229.692 121.732 229.692 121.222C229.692 120.711 229.61 120.236 229.448 119.795C229.286 119.354 229.035 118.998 228.697 118.726C228.359 118.454 227.928 118.318 227.405 118.318C226.881 118.318 226.45 118.454 226.112 118.726C225.774 118.998 225.524 119.354 225.361 119.795C225.199 120.236 225.118 120.711 225.118 121.222C225.118 121.732 225.199 122.206 225.361 122.643C225.524 123.081 225.774 123.434 226.112 123.702C226.45 123.971 226.881 124.105 227.405 124.105ZM237.468 121.878V117.364H238.642V125H237.468V123.707H237.389C237.21 124.095 236.931 124.425 236.554 124.697C236.176 124.965 235.699 125.099 235.122 125.099C234.645 125.099 234.22 124.995 233.849 124.786C233.478 124.574 233.186 124.256 232.974 123.832C232.762 123.404 232.656 122.866 232.656 122.216V117.364H233.829V122.136C233.829 122.693 233.985 123.137 234.297 123.469C234.611 123.8 235.012 123.966 235.5 123.966C235.791 123.966 236.088 123.891 236.39 123.742C236.694 123.593 236.95 123.364 237.155 123.056C237.364 122.748 237.468 122.355 237.468 121.878ZM240.791 127.864V117.364H241.924V118.577H242.063C242.15 118.444 242.269 118.275 242.421 118.07C242.577 117.861 242.799 117.675 243.088 117.513C243.379 117.347 243.774 117.264 244.271 117.264C244.914 117.264 245.481 117.425 245.971 117.746C246.462 118.068 246.844 118.524 247.119 119.114C247.395 119.704 247.532 120.4 247.532 121.202C247.532 122.01 247.395 122.711 247.119 123.305C246.844 123.895 246.463 124.352 245.976 124.677C245.489 124.998 244.927 125.159 244.291 125.159C243.8 125.159 243.407 125.078 243.112 124.915C242.817 124.75 242.59 124.562 242.431 124.354C242.272 124.142 242.15 123.966 242.063 123.827H241.964V127.864H240.791ZM241.944 121.182C241.944 121.759 242.029 122.267 242.198 122.708C242.367 123.146 242.614 123.489 242.938 123.737C243.263 123.982 243.661 124.105 244.132 124.105C244.622 124.105 245.031 123.976 245.36 123.717C245.691 123.455 245.94 123.104 246.105 122.663C246.274 122.219 246.359 121.725 246.359 121.182C246.359 120.645 246.276 120.161 246.11 119.73C245.948 119.296 245.701 118.953 245.369 118.701C245.041 118.446 244.629 118.318 244.132 118.318C243.654 118.318 243.253 118.439 242.928 118.681C242.604 118.92 242.358 119.254 242.193 119.685C242.027 120.113 241.944 120.612 241.944 121.182Z" fill="#666666"/>
<path d="M328 150H72V406H328V150Z" fill="white" stroke="#07C160" stroke-width="2" stroke-dasharray="5 5"/>
<g clip-path="url(#clip1_3515_11293)">
<path d="M94.7879 166H88V172.788H94.7879V166Z" fill="black"/>
<path d="M101.576 166H94.7879V172.788H101.576V166Z" fill="black"/>
<path d="M108.364 166H101.576V172.788H108.364V166Z" fill="black"/>
<path d="M115.152 166H108.364V172.788H115.152V166Z" fill="black"/>
<path d="M121.939 166H115.152V172.788H121.939V166Z" fill="black"/>
<path d="M128.727 166H121.939V172.788H128.727V166Z" fill="black"/>
<path d="M135.515 166H128.727V172.788H135.515V166Z" fill="black"/>
<path d="M149.091 166H142.303V172.788H149.091V166Z" fill="black"/>
<path d="M155.879 166H149.091V172.788H155.879V166Z" fill="black"/>
<path d="M169.455 166H162.667V172.788H169.455V166Z" fill="black"/>
<path d="M176.242 166H169.455V172.788H176.242V166Z" fill="black"/>
<path d="M189.818 166H183.03V172.788H189.818V166Z" fill="black"/>
<path d="M216.97 166H210.182V172.788H216.97V166Z" fill="black"/>
<path d="M223.758 166H216.97V172.788H223.758V166Z" fill="black"/>
<path d="M237.333 166H230.545V172.788H237.333V166Z" fill="black"/>
<path d="M257.697 166H250.909V172.788H257.697V166Z" fill="black"/>
<path d="M271.273 166H264.485V172.788H271.273V166Z" fill="black"/>
<path d="M278.061 166H271.273V172.788H278.061V166Z" fill="black"/>
<path d="M284.848 166H278.061V172.788H284.848V166Z" fill="black"/>
<path d="M291.636 166H284.848V172.788H291.636V166Z" fill="black"/>
<path d="M298.424 166H291.636V172.788H298.424V166Z" fill="black"/>
<path d="M305.212 166H298.424V172.788H305.212V166Z" fill="black"/>
<path d="M312 166H305.212V172.788H312V166Z" fill="black"/>
<path d="M94.7879 172.788H88V179.576H94.7879V172.788Z" fill="black"/>
<path d="M135.515 172.788H128.727V179.576H135.515V172.788Z" fill="black"/>
<path d="M169.455 172.788H162.667V179.576H169.455V172.788Z" fill="black"/>
<path d="M183.03 172.788H176.242V179.576H183.03V172.788Z" fill="black"/>
<path d="M203.394 172.788H196.606V179.576H203.394V172.788Z" fill="black"/>
<path d="M216.97 172.788H210.182V179.576H216.97V172.788Z" fill="black"/>
<path d="M223.758 172.788H216.97V179.576H223.758V172.788Z" fill="black"/>
<path d="M230.545 172.788H223.758V179.576H230.545V172.788Z" fill="black"/>
<path d="M250.909 172.788H244.121V179.576H250.909V172.788Z" fill="black"/>
<path d="M271.273 172.788H264.485V179.576H271.273V172.788Z" fill="black"/>
<path d="M312 172.788H305.212V179.576H312V172.788Z" fill="black"/>
<path d="M94.7879 179.576H88V186.364H94.7879V179.576Z" fill="black"/>
<path d="M108.364 179.576H101.576V186.364H108.364V179.576Z" fill="black"/>
<path d="M115.152 179.576H108.364V186.364H115.152V179.576Z" fill="black"/>
<path d="M121.939 179.576H115.152V186.364H121.939V179.576Z" fill="black"/>
<path d="M135.515 179.576H128.727V186.364H135.515V179.576Z" fill="black"/>
<path d="M149.091 179.576H142.303V186.364H149.091V179.576Z" fill="black"/>
<path d="M169.455 179.576H162.667V186.364H169.455V179.576Z" fill="black"/>
<path d="M176.242 179.576H169.455V186.364H176.242V179.576Z" fill="black"/>
<path d="M183.03 179.576H176.242V186.364H183.03V179.576Z" fill="black"/>
<path d="M196.606 179.576H189.818V186.364H196.606V179.576Z" fill="black"/>
<path d="M203.394 179.576H196.606V186.364H203.394V179.576Z" fill="black"/>
<path d="M210.182 179.576H203.394V186.364H210.182V179.576Z" fill="black"/>
<path d="M216.97 179.576H210.182V186.364H216.97V179.576Z" fill="black"/>
<path d="M223.758 179.576H216.97V186.364H223.758V179.576Z" fill="black"/>
<path d="M237.333 179.576H230.545V186.364H237.333V179.576Z" fill="black"/>
<path d="M257.697 179.576H250.909V186.364H257.697V179.576Z" fill="black"/>
<path d="M271.273 179.576H264.485V186.364H271.273V179.576Z" fill="black"/>
<path d="M284.848 179.576H278.061V186.364H284.848V179.576Z" fill="black"/>
<path d="M291.636 179.576H284.848V186.364H291.636V179.576Z" fill="black"/>
<path d="M298.424 179.576H291.636V186.364H298.424V179.576Z" fill="black"/>
<path d="M312 179.576H305.212V186.364H312V179.576Z" fill="black"/>
<path d="M94.7879 186.364H88V193.152H94.7879V186.364Z" fill="black"/>
<path d="M108.364 186.364H101.576V193.152H108.364V186.364Z" fill="black"/>
<path d="M115.152 186.364H108.364V193.152H115.152V186.364Z" fill="black"/>
<path d="M121.939 186.364H115.152V193.152H121.939V186.364Z" fill="black"/>
<path d="M135.515 186.364H128.727V193.152H135.515V186.364Z" fill="black"/>
<path d="M149.091 186.364H142.303V193.152H149.091V186.364Z" fill="black"/>
<path d="M162.667 186.364H155.879V193.152H162.667V186.364Z" fill="black"/>
<path d="M189.818 186.364H183.03V193.152H189.818V186.364Z" fill="black"/>
<path d="M216.97 186.364H210.182V193.152H216.97V186.364Z" fill="black"/>
<path d="M223.758 186.364H216.97V193.152H223.758V186.364Z" fill="black"/>
<path d="M230.545 186.364H223.758V193.152H230.545V186.364Z" fill="black"/>
<path d="M237.333 186.364H230.545V193.152H237.333V186.364Z" fill="black"/>
<path d="M244.121 186.364H237.333V193.152H244.121V186.364Z" fill="black"/>
<path d="M271.273 186.364H264.485V193.152H271.273V186.364Z" fill="black"/>
<path d="M284.848 186.364H278.061V193.152H284.848V186.364Z" fill="black"/>
<path d="M291.636 186.364H284.848V193.152H291.636V186.364Z" fill="black"/>
<path d="M298.424 186.364H291.636V193.152H298.424V186.364Z" fill="black"/>
<path d="M312 186.364H305.212V193.152H312V186.364Z" fill="black"/>
<path d="M94.7879 193.152H88V199.939H94.7879V193.152Z" fill="black"/>
<path d="M108.364 193.152H101.576V199.939H108.364V193.152Z" fill="black"/>
<path d="M115.152 193.152H108.364V199.939H115.152V193.152Z" fill="black"/>
<path d="M121.939 193.152H115.152V199.939H121.939V193.152Z" fill="black"/>
<path d="M135.515 193.152H128.727V199.939H135.515V193.152Z" fill="black"/>
<path d="M162.667 193.152H155.879V199.939H162.667V193.152Z" fill="black"/>
<path d="M169.455 193.152H162.667V199.939H169.455V193.152Z" fill="black"/>
<path d="M183.03 193.152H176.242V199.939H183.03V193.152Z" fill="black"/>
<path d="M189.818 193.152H183.03V199.939H189.818V193.152Z" fill="black"/>
<path d="M196.606 193.152H189.818V199.939H196.606V193.152Z" fill="black"/>
<path d="M210.182 193.152H203.394V199.939H210.182V193.152Z" fill="black"/>
<path d="M237.333 193.152H230.545V199.939H237.333V193.152Z" fill="black"/>
<path d="M250.909 193.152H244.121V199.939H250.909V193.152Z" fill="black"/>
<path d="M257.697 193.152H250.909V199.939H257.697V193.152Z" fill="black"/>
<path d="M271.273 193.152H264.485V199.939H271.273V193.152Z" fill="black"/>
<path d="M284.848 193.152H278.061V199.939H284.848V193.152Z" fill="black"/>
<path d="M291.636 193.152H284.848V199.939H291.636V193.152Z" fill="black"/>
<path d="M298.424 193.152H291.636V199.939H298.424V193.152Z" fill="black"/>
<path d="M312 193.152H305.212V199.939H312V193.152Z" fill="black"/>
<path d="M94.7879 199.939H88V206.727H94.7879V199.939Z" fill="black"/>
<path d="M135.515 199.939H128.727V206.727H135.515V199.939Z" fill="black"/>
<path d="M149.091 199.939H142.303V206.727H149.091V199.939Z" fill="black"/>
<path d="M162.667 199.939H155.879V206.727H162.667V199.939Z" fill="black"/>
<path d="M169.455 199.939H162.667V206.727H169.455V199.939Z" fill="black"/>
<path d="M176.242 199.939H169.455V206.727H176.242V199.939Z" fill="black"/>
<path d="M189.818 199.939H183.03V206.727H189.818V199.939Z" fill="black"/>
<path d="M196.606 199.939H189.818V206.727H196.606V199.939Z" fill="black"/>
<path d="M203.394 199.939H196.606V206.727H203.394V199.939Z" fill="black"/>
<path d="M223.758 199.939H216.97V206.727H223.758V199.939Z" fill="black"/>
<path d="M237.333 199.939H230.545V206.727H237.333V199.939Z" fill="black"/>
<path d="M244.121 199.939H237.333V206.727H244.121V199.939Z" fill="black"/>
<path d="M271.273 199.939H264.485V206.727H271.273V199.939Z" fill="black"/>
<path d="M312 199.939H305.212V206.727H312V199.939Z" fill="black"/>
<path d="M94.7879 206.727H88V213.515H94.7879V206.727Z" fill="black"/>
<path d="M101.576 206.727H94.7879V213.515H101.576V206.727Z" fill="black"/>
<path d="M108.364 206.727H101.576V213.515H108.364V206.727Z" fill="black"/>
<path d="M115.152 206.727H108.364V213.515H115.152V206.727Z" fill="black"/>
<path d="M121.939 206.727H115.152V213.515H121.939V206.727Z" fill="black"/>
<path d="M128.727 206.727H121.939V213.515H128.727V206.727Z" fill="black"/>
<path d="M135.515 206.727H128.727V213.515H135.515V206.727Z" fill="black"/>
<path d="M149.091 206.727H142.303V213.515H149.091V206.727Z" fill="black"/>
<path d="M162.667 206.727H155.879V213.515H162.667V206.727Z" fill="black"/>
<path d="M176.242 206.727H169.455V213.515H176.242V206.727Z" fill="black"/>
<path d="M189.818 206.727H183.03V213.515H189.818V206.727Z" fill="black"/>
<path d="M203.394 206.727H196.606V213.515H203.394V206.727Z" fill="black"/>
<path d="M216.97 206.727H210.182V213.515H216.97L216.97 206.727Z" fill="black"/>
<path d="M230.545 206.727H223.758V213.515H230.545V206.727Z" fill="black"/>
<path d="M244.121 206.727H237.333V213.515H244.121V206.727Z" fill="black"/>
<path d="M257.697 206.727H250.909V213.515H257.697V206.727Z" fill="black"/>
<path d="M271.273 206.727H264.485V213.515H271.273V206.727Z" fill="black"/>
<path d="M278.061 206.727H271.273V213.515H278.061V206.727Z" fill="black"/>
<path d="M284.848 206.727H278.061V213.515H284.848V206.727Z" fill="black"/>
<path d="M291.636 206.727H284.848V213.515H291.636V206.727Z" fill="black"/>
<path d="M298.424 206.727H291.636V213.515H298.424V206.727Z" fill="black"/>
<path d="M305.212 206.727H298.424V213.515H305.212V206.727Z" fill="black"/>
<path d="M312 206.727H305.212V213.515H312V206.727Z" fill="black"/>
<path d="M149.091 213.515H142.303V220.303H149.091V213.515Z" fill="black"/>
<path d="M162.667 213.515H155.879V220.303H162.667V213.515Z" fill="black"/>
<path d="M169.455 213.515H162.667V220.303H169.455V213.515Z" fill="black"/>
<path d="M176.242 213.515H169.455V220.303H176.242V213.515Z" fill="black"/>
<path d="M183.03 213.515H176.242V220.303H183.03V213.515Z" fill="black"/>
<path d="M203.394 213.515H196.606V220.303H203.394V213.515Z" fill="black"/>
<path d="M216.97 213.515H210.182V220.303H216.97V213.515Z" fill="black"/>
<path d="M223.758 213.515H216.97V220.303H223.758V213.515Z" fill="black"/>
<path d="M94.7879 220.303H88V227.091H94.7879V220.303Z" fill="black"/>
<path d="M101.576 220.303H94.7879V227.091H101.576V220.303Z" fill="black"/>
<path d="M115.152 220.303H108.364V227.091H115.152V220.303Z" fill="black"/>
<path d="M135.515 220.303H128.727V227.091H135.515V220.303Z" fill="black"/>
<path d="M142.303 220.303H135.515V227.091H142.303V220.303Z" fill="black"/>
<path d="M155.879 220.303H149.091V227.091H155.879V220.303Z" fill="black"/>
<path d="M162.667 220.303H155.879V227.091H162.667V220.303Z" fill="black"/>
<path d="M169.455 220.303H162.667V227.091H169.455V220.303Z" fill="black"/>
<path d="M203.394 220.303H196.606V227.091H203.394V220.303Z" fill="black"/>
<path d="M216.97 220.303H210.182V227.091H216.97V220.303Z" fill="black"/>
<path d="M230.545 220.303H223.758V227.091H230.545V220.303Z" fill="black"/>
<path d="M244.121 220.303H237.333V227.091H244.121V220.303Z" fill="black"/>
<path d="M250.909 220.303H244.121V227.091H250.909V220.303Z" fill="black"/>
<path d="M264.485 220.303H257.697V227.091H264.485V220.303Z" fill="black"/>
<path d="M271.273 220.303H264.485V227.091H271.273V220.303Z" fill="black"/>
<path d="M278.061 220.303H271.273V227.091H278.061V220.303Z" fill="black"/>
<path d="M291.636 220.303H284.848V227.091H291.636V220.303Z" fill="black"/>
<path d="M298.424 220.303H291.636V227.091H298.424V220.303Z" fill="black"/>
<path d="M312 220.303H305.212V227.091H312V220.303Z" fill="black"/>
<path d="M94.7879 227.091H88V233.879H94.7879V227.091Z" fill="black"/>
<path d="M108.364 227.091H101.576V233.879H108.364V227.091Z" fill="black"/>
<path d="M149.091 227.091H142.303V233.879H149.091V227.091Z" fill="black"/>
<path d="M155.879 227.091H149.091V233.879H155.879V227.091Z" fill="black"/>
<path d="M162.667 227.091H155.879V233.879H162.667V227.091Z" fill="black"/>
<path d="M183.03 227.091H176.242V233.879H183.03V227.091Z" fill="black"/>
<path d="M196.606 227.091H189.818V233.879H196.606V227.091Z" fill="black"/>
<path d="M203.394 227.091H196.606V233.879H203.394V227.091Z" fill="black"/>
<path d="M210.182 227.091H203.394V233.879H210.182V227.091Z" fill="black"/>
<path d="M216.97 227.091H210.182V233.879H216.97V227.091Z" fill="black"/>
<path d="M223.758 227.091H216.97V233.879H223.758V227.091Z" fill="black"/>
<path d="M230.545 227.091H223.758V233.879H230.545V227.091Z" fill="black"/>
<path d="M278.061 227.091H271.273V233.879H278.061V227.091Z" fill="black"/>
<path d="M284.848 227.091H278.061V233.879H284.848V227.091Z" fill="black"/>
<path d="M291.636 227.091H284.848V233.879H291.636V227.091Z" fill="black"/>
<path d="M298.424 227.091H291.636V233.879H298.424V227.091Z" fill="black"/>
<path d="M101.576 233.879H94.7879V240.667H101.576V233.879Z" fill="black"/>
<path d="M135.515 233.879H128.727V240.667H135.515V233.879Z" fill="black"/>
<path d="M142.303 233.879H135.515V240.667H142.303V233.879Z" fill="black"/>
<path d="M162.667 233.879H155.879V240.667H162.667V233.879Z" fill="black"/>
<path d="M183.03 233.879H176.242V240.667H183.03V233.879Z" fill="black"/>
<path d="M210.182 233.879H203.394V240.667H210.182V233.879Z" fill="black"/>
<path d="M237.333 233.879H230.545V240.667H237.333V233.879Z" fill="black"/>
<path d="M250.909 233.879H244.121V240.667H250.909V233.879Z" fill="black"/>
<path d="M257.697 233.879H250.909V240.667H257.697V233.879Z" fill="black"/>
<path d="M264.485 233.879H257.697V240.667H264.485V233.879Z" fill="black"/>
<path d="M271.273 233.879H264.485V240.667H271.273V233.879Z" fill="black"/>
<path d="M278.061 233.879H271.273V240.667H278.061V233.879Z" fill="black"/>
<path d="M291.636 233.879H284.848V240.667H291.636V233.879Z" fill="black"/>
<path d="M298.424 233.879H291.636V240.667H298.424V233.879Z" fill="black"/>
<path d="M305.212 233.879H298.424V240.667H305.212V233.879Z" fill="black"/>
<path d="M94.7879 240.667H88V247.455H94.7879V240.667Z" fill="black"/>
<path d="M108.364 240.667H101.576V247.455H108.364V240.667Z" fill="black"/>
<path d="M121.939 240.667H115.152V247.455H121.939V240.667Z" fill="black"/>
<path d="M149.091 240.667H142.303V247.455H149.091V240.667Z" fill="black"/>
<path d="M155.879 240.667H149.091V247.455H155.879V240.667Z" fill="black"/>
<path d="M169.455 240.667H162.667V247.455H169.455V240.667Z" fill="black"/>
<path d="M176.242 240.667H169.455V247.455H176.242V240.667Z" fill="black"/>
<path d="M183.03 240.667H176.242V247.455H183.03V240.667Z" fill="black"/>
<path d="M189.818 240.667H183.03V247.455H189.818V240.667Z" fill="black"/>
<path d="M203.394 240.667H196.606V247.455H203.394V240.667Z" fill="black"/>
<path d="M210.182 240.667H203.394V247.455H210.182V240.667Z" fill="black"/>
<path d="M230.545 240.667H223.758V247.455H230.545V240.667Z" fill="black"/>
<path d="M250.909 240.667H244.121V247.455H250.909V240.667Z" fill="black"/>
<path d="M278.061 240.667H271.273V247.455H278.061V240.667Z" fill="black"/>
<path d="M284.848 240.667H278.061V247.455H284.848V240.667Z" fill="black"/>
<path d="M291.636 240.667H284.848V247.455H291.636V240.667Z" fill="black"/>
<path d="M298.424 240.667H291.636V247.455H298.424V240.667Z" fill="black"/>
<path d="M305.212 240.667H298.424V247.455H305.212V240.667Z" fill="black"/>
<path d="M312 240.667H305.212V247.455H312V240.667Z" fill="black"/>
<path d="M101.576 247.455H94.7879V254.242H101.576V247.455Z" fill="black"/>
<path d="M108.364 247.455H101.576V254.242H108.364V247.455Z" fill="black"/>
<path d="M121.939 247.455H115.152V254.242H121.939V247.455Z" fill="black"/>
<path d="M128.727 247.455H121.939V254.242H128.727V247.455Z" fill="black"/>
<path d="M135.515 247.455H128.727V254.242H135.515V247.455Z" fill="black"/>
<path d="M142.303 247.455H135.515V254.242H142.303V247.455Z" fill="black"/>
<path d="M155.879 247.455H149.091V254.242H155.879V247.455Z" fill="black"/>
<path d="M169.455 247.455H162.667V254.242H169.455V247.455Z" fill="black"/>
<path d="M176.242 247.455H169.455V254.242H176.242V247.455Z" fill="black"/>
<path d="M183.03 247.455H176.242V254.242H183.03V247.455Z" fill="black"/>
<path d="M189.818 247.455H183.03V254.242H189.818V247.455Z" fill="black"/>
<path d="M210.182 247.455H203.394V254.242H210.182V247.455Z" fill="black"/>
<path d="M216.97 247.455H210.182V254.242H216.97V247.455Z" fill="black"/>
<path d="M223.758 247.455H216.97V254.242H223.758V247.455Z" fill="black"/>
<path d="M237.333 247.455H230.545V254.242H237.333V247.455Z" fill="black"/>
<path d="M257.697 247.455H250.909V254.242H257.697V247.455Z" fill="black"/>
<path d="M271.273 247.455H264.485V254.242H271.273V247.455Z" fill="black"/>
<path d="M278.061 247.455H271.273V254.242H278.061V247.455Z" fill="black"/>
<path d="M284.848 247.455H278.061V254.242H284.848V247.455Z" fill="black"/>
<path d="M298.424 247.455H291.636V254.242H298.424V247.455Z" fill="black"/>
<path d="M305.212 247.455H298.424V254.242H305.212V247.455Z" fill="black"/>
<path d="M94.7879 254.242H88V261.03H94.7879V254.242Z" fill="black"/>
<path d="M101.576 254.242H94.7879V261.03H101.576V254.242Z" fill="black"/>
<path d="M121.939 254.242H115.152V261.03H121.939V254.242Z" fill="black"/>
<path d="M149.091 254.242H142.303V261.03H149.091V254.242Z" fill="black"/>
<path d="M169.455 254.242H162.667V261.03H169.455V254.242Z" fill="black"/>
<path d="M183.03 254.242H176.242V261.03H183.03V254.242Z" fill="black"/>
<path d="M216.97 254.242H210.182V261.03H216.97V254.242Z" fill="black"/>
<path d="M223.758 254.242H216.97V261.03H223.758V254.242Z" fill="black"/>
<path d="M244.121 254.242H237.333V261.03H244.121V254.242Z" fill="black"/>
<path d="M278.061 254.242H271.273V261.03H278.061V254.242Z" fill="black"/>
<path d="M291.636 254.242H284.848V261.03H291.636V254.242Z" fill="black"/>
<path d="M298.424 254.242H291.636V261.03H298.424V254.242Z" fill="black"/>
<path d="M305.212 254.242H298.424V261.03H305.212V254.242Z" fill="black"/>
<path d="M312 254.242H305.212V261.03H312V254.242Z" fill="black"/>
<path d="M94.7879 261.03H88V267.818H94.7879V261.03Z" fill="black"/>
<path d="M115.152 261.03H108.364V267.818H115.152V261.03Z" fill="black"/>
<path d="M121.939 261.03H115.152V267.818H121.939V261.03Z" fill="black"/>
<path d="M128.727 261.03H121.939V267.818H128.727V261.03Z" fill="black"/>
<path d="M135.515 261.03H128.727V267.818H135.515V261.03Z" fill="black"/>
<path d="M149.091 261.03H142.303V267.818H149.091V261.03Z" fill="black"/>
<path d="M155.879 261.03H149.091V267.818H155.879V261.03Z" fill="black"/>
<path d="M162.667 261.03H155.879V267.818H162.667V261.03Z" fill="black"/>
<path d="M169.455 261.03H162.667V267.818H169.455V261.03Z" fill="black"/>
<path d="M196.606 261.03H189.818V267.818H196.606V261.03Z" fill="black"/>
<path d="M210.182 261.03H203.394V267.818H210.182V261.03Z" fill="black"/>
<path d="M216.97 261.03H210.182V267.818H216.97V261.03Z" fill="black"/>
<path d="M230.545 261.03H223.758V267.818H230.545V261.03Z" fill="black"/>
<path d="M250.909 261.03H244.121V267.818H250.909V261.03Z" fill="black"/>
<path d="M264.485 261.03H257.697V267.818H264.485V261.03Z" fill="black"/>
<path d="M271.273 261.03H264.485V267.818H271.273V261.03Z" fill="black"/>
<path d="M284.848 261.03H278.061V267.818H284.848V261.03Z" fill="black"/>
<path d="M305.212 261.03H298.424V267.818H305.212V261.03Z" fill="black"/>
<path d="M94.7879 267.818H88V274.606H94.7879V267.818Z" fill="black"/>
<path d="M115.152 267.818H108.364V274.606H115.152V267.818Z" fill="black"/>
<path d="M155.879 267.818H149.091V274.606H155.879V267.818Z" fill="black"/>
<path d="M169.455 267.818H162.667V274.606H169.455V267.818Z" fill="black"/>
<path d="M189.818 267.818H183.03V274.606H189.818V267.818Z" fill="black"/>
<path d="M203.394 267.818H196.606V274.606H203.394V267.818Z" fill="black"/>
<path d="M216.97 267.818H210.182V274.606H216.97V267.818Z" fill="black"/>
<path d="M223.758 267.818H216.97V274.606H223.758V267.818Z" fill="black"/>
<path d="M230.545 267.818H223.758V274.606H230.545V267.818Z" fill="black"/>
<path d="M237.333 267.818H230.545V274.606H237.333V267.818Z" fill="black"/>
<path d="M257.697 267.818H250.909V274.606H257.697V267.818Z" fill="black"/>
<path d="M284.848 267.818H278.061V274.606H284.848V267.818Z" fill="black"/>
<path d="M305.212 267.818H298.424V274.606H305.212V267.818Z" fill="black"/>
<path d="M312 267.818H305.212V274.606H312V267.818Z" fill="black"/>
<path d="M94.7879 274.606H88V281.394H94.7879V274.606Z" fill="black"/>
<path d="M101.576 274.606H94.7879V281.394H101.576V274.606Z" fill="black"/>
<path d="M115.152 274.606H108.364V281.394H115.152V274.606Z" fill="black"/>
<path d="M135.515 274.606H128.727V281.394H135.515V274.606Z" fill="black"/>
<path d="M149.091 274.606H142.303V281.394H149.091V274.606Z" fill="black"/>
<path d="M155.879 274.606H149.091V281.394H155.879V274.606Z" fill="black"/>
<path d="M162.667 274.606H155.879V281.394H162.667V274.606Z" fill="black"/>
<path d="M183.03 274.606H176.242V281.394H183.03V274.606Z" fill="black"/>
<path d="M189.818 274.606H183.03V281.394H189.818V274.606Z" fill="black"/>
<path d="M196.606 274.606H189.818V281.394H196.606V274.606Z" fill="black"/>
<path d="M203.394 274.606H196.606V281.394H203.394V274.606Z" fill="black"/>
<path d="M244.121 274.606H237.333V281.394H244.121V274.606Z" fill="black"/>
<path d="M250.909 274.606H244.121V281.394H250.909V274.606Z" fill="black"/>
<path d="M257.697 274.606H250.909V281.394H257.697V274.606Z" fill="black"/>
<path d="M264.485 274.606H257.697V281.394H264.485V274.606Z" fill="black"/>
<path d="M271.273 274.606H264.485V281.394H271.273V274.606Z" fill="black"/>
<path d="M305.212 274.606H298.424V281.394H305.212V274.606Z" fill="black"/>
<path d="M312 274.606H305.212V281.394H312V274.606Z" fill="black"/>
<path d="M94.7879 281.394H88V288.182H94.7879V281.394Z" fill="black"/>
<path d="M108.364 281.394H101.576V288.182H108.364V281.394Z" fill="black"/>
<path d="M121.939 281.394H115.152V288.182H121.939V281.394Z" fill="black"/>
<path d="M142.303 281.394H135.515V288.182H142.303V281.394Z" fill="black"/>
<path d="M162.667 281.394H155.879V288.182H162.667V281.394Z" fill="black"/>
<path d="M189.818 281.394H183.03V288.182H189.818V281.394Z" fill="black"/>
<path d="M210.182 281.394H203.394V288.182H210.182V281.394Z" fill="black"/>
<path d="M216.97 281.394H210.182V288.182H216.97V281.394Z" fill="black"/>
<path d="M237.333 281.394H230.545V288.182H237.333V281.394Z" fill="black"/>
<path d="M264.485 281.394H257.697V288.182H264.485V281.394Z" fill="black"/>
<path d="M284.848 281.394H278.061V288.182H284.848V281.394Z" fill="black"/>
<path d="M298.424 281.394H291.636V288.182H298.424V281.394Z" fill="black"/>
<path d="M305.212 281.394H298.424V288.182H305.212V281.394Z" fill="black"/>
<path d="M312 281.394H305.212V288.182H312V281.394Z" fill="black"/>
<path d="M94.7879 288.182H88V294.97H94.7879V288.182Z" fill="black"/>
<path d="M101.576 288.182H94.7879V294.97H101.576V288.182Z" fill="black"/>
<path d="M128.727 288.182H121.939V294.97H128.727V288.182Z" fill="black"/>
<path d="M135.515 288.182H128.727V294.97H135.515V288.182Z" fill="black"/>
<path d="M142.303 288.182H135.515V294.97H142.303V288.182Z" fill="black"/>
<path d="M149.091 288.182H142.303V294.97H149.091V288.182Z" fill="black"/>
<path d="M155.879 288.182H149.091V294.97H155.879V288.182Z" fill="black"/>
<path d="M169.455 288.182H162.667V294.97H169.455V288.182Z" fill="black"/>
<path d="M176.242 288.182H169.455V294.97H176.242V288.182Z" fill="black"/>
<path d="M183.03 288.182H176.242V294.97H183.03V288.182Z" fill="black"/>
<path d="M203.394 288.182H196.606V294.97H203.394V288.182Z" fill="black"/>
<path d="M210.182 288.182H203.394V294.97H210.182V288.182Z" fill="black"/>
<path d="M230.545 288.182H223.758V294.97H230.545V288.182Z" fill="black"/>
<path d="M237.333 288.182H230.545V294.97H237.333V288.182Z" fill="black"/>
<path d="M264.485 288.182H257.697V294.97H264.485V288.182Z" fill="black"/>
<path d="M291.636 288.182H284.848V294.97H291.636V288.182Z" fill="black"/>
<path d="M312 288.182H305.212V294.97H312V288.182Z" fill="black"/>
<path d="M115.152 294.97H108.364V301.758H115.152V294.97Z" fill="black"/>
<path d="M128.727 294.97H121.939V301.758H128.727V294.97Z" fill="black"/>
<path d="M149.091 294.97H142.303V301.758H149.091V294.97Z" fill="black"/>
<path d="M155.879 294.97H149.091V301.758H155.879V294.97Z" fill="black"/>
<path d="M169.455 294.97H162.667V301.758H169.455V294.97Z" fill="black"/>
<path d="M176.242 294.97H169.455V301.758H176.242V294.97Z" fill="black"/>
<path d="M196.606 294.97L189.818 294.97V301.758H196.606V294.97Z" fill="black"/>
<path d="M203.394 294.97H196.606V301.758H203.394V294.97Z" fill="black"/>
<path d="M223.758 294.97L216.97 294.97V301.758H223.758V294.97Z" fill="black"/>
<path d="M250.909 294.97H244.121V301.758H250.909V294.97Z" fill="black"/>
<path d="M264.485 294.97H257.697V301.758H264.485V294.97Z" fill="black"/>
<path d="M271.273 294.97L264.485 294.97V301.758H271.273V294.97Z" fill="black"/>
<path d="M278.061 294.97H271.273V301.758H278.061V294.97Z" fill="black"/>
<path d="M291.636 294.97H284.848V301.758H291.636V294.97Z" fill="black"/>
<path d="M298.424 294.97L291.636 294.97V301.758H298.424V294.97Z" fill="black"/>
<path d="M305.212 294.97L298.424 294.97V301.758H305.212V294.97Z" fill="black"/>
<path d="M94.7879 301.758H88V308.545H94.7879V301.758Z" fill="black"/>
<path d="M108.364 301.758H101.576V308.545H108.364V301.758Z" fill="black"/>
<path d="M115.152 301.758H108.364V308.545H115.152V301.758Z" fill="black"/>
<path d="M121.939 301.758H115.152V308.545H121.939V301.758Z" fill="black"/>
<path d="M128.727 301.758H121.939V308.545H128.727V301.758Z" fill="black"/>
<path d="M135.515 301.758H128.727V308.545H135.515V301.758Z" fill="black"/>
<path d="M142.303 301.758H135.515V308.545H142.303V301.758Z" fill="black"/>
<path d="M169.455 301.758H162.667V308.545H169.455V301.758Z" fill="black"/>
<path d="M196.606 301.758H189.818V308.545H196.606V301.758Z" fill="black"/>
<path d="M203.394 301.758H196.606V308.545H203.394V301.758Z" fill="black"/>
<path d="M210.182 301.758H203.394V308.545H210.182V301.758Z" fill="black"/>
<path d="M216.97 301.758H210.182V308.545H216.97L216.97 301.758Z" fill="black"/>
<path d="M230.545 301.758H223.758V308.545H230.545V301.758Z" fill="black"/>
<path d="M271.273 301.758H264.485V308.545H271.273V301.758Z" fill="black"/>
<path d="M284.848 301.758H278.061V308.545H284.848V301.758Z" fill="black"/>
<path d="M291.636 301.758H284.848V308.545H291.636V301.758Z" fill="black"/>
<path d="M101.576 308.545H94.7879V315.333H101.576V308.545Z" fill="black"/>
<path d="M108.364 308.545H101.576V315.333H108.364V308.545Z" fill="black"/>
<path d="M115.152 308.545H108.364V315.333H115.152V308.545Z" fill="black"/>
<path d="M121.939 308.545H115.152V315.333H121.939V308.545Z" fill="black"/>
<path d="M149.091 308.545H142.303V315.333H149.091V308.545Z" fill="black"/>
<path d="M155.879 308.545H149.091V315.333H155.879V308.545Z" fill="black"/>
<path d="M176.242 308.545H169.455V315.333H176.242V308.545Z" fill="black"/>
<path d="M196.606 308.545H189.818V315.333H196.606V308.545Z" fill="black"/>
<path d="M203.394 308.545H196.606V315.333H203.394V308.545Z" fill="black"/>
<path d="M210.182 308.545H203.394V315.333H210.182V308.545Z" fill="black"/>
<path d="M223.758 308.545H216.97L216.97 315.333H223.758V308.545Z" fill="black"/>
<path d="M237.333 308.545H230.545V315.333H237.333V308.545Z" fill="black"/>
<path d="M278.061 308.545H271.273V315.333H278.061V308.545Z" fill="black"/>
<path d="M291.636 308.545H284.848V315.333H291.636V308.545Z" fill="black"/>
<path d="M312 308.545H305.212V315.333H312V308.545Z" fill="black"/>
<path d="M101.576 315.333H94.7879V322.121H101.576V315.333Z" fill="black"/>
<path d="M108.364 315.333H101.576V322.121H108.364V315.333Z" fill="black"/>
<path d="M115.152 315.333H108.364V322.121H115.152V315.333Z" fill="black"/>
<path d="M128.727 315.333H121.939V322.121H128.727V315.333Z" fill="black"/>
<path d="M135.515 315.333H128.727V322.121H135.515V315.333Z" fill="black"/>
<path d="M183.03 315.333H176.242V322.121H183.03V315.333Z" fill="black"/>
<path d="M189.818 315.333H183.03V322.121H189.818V315.333Z" fill="black"/>
<path d="M196.606 315.333H189.818V322.121H196.606V315.333Z" fill="black"/>
<path d="M203.394 315.333H196.606V322.121H203.394V315.333Z" fill="black"/>
<path d="M216.97 315.333H210.182V322.121H216.97L216.97 315.333Z" fill="black"/>
<path d="M244.121 315.333H237.333V322.121H244.121V315.333Z" fill="black"/>
<path d="M250.909 315.333H244.121V322.121H250.909V315.333Z" fill="black"/>
<path d="M271.273 315.333H264.485V322.121H271.273V315.333Z" fill="black"/>
<path d="M278.061 315.333H271.273V322.121H278.061V315.333Z" fill="black"/>
<path d="M298.424 315.333H291.636V322.121H298.424V315.333Z" fill="black"/>
<path d="M94.7879 322.121H88V328.909H94.7879V322.121Z" fill="black"/>
<path d="M101.576 322.121H94.7879V328.909H101.576V322.121Z" fill="black"/>
<path d="M108.364 322.121H101.576V328.909H108.364V322.121Z" fill="black"/>
<path d="M121.939 322.121H115.152V328.909H121.939V322.121Z" fill="black"/>
<path d="M155.879 322.121H149.091V328.909H155.879V322.121Z" fill="black"/>
<path d="M162.667 322.121H155.879V328.909H162.667V322.121Z" fill="black"/>
<path d="M210.182 322.121H203.394V328.909H210.182V322.121Z" fill="black"/>
<path d="M244.121 322.121H237.333V328.909H244.121V322.121Z" fill="black"/>
<path d="M271.273 322.121H264.485V328.909H271.273V322.121Z" fill="black"/>
<path d="M278.061 322.121H271.273V328.909H278.061V322.121Z" fill="black"/>
<path d="M284.848 322.121H278.061V328.909H284.848V322.121Z" fill="black"/>
<path d="M298.424 322.121H291.636V328.909H298.424V322.121Z" fill="black"/>
<path d="M312 322.121H305.212V328.909H312V322.121Z" fill="black"/>
<path d="M101.576 328.909H94.7879V335.697H101.576V328.909Z" fill="black"/>
<path d="M115.152 328.909H108.364V335.697H115.152V328.909Z" fill="black"/>
<path d="M128.727 328.909H121.939V335.697H128.727V328.909Z" fill="black"/>
<path d="M135.515 328.909H128.727V335.697H135.515V328.909Z" fill="black"/>
<path d="M142.303 328.909H135.515V335.697H142.303V328.909Z" fill="black"/>
<path d="M162.667 328.909H155.879V335.697H162.667V328.909Z" fill="black"/>
<path d="M169.455 328.909H162.667V335.697H169.455V328.909Z" fill="black"/>
<path d="M176.242 328.909H169.455V335.697H176.242V328.909Z" fill="black"/>
<path d="M183.03 328.909H176.242V335.697H183.03V328.909Z" fill="black"/>
<path d="M196.606 328.909H189.818V335.697H196.606V328.909Z" fill="black"/>
<path d="M210.182 328.909H203.394V335.697H210.182V328.909Z" fill="black"/>
<path d="M223.758 328.909H216.97V335.697H223.758V328.909Z" fill="black"/>
<path d="M230.545 328.909H223.758V335.697H230.545V328.909Z" fill="black"/>
<path d="M257.697 328.909H250.909V335.697H257.697V328.909Z" fill="black"/>
<path d="M264.485 328.909H257.697V335.697H264.485V328.909Z" fill="black"/>
<path d="M271.273 328.909H264.485V335.697H271.273V328.909Z" fill="black"/>
<path d="M278.061 328.909H271.273V335.697H278.061V328.909Z" fill="black"/>
<path d="M284.848 328.909H278.061V335.697H284.848V328.909Z" fill="black"/>
<path d="M291.636 328.909H284.848V335.697H291.636V328.909Z" fill="black"/>
<path d="M305.212 328.909H298.424V335.697H305.212V328.909Z" fill="black"/>
<path d="M162.667 335.697H155.879V342.485H162.667V335.697Z" fill="black"/>
<path d="M176.242 335.697H169.455V342.485H176.242V335.697Z" fill="black"/>
<path d="M196.606 335.697H189.818V342.485H196.606V335.697Z" fill="black"/>
<path d="M203.394 335.697H196.606V342.485H203.394V335.697Z" fill="black"/>
<path d="M244.121 335.697H237.333V342.485H244.121V335.697Z" fill="black"/>
<path d="M257.697 335.697H250.909V342.485H257.697V335.697Z" fill="black"/>
<path d="M284.848 335.697H278.061V342.485H284.848V335.697Z" fill="black"/>
<path d="M291.636 335.697H284.848V342.485H291.636V335.697Z" fill="black"/>
<path d="M305.212 335.697H298.424V342.485H305.212V335.697Z" fill="black"/>
<path d="M94.7879 342.485H88V349.273H94.7879V342.485Z" fill="black"/>
<path d="M101.576 342.485H94.7879V349.273H101.576V342.485Z" fill="black"/>
<path d="M108.364 342.485H101.576V349.273H108.364V342.485Z" fill="black"/>
<path d="M115.152 342.485H108.364V349.273H115.152V342.485Z" fill="black"/>
<path d="M121.939 342.485H115.152V349.273H121.939V342.485Z" fill="black"/>
<path d="M128.727 342.485H121.939V349.273H128.727V342.485Z" fill="black"/>
<path d="M135.515 342.485H128.727V349.273H135.515V342.485Z" fill="black"/>
<path d="M149.091 342.485H142.303V349.273H149.091V342.485Z" fill="black"/>
<path d="M155.879 342.485H149.091V349.273H155.879V342.485Z" fill="black"/>
<path d="M162.667 342.485H155.879V349.273H162.667V342.485Z" fill="black"/>
<path d="M189.818 342.485H183.03V349.273H189.818V342.485Z" fill="black"/>
<path d="M196.606 342.485H189.818V349.273H196.606V342.485Z" fill="black"/>
<path d="M203.394 342.485H196.606V349.273H203.394V342.485Z" fill="black"/>
<path d="M210.182 342.485H203.394V349.273H210.182V342.485Z" fill="black"/>
<path d="M244.121 342.485H237.333V349.273H244.121V342.485Z" fill="black"/>
<path d="M257.697 342.485H250.909V349.273H257.697V342.485Z" fill="black"/>
<path d="M271.273 342.485H264.485V349.273H271.273V342.485Z" fill="black"/>
<path d="M284.848 342.485H278.061V349.273H284.848V342.485Z" fill="black"/>
<path d="M298.424 342.485H291.636V349.273H298.424V342.485Z" fill="black"/>
<path d="M305.212 342.485H298.424V349.273H305.212V342.485Z" fill="black"/>
<path d="M94.7879 349.273H88V356.061H94.7879V349.273Z" fill="black"/>
<path d="M135.515 349.273H128.727V356.061H135.515V349.273Z" fill="black"/>
<path d="M155.879 349.273H149.091V356.061H155.879V349.273Z" fill="black"/>
<path d="M162.667 349.273H155.879V356.061H162.667V349.273Z" fill="black"/>
<path d="M169.455 349.273H162.667V356.061H169.455V349.273Z" fill="black"/>
<path d="M176.242 349.273H169.455V356.061H176.242V349.273Z" fill="black"/>
<path d="M183.03 349.273H176.242V356.061H183.03V349.273Z" fill="black"/>
<path d="M216.97 349.273H210.182V356.061H216.97V349.273Z" fill="black"/>
<path d="M230.545 349.273H223.758V356.061H230.545V349.273Z" fill="black"/>
<path d="M244.121 349.273H237.333V356.061H244.121V349.273Z" fill="black"/>
<path d="M250.909 349.273H244.121V356.061H250.909V349.273Z" fill="black"/>
<path d="M257.697 349.273H250.909V356.061H257.697V349.273Z" fill="black"/>
<path d="M284.848 349.273H278.061V356.061H284.848V349.273Z" fill="black"/>
<path d="M291.636 349.273H284.848V356.061H291.636V349.273Z" fill="black"/>
<path d="M298.424 349.273H291.636V356.061H298.424V349.273Z" fill="black"/>
<path d="M305.212 349.273H298.424V356.061H305.212V349.273Z" fill="black"/>
<path d="M94.7879 356.061H88V362.848H94.7879V356.061Z" fill="black"/>
<path d="M108.364 356.061H101.576V362.848H108.364V356.061Z" fill="black"/>
<path d="M115.152 356.061H108.364V362.848H115.152V356.061Z" fill="black"/>
<path d="M121.939 356.061H115.152V362.848H121.939V356.061Z" fill="black"/>
<path d="M135.515 356.061H128.727V362.848H135.515V356.061Z" fill="black"/>
<path d="M162.667 356.061H155.879V362.848H162.667V356.061Z" fill="black"/>
<path d="M189.818 356.061H183.03V362.848H189.818V356.061Z" fill="black"/>
<path d="M203.394 356.061H196.606V362.848H203.394V356.061Z" fill="black"/>
<path d="M210.182 356.061H203.394V362.848H210.182V356.061Z" fill="black"/>
<path d="M216.97 356.061H210.182V362.848H216.97V356.061Z" fill="black"/>
<path d="M223.758 356.061H216.97V362.848H223.758V356.061Z" fill="black"/>
<path d="M230.545 356.061H223.758V362.848H230.545V356.061Z" fill="black"/>
<path d="M250.909 356.061H244.121V362.848H250.909V356.061Z" fill="black"/>
<path d="M257.697 356.061H250.909V362.848H257.697V356.061Z" fill="black"/>
<path d="M264.485 356.061H257.697V362.848H264.485V356.061Z" fill="black"/>
<path d="M271.273 356.061H264.485V362.848H271.273V356.061Z" fill="black"/>
<path d="M278.061 356.061H271.273V362.848H278.061V356.061Z" fill="black"/>
<path d="M284.848 356.061H278.061V362.848H284.848V356.061Z" fill="black"/>
<path d="M305.212 356.061H298.424V362.848H305.212V356.061Z" fill="black"/>
<path d="M312 356.061H305.212V362.848H312V356.061Z" fill="black"/>
<path d="M94.7879 362.848H88V369.636H94.7879V362.848Z" fill="black"/>
<path d="M108.364 362.848H101.576V369.636H108.364V362.848Z" fill="black"/>
<path d="M115.152 362.848H108.364V369.636H115.152V362.848Z" fill="black"/>
<path d="M121.939 362.848H115.152V369.636H121.939V362.848Z" fill="black"/>
<path d="M135.515 362.848H128.727V369.636H135.515V362.848Z" fill="black"/>
<path d="M149.091 362.848H142.303V369.636H149.091V362.848Z" fill="black"/>
<path d="M155.879 362.848H149.091V369.636H155.879V362.848Z" fill="black"/>
<path d="M162.667 362.848H155.879V369.636H162.667V362.848Z" fill="black"/>
<path d="M169.455 362.848H162.667V369.636H169.455V362.848Z" fill="black"/>
<path d="M176.242 362.848H169.455V369.636H176.242V362.848Z" fill="black"/>
<path d="M183.03 362.848H176.242V369.636H183.03V362.848Z" fill="black"/>
<path d="M189.818 362.848H183.03V369.636H189.818V362.848Z" fill="black"/>
<path d="M196.606 362.848H189.818V369.636H196.606V362.848Z" fill="black"/>
<path d="M210.182 362.848H203.394V369.636H210.182V362.848Z" fill="black"/>
<path d="M230.545 362.848H223.758V369.636H230.545V362.848Z" fill="black"/>
<path d="M244.121 362.848H237.333V369.636H244.121V362.848Z" fill="black"/>
<path d="M250.909 362.848H244.121V369.636H250.909V362.848Z" fill="black"/>
<path d="M264.485 362.848H257.697V369.636H264.485V362.848Z" fill="black"/>
<path d="M278.061 362.848H271.273V369.636H278.061V362.848Z" fill="black"/>
<path d="M94.7879 369.636H88V376.424H94.7879V369.636Z" fill="black"/>
<path d="M108.364 369.636H101.576V376.424H108.364V369.636Z" fill="black"/>
<path d="M115.152 369.636H108.364V376.424H115.152V369.636Z" fill="black"/>
<path d="M121.939 369.636H115.152V376.424H121.939V369.636Z" fill="black"/>
<path d="M135.515 369.636H128.727V376.424H135.515V369.636Z" fill="black"/>
<path d="M155.879 369.636H149.091V376.424H155.879V369.636Z" fill="black"/>
<path d="M183.03 369.636H176.242V376.424H183.03V369.636Z" fill="black"/>
<path d="M196.606 369.636H189.818V376.424H196.606V369.636Z" fill="black"/>
<path d="M216.97 369.636H210.182V376.424H216.97V369.636Z" fill="black"/>
<path d="M230.545 369.636H223.758V376.424H230.545V369.636Z" fill="black"/>
<path d="M237.333 369.636H230.545V376.424H237.333V369.636Z" fill="black"/>
<path d="M244.121 369.636H237.333V376.424H244.121V369.636Z" fill="black"/>
<path d="M278.061 369.636H271.273V376.424H278.061V369.636Z" fill="black"/>
<path d="M284.848 369.636H278.061V376.424H284.848V369.636Z" fill="black"/>
<path d="M291.636 369.636H284.848V376.424H291.636V369.636Z" fill="black"/>
<path d="M298.424 369.636H291.636V376.424H298.424V369.636Z" fill="black"/>
<path d="M94.7879 376.424H88V383.212H94.7879V376.424Z" fill="black"/>
<path d="M135.515 376.424H128.727V383.212H135.515V376.424Z" fill="black"/>
<path d="M149.091 376.424H142.303V383.212H149.091V376.424Z" fill="black"/>
<path d="M155.879 376.424H149.091V383.212H155.879V376.424Z" fill="black"/>
<path d="M162.667 376.424H155.879V383.212H162.667V376.424Z" fill="black"/>
<path d="M176.242 376.424H169.455V383.212H176.242V376.424Z" fill="black"/>
<path d="M183.03 376.424H176.242V383.212H183.03V376.424Z" fill="black"/>
<path d="M210.182 376.424H203.394V383.212H210.182V376.424Z" fill="black"/>
<path d="M216.97 376.424H210.182V383.212H216.97V376.424Z" fill="black"/>
<path d="M223.758 376.424H216.97V383.212H223.758V376.424Z" fill="black"/>
<path d="M230.545 376.424H223.758V383.212H230.545V376.424Z" fill="black"/>
<path d="M244.121 376.424H237.333V383.212H244.121V376.424Z" fill="black"/>
<path d="M250.909 376.424H244.121V383.212H250.909V376.424Z" fill="black"/>
<path d="M257.697 376.424H250.909V383.212H257.697V376.424Z" fill="black"/>
<path d="M284.848 376.424H278.061V383.212H284.848V376.424Z" fill="black"/>
<path d="M291.636 376.424H284.848V383.212H291.636V376.424Z" fill="black"/>
<path d="M94.7879 383.212H88V390H94.7879V383.212Z" fill="black"/>
<path d="M101.576 383.212H94.7879V390H101.576V383.212Z" fill="black"/>
<path d="M108.364 383.212H101.576V390H108.364V383.212Z" fill="black"/>
<path d="M115.152 383.212H108.364V390H115.152V383.212Z" fill="black"/>
<path d="M121.939 383.212H115.152V390H121.939V383.212Z" fill="black"/>
<path d="M128.727 383.212H121.939V390H128.727V383.212Z" fill="black"/>
<path d="M135.515 383.212H128.727V390H135.515V383.212Z" fill="black"/>
<path d="M149.091 383.212H142.303V390H149.091V383.212Z" fill="black"/>
<path d="M162.667 383.212H155.879V390H162.667V383.212Z" fill="black"/>
<path d="M210.182 383.212H203.394V390H210.182V383.212Z" fill="black"/>
<path d="M237.333 383.212H230.545V390H237.333V383.212Z" fill="black"/>
<path d="M244.121 383.212H237.333V390H244.121V383.212Z" fill="black"/>
<path d="M257.697 383.212H250.909V390H257.697V383.212Z" fill="black"/>
<path d="M264.485 383.212H257.697V390H264.485V383.212Z" fill="black"/>
<path d="M278.061 383.212H271.273V390H278.061V383.212Z" fill="black"/>
<path d="M284.848 383.212H278.061V390H284.848V383.212Z" fill="black"/>
<path d="M291.636 383.212H284.848V390H291.636V383.212Z" fill="black"/>
<path d="M305.212 383.212H298.424V390H305.212V383.212Z" fill="black"/>
</g>
<path d="M151.532 445.59C152.834 445.324 154.78 444.848 156.614 444.372L156.74 445.338C155.032 445.8 153.212 446.276 151.826 446.626L151.532 445.59ZM151.7 440.998H156.628V441.978H151.7V440.998ZM153.772 438.282H154.794V449.832C154.794 450.42 154.654 450.714 154.29 450.868C153.912 451.036 153.338 451.064 152.372 451.064C152.33 450.784 152.176 450.364 152.05 450.084C152.708 450.112 153.31 450.098 153.492 450.098C153.688 450.098 153.772 450.028 153.772 449.832V438.282ZM156.782 449.076H163.124V450.056H156.782V449.076ZM157.216 444.022H163.166V445.058H157.216V444.022ZM156.88 439.57H163.642V451.078H162.634V440.536H156.88V439.57ZM177.138 444.386H178.146C178.146 444.386 178.132 444.708 178.118 444.862C177.796 448.642 177.488 450.098 176.984 450.616C176.718 450.91 176.438 451.022 176.018 451.036C175.668 451.064 175.024 451.064 174.338 451.036C174.324 450.742 174.212 450.336 174.058 450.056C174.73 450.14 175.346 450.14 175.612 450.14C175.85 450.14 176.004 450.112 176.13 449.972C176.536 449.594 176.858 448.166 177.138 444.568V444.386ZM171.202 439.066H176.396V440.032H171.202V439.066ZM171.874 440.914L172.854 440.97C172.742 442.37 172.546 444.204 172.392 445.296H171.398C171.58 444.162 171.776 442.286 171.874 440.914ZM171.692 444.386H177.446V445.296H171.692V444.386ZM170.726 447.144H176.088V448.082H170.726V447.144ZM175.962 439.066H176.074L176.242 439.024L176.97 439.108C176.844 440.76 176.578 443.224 176.326 445.058L175.332 444.988C175.584 443.154 175.864 440.508 175.962 439.192V439.066ZM165.7 438.996H170.516V439.962H165.7V438.996ZM167.072 443.308H170.11V449.356H167.072V448.418H169.186V444.246H167.072V443.308ZM167.506 439.458L168.486 439.668C167.982 442.314 167.17 444.862 165.882 446.542C165.812 446.29 165.574 445.688 165.392 445.408C166.47 443.98 167.128 441.796 167.506 439.458ZM166.61 443.308H167.534V450.49H166.61V443.308ZM187.47 448.866H191.278V449.888H187.47V448.866ZM179.742 440.9H185.118V441.922H179.742V440.9ZM186.994 439.99H191.782V450.812H190.718V440.998H188.016V450.91H186.994V439.99ZM184.838 440.9H185.86C185.86 440.9 185.86 441.292 185.86 441.432C185.748 447.662 185.65 449.706 185.202 450.322C184.95 450.686 184.698 450.812 184.278 450.854C183.886 450.91 183.242 450.91 182.612 450.868C182.598 450.56 182.486 450.098 182.304 449.804C182.962 449.86 183.564 449.86 183.83 449.86C184.04 449.874 184.166 449.832 184.292 449.65C184.614 449.216 184.74 447.144 184.838 441.152V440.9ZM181.73 438.436H182.752C182.738 443.602 182.668 448.46 180.204 451.134C180.022 450.896 179.658 450.574 179.392 450.42C181.73 447.956 181.716 443.336 181.73 438.436ZM196.178 439.094H200.14V440.158H196.178V439.094ZM199.608 439.094H200.686C200.686 441.6 200.994 446.92 206.524 450.196C206.286 450.378 205.866 450.826 205.67 451.078C200.07 447.69 199.608 441.726 199.608 439.094ZM199.216 441.838L200.406 442.062C199.398 446.332 197.55 449.286 194.456 451.106C194.26 450.882 193.784 450.448 193.504 450.252C196.612 448.628 198.362 445.8 199.216 441.838ZM216.828 440.97H220.44V441.88H216.464L216.828 440.97ZM216.912 438.24L217.892 438.394C217.514 440.858 216.842 443.196 215.778 444.736C215.638 444.526 215.288 444.12 215.078 443.938C216.058 442.58 216.604 440.466 216.912 438.24ZM212.866 438.24H213.678V442.65H212.866V438.24ZM211.088 439.458H211.83V442.16H214.77V439.458H215.54V443.042H211.088V439.458ZM210.822 444.47H215.708V445.366H210.822V444.47ZM213.356 448.656C214.084 448.46 215.092 448.11 216.142 447.76L216.282 448.544C215.358 448.894 214.448 449.258 213.65 449.566L213.356 448.656ZM213.902 444.876H214.784V448.656L213.902 448.922V444.876ZM217.024 441.782C217.486 445.548 218.494 448.978 220.706 450.294C220.482 450.49 220.174 450.854 220.02 451.12C217.738 449.566 216.758 445.996 216.282 441.894L217.024 441.782ZM218.928 441.46L219.852 441.544C219.404 446.108 218.382 449.188 215.61 451.12C215.512 450.938 215.204 450.532 215.022 450.336C217.654 448.642 218.564 445.674 218.928 441.46ZM211.802 445.002H212.67V446.108C212.67 447.41 212.516 449.3 211.06 450.742C210.92 450.518 210.64 450.196 210.43 450.042C211.704 448.768 211.802 447.242 211.802 446.08V445.002ZM209.772 438.24L210.724 438.604C210.038 439.724 208.946 440.984 207.952 441.824C207.826 441.614 207.546 441.222 207.378 441.04C208.274 440.312 209.268 439.164 209.772 438.24ZM210.066 441.054L210.99 441.376C210.192 443.028 208.974 444.792 207.84 445.94C207.728 445.73 207.406 445.24 207.224 445.03C208.274 444.022 209.366 442.524 210.066 441.054ZM209.058 443.602L210.01 442.636V442.664V451.106H209.058V443.602ZM226.656 438.912H233.138V439.766H226.656V438.912ZM226.488 442.79H233.39V443.658H226.488V442.79ZM226.488 444.736H233.362V445.604H226.488V444.736ZM226.894 449.594H232.97V450.462H226.894V449.594ZM225.34 440.844H234.454V441.726H225.34V440.844ZM226.348 446.682H233.516V451.078H232.466V447.536H227.356V451.12H226.348V446.682ZM224.864 438.282L225.858 438.59C224.906 440.956 223.408 443.308 221.854 444.862C221.756 444.624 221.462 444.078 221.266 443.826C222.68 442.496 224.052 440.41 224.864 438.282ZM223.408 441.894L224.402 440.9L224.416 440.914V451.092H223.408V441.894ZM242.42 440.97H248.174V441.936H242.42V440.97ZM242.616 443.84H247.936V444.82H242.616V443.84ZM242.098 446.85H248.496V447.844H242.098V446.85ZM242.602 438.632L243.428 438.352C243.904 439.052 244.324 439.99 244.464 440.62L243.554 440.97C243.428 440.326 243.036 439.36 242.602 438.632ZM246.9 438.226L247.922 438.478C247.53 439.318 247.11 440.284 246.746 440.914L245.878 440.676C246.228 440.018 246.69 438.968 246.9 438.226ZM244.73 441.432H245.752V451.134H244.73V441.432ZM235.602 441.264H242.266V442.174H235.602V441.264ZM236.33 438.954H241.44V444.47H236.246V443.56H240.46V439.864H236.33V438.954ZM237.072 445.926H238.038V451.134H237.072V445.926ZM237.464 445.926H241.636V450.378H237.464V449.44H240.6V446.85H237.464V445.926ZM238.066 439.276L239.074 439.332C238.78 443.434 238.094 446.584 236.092 448.628C235.966 448.418 235.602 447.998 235.378 447.802C237.254 446.038 237.828 443.014 238.066 439.276Z" fill="#666666"/>
<path d="M104.55 463.455C104.499 463.023 104.292 462.688 103.928 462.449C103.564 462.21 103.118 462.091 102.59 462.091C102.204 462.091 101.866 462.153 101.576 462.278C101.289 462.403 101.064 462.575 100.903 462.794C100.743 463.013 100.664 463.261 100.664 463.54C100.664 463.773 100.719 463.973 100.83 464.141C100.944 464.305 101.089 464.443 101.265 464.554C101.441 464.662 101.626 464.751 101.819 464.822C102.012 464.891 102.189 464.946 102.351 464.989L103.238 465.227C103.465 465.287 103.718 465.369 103.996 465.474C104.278 465.58 104.546 465.723 104.802 465.905C105.06 466.084 105.273 466.314 105.441 466.595C105.608 466.876 105.692 467.222 105.692 467.631C105.692 468.102 105.569 468.528 105.322 468.909C105.077 469.29 104.719 469.592 104.248 469.817C103.779 470.041 103.209 470.153 102.539 470.153C101.914 470.153 101.373 470.053 100.915 469.851C100.461 469.649 100.103 469.368 99.8414 469.007C99.5829 468.646 99.4366 468.227 99.4025 467.75H100.493C100.522 468.08 100.633 468.352 100.826 468.568C101.022 468.781 101.269 468.94 101.567 469.045C101.868 469.148 102.192 469.199 102.539 469.199C102.942 469.199 103.305 469.134 103.626 469.003C103.947 468.869 104.201 468.685 104.388 468.449C104.576 468.21 104.67 467.932 104.67 467.614C104.67 467.324 104.589 467.088 104.427 466.906C104.265 466.724 104.052 466.577 103.787 466.463C103.523 466.349 103.238 466.25 102.931 466.165L101.857 465.858C101.175 465.662 100.635 465.382 100.238 465.018C99.84 464.655 99.6412 464.179 99.6412 463.591C99.6412 463.102 99.7733 462.676 100.037 462.312C100.305 461.946 100.662 461.662 101.111 461.46C101.563 461.256 102.067 461.153 102.624 461.153C103.187 461.153 103.687 461.254 104.124 461.456C104.562 461.655 104.908 461.928 105.164 462.274C105.422 462.621 105.559 463.014 105.573 463.455H104.55ZM109.953 470.136C109.339 470.136 108.811 469.991 108.367 469.702C107.924 469.412 107.583 469.013 107.345 468.504C107.106 467.996 106.987 467.415 106.987 466.761C106.987 466.097 107.109 465.51 107.353 465.001C107.6 464.49 107.944 464.091 108.384 463.804C108.828 463.514 109.345 463.369 109.936 463.369C110.396 463.369 110.811 463.455 111.18 463.625C111.549 463.795 111.852 464.034 112.088 464.341C112.323 464.648 112.47 465.006 112.526 465.415H111.521C111.444 465.116 111.274 464.852 111.009 464.622C110.748 464.389 110.396 464.273 109.953 464.273C109.561 464.273 109.217 464.375 108.921 464.58C108.629 464.781 108.4 465.067 108.235 465.436C108.073 465.803 107.992 466.233 107.992 466.727C107.992 467.233 108.072 467.673 108.231 468.048C108.393 468.423 108.62 468.714 108.913 468.922C109.208 469.129 109.555 469.233 109.953 469.233C110.214 469.233 110.451 469.188 110.664 469.097C110.877 469.006 111.058 468.875 111.205 468.705C111.353 468.534 111.458 468.33 111.521 468.091H112.526C112.47 468.477 112.329 468.825 112.105 469.135C111.883 469.442 111.589 469.686 111.222 469.868C110.859 470.047 110.436 470.136 109.953 470.136ZM115.923 470.153C115.508 470.153 115.132 470.075 114.794 469.919C114.455 469.76 114.187 469.531 113.988 469.233C113.789 468.932 113.69 468.568 113.69 468.142C113.69 467.767 113.764 467.463 113.911 467.23C114.059 466.994 114.257 466.81 114.504 466.676C114.751 466.543 115.024 466.443 115.322 466.378C115.623 466.31 115.926 466.256 116.23 466.216C116.627 466.165 116.95 466.126 117.197 466.101C117.447 466.072 117.629 466.026 117.742 465.96C117.859 465.895 117.917 465.781 117.917 465.619V465.585C117.917 465.165 117.802 464.838 117.572 464.605C117.345 464.372 116.999 464.256 116.536 464.256C116.056 464.256 115.68 464.361 115.407 464.571C115.134 464.781 114.943 465.006 114.832 465.244L113.877 464.903C114.048 464.506 114.275 464.196 114.559 463.974C114.846 463.75 115.159 463.594 115.497 463.506C115.838 463.415 116.173 463.369 116.502 463.369C116.713 463.369 116.954 463.395 117.227 463.446C117.502 463.494 117.768 463.595 118.024 463.749C118.282 463.902 118.497 464.134 118.667 464.443C118.838 464.753 118.923 465.168 118.923 465.688V470H117.917V469.114H117.866C117.798 469.256 117.684 469.408 117.525 469.57C117.366 469.732 117.154 469.869 116.89 469.983C116.626 470.097 116.303 470.153 115.923 470.153ZM116.076 469.25C116.474 469.25 116.809 469.172 117.082 469.016C117.357 468.859 117.565 468.658 117.704 468.411C117.846 468.163 117.917 467.903 117.917 467.631V466.71C117.874 466.761 117.781 466.808 117.636 466.851C117.494 466.891 117.329 466.926 117.142 466.957C116.957 466.986 116.776 467.011 116.6 467.034C116.427 467.054 116.286 467.071 116.178 467.085C115.917 467.119 115.673 467.175 115.445 467.251C115.221 467.325 115.039 467.437 114.9 467.588C114.764 467.736 114.695 467.937 114.695 468.193C114.695 468.543 114.825 468.807 115.083 468.986C115.345 469.162 115.676 469.25 116.076 469.25ZM121.764 466.062V470H120.758V463.455H121.73V464.477H121.815C121.969 464.145 122.202 463.878 122.514 463.676C122.827 463.472 123.23 463.369 123.724 463.369C124.167 463.369 124.555 463.46 124.888 463.642C125.22 463.821 125.479 464.094 125.663 464.46C125.848 464.824 125.94 465.284 125.94 465.841V470H124.934V465.909C124.934 465.395 124.801 464.994 124.534 464.707C124.267 464.418 123.9 464.273 123.434 464.273C123.113 464.273 122.827 464.342 122.574 464.482C122.324 464.621 122.126 464.824 121.981 465.091C121.836 465.358 121.764 465.682 121.764 466.062ZM134.46 467.273H135.619L136.59 468.551L136.846 468.892L138.295 470.818H137.136L136.181 469.54L135.943 469.216L134.46 467.273ZM138.653 465.636C138.653 466.557 138.487 467.352 138.154 468.023C137.822 468.693 137.366 469.21 136.786 469.574C136.207 469.938 135.545 470.119 134.801 470.119C134.056 470.119 133.394 469.938 132.815 469.574C132.235 469.21 131.779 468.693 131.447 468.023C131.115 467.352 130.948 466.557 130.948 465.636C130.948 464.716 131.115 463.92 131.447 463.25C131.779 462.58 132.235 462.062 132.815 461.699C133.394 461.335 134.056 461.153 134.801 461.153C135.545 461.153 136.207 461.335 136.786 461.699C137.366 462.062 137.822 462.58 138.154 463.25C138.487 463.92 138.653 464.716 138.653 465.636ZM137.63 465.636C137.63 464.881 137.504 464.243 137.251 463.723C137.001 463.203 136.661 462.81 136.232 462.543C135.806 462.276 135.329 462.142 134.801 462.142C134.272 462.142 133.794 462.276 133.365 462.543C132.938 462.81 132.599 463.203 132.346 463.723C132.096 464.243 131.971 464.881 131.971 465.636C131.971 466.392 132.096 467.03 132.346 467.55C132.599 468.07 132.938 468.463 133.365 468.73C133.794 468.997 134.272 469.131 134.801 469.131C135.329 469.131 135.806 468.997 136.232 468.73C136.661 468.463 137.001 468.07 137.251 467.55C137.504 467.03 137.63 466.392 137.63 465.636ZM140.43 470V461.273H143.379C144.061 461.273 144.62 461.389 145.058 461.622C145.495 461.852 145.819 462.169 146.029 462.572C146.24 462.976 146.345 463.435 146.345 463.949C146.345 464.463 146.24 464.919 146.029 465.317C145.819 465.714 145.497 466.027 145.062 466.254C144.627 466.479 144.072 466.591 143.396 466.591H141.009V465.636H143.362C143.828 465.636 144.203 465.568 144.487 465.432C144.774 465.295 144.981 465.102 145.109 464.852C145.24 464.599 145.305 464.298 145.305 463.949C145.305 463.599 145.24 463.294 145.109 463.033C144.978 462.771 144.769 462.57 144.482 462.428C144.195 462.283 143.816 462.21 143.345 462.21H141.487V470H140.43ZM144.538 466.08L146.686 470H145.458L143.345 466.08H144.538ZM154.003 470.136C153.39 470.136 152.861 469.991 152.418 469.702C151.975 469.412 151.634 469.013 151.395 468.504C151.157 467.996 151.037 467.415 151.037 466.761C151.037 466.097 151.16 465.51 151.404 465.001C151.651 464.49 151.995 464.091 152.435 463.804C152.878 463.514 153.395 463.369 153.986 463.369C154.447 463.369 154.861 463.455 155.231 463.625C155.6 463.795 155.903 464.034 156.138 464.341C156.374 464.648 156.52 465.006 156.577 465.415H155.572C155.495 465.116 155.324 464.852 155.06 464.622C154.799 464.389 154.447 464.273 154.003 464.273C153.611 464.273 153.268 464.375 152.972 464.58C152.68 464.781 152.451 465.067 152.286 465.436C152.124 465.803 152.043 466.233 152.043 466.727C152.043 467.233 152.123 467.673 152.282 468.048C152.444 468.423 152.671 468.714 152.964 468.922C153.259 469.129 153.606 469.233 154.003 469.233C154.265 469.233 154.502 469.188 154.715 469.097C154.928 469.006 155.108 468.875 155.256 468.705C155.404 468.534 155.509 468.33 155.572 468.091H156.577C156.52 468.477 156.38 468.825 156.155 469.135C155.934 469.442 155.64 469.686 155.273 469.868C154.91 470.047 154.486 470.136 154.003 470.136ZM160.706 470.136C160.116 470.136 159.597 469.996 159.151 469.714C158.708 469.433 158.361 469.04 158.111 468.534C157.864 468.028 157.741 467.437 157.741 466.761C157.741 466.08 157.864 465.484 158.111 464.976C158.361 464.467 158.708 464.072 159.151 463.791C159.597 463.51 160.116 463.369 160.706 463.369C161.297 463.369 161.814 463.51 162.258 463.791C162.704 464.072 163.05 464.467 163.297 464.976C163.547 465.484 163.672 466.08 163.672 466.761C163.672 467.437 163.547 468.028 163.297 468.534C163.05 469.04 162.704 469.433 162.258 469.714C161.814 469.996 161.297 470.136 160.706 470.136ZM160.706 469.233C161.155 469.233 161.525 469.118 161.814 468.888C162.104 468.658 162.319 468.355 162.458 467.98C162.597 467.605 162.667 467.199 162.667 466.761C162.667 466.324 162.597 465.916 162.458 465.538C162.319 465.161 162.104 464.855 161.814 464.622C161.525 464.389 161.155 464.273 160.706 464.273C160.258 464.273 159.888 464.389 159.599 464.622C159.309 464.855 159.094 465.161 158.955 465.538C158.816 465.916 158.746 466.324 158.746 466.761C158.746 467.199 158.816 467.605 158.955 467.98C159.094 468.355 159.309 468.658 159.599 468.888C159.888 469.118 160.258 469.233 160.706 469.233ZM167.679 470.136C167.134 470.136 166.652 469.999 166.235 469.723C165.817 469.445 165.49 469.053 165.254 468.547C165.019 468.038 164.901 467.438 164.901 466.744C164.901 466.057 165.019 465.46 165.254 464.955C165.49 464.449 165.818 464.058 166.239 463.783C166.659 463.507 167.145 463.369 167.696 463.369C168.122 463.369 168.459 463.44 168.706 463.582C168.956 463.722 169.146 463.881 169.277 464.06C169.411 464.236 169.514 464.381 169.588 464.494H169.673V461.273H170.679V470H169.708V468.994H169.588C169.514 469.114 169.409 469.264 169.273 469.446C169.137 469.625 168.942 469.786 168.689 469.928C168.436 470.067 168.1 470.136 167.679 470.136ZM167.816 469.233C168.219 469.233 168.56 469.128 168.838 468.918C169.117 468.705 169.328 468.411 169.473 468.036C169.618 467.658 169.691 467.222 169.691 466.727C169.691 466.239 169.619 465.811 169.477 465.445C169.335 465.075 169.125 464.788 168.847 464.584C168.568 464.376 168.225 464.273 167.816 464.273C167.389 464.273 167.034 464.382 166.75 464.601C166.469 464.817 166.257 465.111 166.115 465.483C165.976 465.852 165.906 466.267 165.906 466.727C165.906 467.193 165.977 467.616 166.119 467.997C166.264 468.375 166.477 468.676 166.759 468.901C167.043 469.122 167.395 469.233 167.816 469.233ZM175.405 470.136C174.774 470.136 174.23 469.997 173.773 469.719C173.318 469.438 172.968 469.045 172.72 468.543C172.476 468.037 172.354 467.449 172.354 466.778C172.354 466.108 172.476 465.517 172.72 465.006C172.968 464.491 173.311 464.091 173.752 463.804C174.195 463.514 174.712 463.369 175.303 463.369C175.644 463.369 175.98 463.426 176.313 463.54C176.645 463.653 176.948 463.838 177.22 464.094C177.493 464.347 177.71 464.682 177.872 465.099C178.034 465.517 178.115 466.031 178.115 466.642V467.068H173.07V466.199H177.093C177.093 465.83 177.019 465.5 176.871 465.21C176.726 464.92 176.519 464.692 176.249 464.524C175.982 464.357 175.666 464.273 175.303 464.273C174.902 464.273 174.556 464.372 174.263 464.571C173.973 464.767 173.75 465.023 173.594 465.338C173.438 465.653 173.36 465.991 173.36 466.352V466.932C173.36 467.426 173.445 467.845 173.615 468.189C173.789 468.53 174.029 468.79 174.335 468.969C174.642 469.145 174.999 469.233 175.405 469.233C175.669 469.233 175.908 469.196 176.121 469.122C176.337 469.045 176.523 468.932 176.679 468.781C176.835 468.628 176.956 468.437 177.041 468.21L178.013 468.483C177.911 468.812 177.739 469.102 177.497 469.352C177.256 469.599 176.958 469.793 176.602 469.932C176.247 470.068 175.848 470.136 175.405 470.136ZM185.867 463.455V464.307H182.475V463.455H185.867ZM183.463 461.886H184.469V468.125C184.469 468.409 184.51 468.622 184.593 468.764C184.678 468.903 184.786 468.997 184.916 469.045C185.05 469.091 185.191 469.114 185.338 469.114C185.449 469.114 185.54 469.108 185.611 469.097C185.682 469.082 185.739 469.071 185.781 469.062L185.986 469.966C185.918 469.991 185.823 470.017 185.7 470.043C185.578 470.071 185.423 470.085 185.236 470.085C184.952 470.085 184.673 470.024 184.401 469.902C184.131 469.78 183.906 469.594 183.727 469.344C183.551 469.094 183.463 468.778 183.463 468.398V461.886ZM189.968 470.136C189.377 470.136 188.859 469.996 188.413 469.714C187.97 469.433 187.623 469.04 187.373 468.534C187.126 468.028 187.002 467.437 187.002 466.761C187.002 466.08 187.126 465.484 187.373 464.976C187.623 464.467 187.97 464.072 188.413 463.791C188.859 463.51 189.377 463.369 189.968 463.369C190.559 463.369 191.076 463.51 191.519 463.791C191.965 464.072 192.312 464.467 192.559 464.976C192.809 465.484 192.934 466.08 192.934 466.761C192.934 467.437 192.809 468.028 192.559 468.534C192.312 469.04 191.965 469.433 191.519 469.714C191.076 469.996 190.559 470.136 189.968 470.136ZM189.968 469.233C190.417 469.233 190.786 469.118 191.076 468.888C191.366 468.658 191.58 468.355 191.72 467.98C191.859 467.605 191.928 467.199 191.928 466.761C191.928 466.324 191.859 465.916 191.72 465.538C191.58 465.161 191.366 464.855 191.076 464.622C190.786 464.389 190.417 464.273 189.968 464.273C189.519 464.273 189.15 464.389 188.86 464.622C188.57 464.855 188.356 465.161 188.217 465.538C188.078 465.916 188.008 466.324 188.008 466.761C188.008 467.199 188.078 467.605 188.217 467.98C188.356 468.355 188.57 468.658 188.86 468.888C189.15 469.118 189.519 469.233 189.968 469.233ZM197.844 463.455H198.85V470.477C198.85 470.881 198.78 471.23 198.641 471.526C198.505 471.821 198.297 472.05 198.019 472.212C197.743 472.374 197.395 472.455 196.975 472.455C196.941 472.455 196.907 472.455 196.873 472.455C196.839 472.455 196.805 472.455 196.77 472.455V471.517C196.805 471.517 196.836 471.517 196.864 471.517C196.893 471.517 196.924 471.517 196.958 471.517C197.265 471.517 197.489 471.426 197.631 471.244C197.773 471.065 197.844 470.81 197.844 470.477V463.455ZM198.339 462.364C198.143 462.364 197.974 462.297 197.831 462.163C197.692 462.03 197.623 461.869 197.623 461.682C197.623 461.494 197.692 461.334 197.831 461.2C197.974 461.067 198.143 461 198.339 461C198.535 461 198.702 461.067 198.841 461.2C198.983 461.334 199.055 461.494 199.055 461.682C199.055 461.869 198.983 462.03 198.841 462.163C198.702 462.297 198.535 462.364 198.339 462.364ZM203.351 470.136C202.76 470.136 202.242 469.996 201.796 469.714C201.352 469.433 201.006 469.04 200.756 468.534C200.509 468.028 200.385 467.437 200.385 466.761C200.385 466.08 200.509 465.484 200.756 464.976C201.006 464.467 201.352 464.072 201.796 463.791C202.242 463.51 202.76 463.369 203.351 463.369C203.942 463.369 204.459 463.51 204.902 463.791C205.348 464.072 205.695 464.467 205.942 464.976C206.192 465.484 206.317 466.08 206.317 466.761C206.317 467.437 206.192 468.028 205.942 468.534C205.695 469.04 205.348 469.433 204.902 469.714C204.459 469.996 203.942 470.136 203.351 470.136ZM203.351 469.233C203.8 469.233 204.169 469.118 204.459 468.888C204.749 468.658 204.963 468.355 205.102 467.98C205.242 467.605 205.311 467.199 205.311 466.761C205.311 466.324 205.242 465.916 205.102 465.538C204.963 465.161 204.749 464.855 204.459 464.622C204.169 464.389 203.8 464.273 203.351 464.273C202.902 464.273 202.533 464.389 202.243 464.622C201.953 464.855 201.739 465.161 201.6 465.538C201.46 465.916 201.391 466.324 201.391 466.761C201.391 467.199 201.46 467.605 201.6 467.98C201.739 468.355 201.953 468.658 202.243 468.888C202.533 469.118 202.902 469.233 203.351 469.233ZM207.852 470V463.455H208.858V470H207.852ZM208.363 462.364C208.167 462.364 207.998 462.297 207.856 462.163C207.717 462.03 207.648 461.869 207.648 461.682C207.648 461.494 207.717 461.334 207.856 461.2C207.998 461.067 208.167 461 208.363 461C208.559 461 208.727 461.067 208.866 461.2C209.008 461.334 209.079 461.494 209.079 461.682C209.079 461.869 209.008 462.03 208.866 462.163C208.727 462.297 208.559 462.364 208.363 462.364ZM211.705 466.062V470H210.7V463.455H211.671V464.477H211.757C211.91 464.145 212.143 463.878 212.455 463.676C212.768 463.472 213.171 463.369 213.666 463.369C214.109 463.369 214.497 463.46 214.829 463.642C215.161 463.821 215.42 464.094 215.605 464.46C215.789 464.824 215.882 465.284 215.882 465.841V470H214.876V465.909C214.876 465.395 214.742 464.994 214.475 464.707C214.208 464.418 213.842 464.273 213.376 464.273C213.055 464.273 212.768 464.342 212.515 464.482C212.265 464.621 212.068 464.824 211.923 465.091C211.778 465.358 211.705 465.682 211.705 466.062ZM222.816 470L220.43 461.273H221.503L223.327 468.381H223.412L225.27 461.273H226.464L228.322 468.381H228.407L230.231 461.273H231.305L228.918 470H227.827L225.901 463.045H225.833L223.907 470H222.816ZM234.62 470.136C233.989 470.136 233.445 469.997 232.988 469.719C232.533 469.438 232.182 469.045 231.935 468.543C231.691 468.037 231.569 467.449 231.569 466.778C231.569 466.108 231.691 465.517 231.935 465.006C232.182 464.491 232.526 464.091 232.966 463.804C233.41 463.514 233.927 463.369 234.518 463.369C234.858 463.369 235.195 463.426 235.528 463.54C235.86 463.653 236.162 463.838 236.435 464.094C236.708 464.347 236.925 464.682 237.087 465.099C237.249 465.517 237.33 466.031 237.33 466.642V467.068H232.285V466.199H236.307C236.307 465.83 236.233 465.5 236.086 465.21C235.941 464.92 235.733 464.692 235.464 464.524C235.197 464.357 234.881 464.273 234.518 464.273C234.117 464.273 233.77 464.372 233.478 464.571C233.188 464.767 232.965 465.023 232.809 465.338C232.653 465.653 232.574 465.991 232.574 466.352V466.932C232.574 467.426 232.66 467.845 232.83 468.189C233.003 468.53 233.243 468.79 233.55 468.969C233.857 469.145 234.214 469.233 234.62 469.233C234.884 469.233 235.123 469.196 235.336 469.122C235.552 469.045 235.738 468.932 235.894 468.781C236.05 468.628 236.171 468.437 236.256 468.21L237.228 468.483C237.126 468.812 236.954 469.102 236.712 469.352C236.471 469.599 236.172 469.793 235.817 469.932C235.462 470.068 235.063 470.136 234.62 470.136ZM246.019 464H244.962C244.9 463.696 244.79 463.429 244.634 463.199C244.481 462.969 244.293 462.776 244.072 462.619C243.853 462.46 243.61 462.341 243.343 462.261C243.076 462.182 242.797 462.142 242.508 462.142C241.979 462.142 241.501 462.276 241.072 462.543C240.645 462.81 240.306 463.203 240.053 463.723C239.803 464.243 239.678 464.881 239.678 465.636C239.678 466.392 239.803 467.03 240.053 467.55C240.306 468.07 240.645 468.463 241.072 468.73C241.501 468.997 241.979 469.131 242.508 469.131C242.797 469.131 243.076 469.091 243.343 469.011C243.61 468.932 243.853 468.814 244.072 468.658C244.293 468.499 244.481 468.304 244.634 468.074C244.79 467.841 244.9 467.574 244.962 467.273H246.019C245.939 467.719 245.795 468.118 245.584 468.47C245.374 468.822 245.113 469.122 244.8 469.369C244.488 469.614 244.137 469.8 243.748 469.928C243.361 470.055 242.948 470.119 242.508 470.119C241.763 470.119 241.101 469.938 240.522 469.574C239.942 469.21 239.486 468.693 239.154 468.023C238.822 467.352 238.655 466.557 238.655 465.636C238.655 464.716 238.822 463.92 239.154 463.25C239.486 462.58 239.942 462.062 240.522 461.699C241.101 461.335 241.763 461.153 242.508 461.153C242.948 461.153 243.361 461.217 243.748 461.345C244.137 461.473 244.488 461.661 244.8 461.908C245.113 462.152 245.374 462.45 245.584 462.803C245.795 463.152 245.939 463.551 246.019 464ZM248.596 466.062V470H247.59V461.273H248.596V464.477H248.681C248.835 464.139 249.065 463.871 249.372 463.672C249.681 463.47 250.093 463.369 250.607 463.369C251.053 463.369 251.444 463.459 251.779 463.638C252.115 463.814 252.374 464.085 252.559 464.452C252.747 464.815 252.84 465.278 252.84 465.841V470H251.835V465.909C251.835 465.389 251.7 464.987 251.43 464.703C251.163 464.416 250.792 464.273 250.318 464.273C249.988 464.273 249.693 464.342 249.431 464.482C249.173 464.621 248.968 464.824 248.818 465.091C248.67 465.358 248.596 465.682 248.596 466.062ZM256.606 470.153C256.192 470.153 255.815 470.075 255.477 469.919C255.139 469.76 254.871 469.531 254.672 469.233C254.473 468.932 254.373 468.568 254.373 468.142C254.373 467.767 254.447 467.463 254.595 467.23C254.743 466.994 254.94 466.81 255.187 466.676C255.434 466.543 255.707 466.443 256.006 466.378C256.307 466.31 256.609 466.256 256.913 466.216C257.311 466.165 257.633 466.126 257.881 466.101C258.131 466.072 258.312 466.026 258.426 465.96C258.542 465.895 258.601 465.781 258.601 465.619V465.585C258.601 465.165 258.486 464.838 258.256 464.605C258.028 464.372 257.683 464.256 257.22 464.256C256.74 464.256 256.363 464.361 256.091 464.571C255.818 464.781 255.626 465.006 255.515 465.244L254.561 464.903C254.731 464.506 254.959 464.196 255.243 463.974C255.53 463.75 255.842 463.594 256.18 463.506C256.521 463.415 256.856 463.369 257.186 463.369C257.396 463.369 257.638 463.395 257.91 463.446C258.186 463.494 258.452 463.595 258.707 463.749C258.966 463.902 259.18 464.134 259.351 464.443C259.521 464.753 259.606 465.168 259.606 465.688V470H258.601V469.114H258.55C258.481 469.256 258.368 469.408 258.209 469.57C258.05 469.732 257.838 469.869 257.574 469.983C257.309 470.097 256.987 470.153 256.606 470.153ZM256.76 469.25C257.157 469.25 257.493 469.172 257.765 469.016C258.041 468.859 258.248 468.658 258.388 468.411C258.53 468.163 258.601 467.903 258.601 467.631V466.71C258.558 466.761 258.464 466.808 258.319 466.851C258.177 466.891 258.013 466.926 257.825 466.957C257.64 466.986 257.46 467.011 257.284 467.034C257.111 467.054 256.97 467.071 256.862 467.085C256.601 467.119 256.356 467.175 256.129 467.251C255.905 467.325 255.723 467.437 255.584 467.588C255.447 467.736 255.379 467.937 255.379 468.193C255.379 468.543 255.508 468.807 255.767 468.986C256.028 469.162 256.359 469.25 256.76 469.25ZM264.289 463.455V464.307H260.896V463.455H264.289ZM261.885 461.886H262.891V468.125C262.891 468.409 262.932 468.622 263.014 468.764C263.1 468.903 263.208 468.997 263.338 469.045C263.472 469.091 263.612 469.114 263.76 469.114C263.871 469.114 263.962 469.108 264.033 469.097C264.104 469.082 264.161 469.071 264.203 469.062L264.408 469.966C264.34 469.991 264.244 470.017 264.122 470.043C264 470.071 263.845 470.085 263.658 470.085C263.374 470.085 263.095 470.024 262.823 469.902C262.553 469.78 262.328 469.594 262.149 469.344C261.973 469.094 261.885 468.778 261.885 468.398V461.886ZM271.818 472.591C271.333 472.591 270.915 472.528 270.566 472.403C270.216 472.281 269.925 472.119 269.692 471.918C269.462 471.719 269.279 471.506 269.142 471.278L269.943 470.716C270.034 470.835 270.149 470.972 270.289 471.125C270.428 471.281 270.618 471.416 270.86 471.53C271.104 471.646 271.423 471.705 271.818 471.705C272.347 471.705 272.783 471.577 273.127 471.321C273.47 471.065 273.642 470.665 273.642 470.119V468.79H273.557C273.483 468.909 273.378 469.057 273.242 469.233C273.108 469.406 272.915 469.561 272.662 469.697C272.412 469.831 272.074 469.898 271.648 469.898C271.119 469.898 270.645 469.773 270.225 469.523C269.807 469.273 269.476 468.909 269.232 468.432C268.99 467.955 268.869 467.375 268.869 466.693C268.869 466.023 268.987 465.439 269.223 464.942C269.459 464.442 269.787 464.055 270.208 463.783C270.628 463.507 271.114 463.369 271.665 463.369C272.091 463.369 272.429 463.44 272.679 463.582C272.932 463.722 273.125 463.881 273.259 464.06C273.395 464.236 273.5 464.381 273.574 464.494H273.676V463.455H274.648V470.188C274.648 470.75 274.52 471.207 274.264 471.56C274.012 471.915 273.671 472.175 273.242 472.339C272.816 472.507 272.341 472.591 271.818 472.591ZM271.784 468.994C272.188 468.994 272.529 468.902 272.807 468.717C273.085 468.533 273.297 468.267 273.442 467.92C273.587 467.574 273.659 467.159 273.659 466.676C273.659 466.205 273.588 465.788 273.446 465.428C273.304 465.067 273.094 464.784 272.816 464.58C272.537 464.375 272.193 464.273 271.784 464.273C271.358 464.273 271.003 464.381 270.719 464.597C270.438 464.812 270.226 465.102 270.084 465.466C269.945 465.83 269.875 466.233 269.875 466.676C269.875 467.131 269.946 467.533 270.088 467.882C270.233 468.229 270.446 468.501 270.727 468.7C271.012 468.896 271.364 468.994 271.784 468.994ZM276.489 470V463.455H277.46V464.443H277.529C277.648 464.119 277.864 463.857 278.176 463.655C278.489 463.453 278.841 463.352 279.233 463.352C279.307 463.352 279.399 463.354 279.51 463.357C279.621 463.359 279.705 463.364 279.762 463.369V464.392C279.727 464.384 279.649 464.371 279.527 464.354C279.408 464.334 279.281 464.324 279.148 464.324C278.83 464.324 278.546 464.391 278.296 464.524C278.048 464.655 277.852 464.837 277.708 465.07C277.566 465.3 277.494 465.562 277.494 465.858V470H276.489ZM283.414 470.136C282.823 470.136 282.304 469.996 281.858 469.714C281.415 469.433 281.068 469.04 280.818 468.534C280.571 468.028 280.448 467.437 280.448 466.761C280.448 466.08 280.571 465.484 280.818 464.976C281.068 464.467 281.415 464.072 281.858 463.791C282.304 463.51 282.823 463.369 283.414 463.369C284.004 463.369 284.521 463.51 284.965 463.791C285.411 464.072 285.757 464.467 286.004 464.976C286.254 465.484 286.379 466.08 286.379 466.761C286.379 467.437 286.254 468.028 286.004 468.534C285.757 469.04 285.411 469.433 284.965 469.714C284.521 469.996 284.004 470.136 283.414 470.136ZM283.414 469.233C283.862 469.233 284.232 469.118 284.521 468.888C284.811 468.658 285.026 468.355 285.165 467.98C285.304 467.605 285.374 467.199 285.374 466.761C285.374 466.324 285.304 465.916 285.165 465.538C285.026 465.161 284.811 464.855 284.521 464.622C284.232 464.389 283.862 464.273 283.414 464.273C282.965 464.273 282.595 464.389 282.306 464.622C282.016 464.855 281.801 465.161 281.662 465.538C281.523 465.916 281.453 466.324 281.453 466.761C281.453 467.199 281.523 467.605 281.662 467.98C281.801 468.355 282.016 468.658 282.306 468.888C282.595 469.118 282.965 469.233 283.414 469.233ZM292.04 467.324V463.455H293.045V470H292.04V468.892H291.971C291.818 469.224 291.579 469.507 291.256 469.74C290.932 469.97 290.523 470.085 290.028 470.085C289.619 470.085 289.256 469.996 288.937 469.817C288.619 469.635 288.369 469.362 288.187 468.999C288.006 468.632 287.915 468.17 287.915 467.614V463.455H288.92V467.545C288.92 468.023 289.054 468.403 289.321 468.688C289.591 468.972 289.934 469.114 290.352 469.114C290.602 469.114 290.856 469.05 291.115 468.922C291.376 468.794 291.595 468.598 291.771 468.334C291.95 468.07 292.04 467.733 292.04 467.324ZM294.887 472.455V463.455H295.859V464.494H295.978C296.052 464.381 296.154 464.236 296.285 464.06C296.419 463.881 296.609 463.722 296.856 463.582C297.106 463.44 297.444 463.369 297.87 463.369C298.421 463.369 298.907 463.507 299.328 463.783C299.748 464.058 300.076 464.449 300.312 464.955C300.548 465.46 300.666 466.057 300.666 466.744C300.666 467.438 300.548 468.038 300.312 468.547C300.076 469.053 299.749 469.445 299.332 469.723C298.914 469.999 298.433 470.136 297.887 470.136C297.467 470.136 297.13 470.067 296.877 469.928C296.624 469.786 296.43 469.625 296.294 469.446C296.157 469.264 296.052 469.114 295.978 468.994H295.893V472.455H294.887ZM295.876 466.727C295.876 467.222 295.948 467.658 296.093 468.036C296.238 468.411 296.45 468.705 296.728 468.918C297.007 469.128 297.347 469.233 297.751 469.233C298.171 469.233 298.522 469.122 298.803 468.901C299.088 468.676 299.301 468.375 299.443 467.997C299.588 467.616 299.66 467.193 299.66 466.727C299.66 466.267 299.589 465.852 299.447 465.483C299.308 465.111 299.096 464.817 298.812 464.601C298.531 464.382 298.177 464.273 297.751 464.273C297.342 464.273 296.998 464.376 296.72 464.584C296.441 464.788 296.231 465.075 296.089 465.445C295.947 465.811 295.876 466.239 295.876 466.727Z" fill="#999999"/>
</g>
<defs>
<clipPath id="clip0_3515_11293">
<rect width="400" height="500" fill="white"/>
</clipPath>
<clipPath id="clip1_3515_11293">
<rect width="256" height="256" fill="white" transform="translate(72 150)"/>
</clipPath>
</defs>
</svg>
